M48
; DRILL file KiCad 10.0.1 date 2026-05-31T01:05:37
; FORMAT={-:-/ absolute / metric / decimal}
; #@! TF.CreationDate,2026-05-31T01:05:37+02:00
; #@! TF.GenerationSoftware,Kicad,Pcbnew,10.0.1
; #@! TF.FileFunction,Plated,1,2,PTH
FMAT,2
METRIC
; #@! TA.AperFunction,Plated,PTH,ViaDrill
T1C0.711
%
G90
G05
T1
X124.298Y-119.362
X124.298Y-121.14
X124.298Y-122.918
X125.695Y-98.28
X125.695Y-101.836
X131.537Y-77.198
X131.537Y-78.722
X147.539Y-119.362
X147.539Y-121.14
X147.539Y-122.918
X147.92Y-98.28
X147.92Y-101.836
X152.746Y-98.28
X152.746Y-101.836
X153.0Y-119.362
X153.0Y-121.14
X153.0Y-122.918
X168.875Y-77.198
X168.875Y-78.722
X174.844Y-98.28
X174.844Y-101.836
X176.368Y-119.362
X176.368Y-121.14
X176.368Y-122.918
M30
