%TF.GenerationSoftware,KiCad,Pcbnew,10.0.1*%
%TF.CreationDate,2026-05-31T01:05:34+02:00*%
%TF.ProjectId,RASANT2400,52415341-4e54-4323-9430-302e6b696361,A.0*%
%TF.SameCoordinates,Original*%
%TF.FileFunction,Copper,L2,Bot*%
%TF.FilePolarity,Positive*%
%FSLAX46Y46*%
G04 Gerber Fmt 4.6, Leading zero omitted, Abs format (unit mm)*
G04 Created by KiCad (PCBNEW 10.0.1) date 2026-05-31 01:05:34*
%MOMM*%
%LPD*%
G01*
G04 APERTURE LIST*
%TA.AperFunction,NonConductor*%
%ADD10C,0.000000*%
%TD*%
%TA.AperFunction,NonConductor*%
%ADD11C,0.500000*%
%TD*%
%TA.AperFunction,ViaPad*%
%ADD12C,1.270000*%
%TD*%
%TA.AperFunction,Conductor*%
%ADD13C,0.012700*%
%TD*%
G04 APERTURE END LIST*
D10*
%TA.AperFunction,NonConductor*%
G36*
X148307500Y-123680000D02*
G01*
X123536150Y-123680000D01*
X123536150Y-118600000D01*
X148307500Y-118600000D01*
X148307500Y-123680000D01*
G37*
%TD.AperFunction*%
%TA.AperFunction,NonConductor*%
G36*
X148307500Y-126855000D02*
G01*
X146656500Y-126855000D01*
X146656500Y-123680000D01*
X148307500Y-123680000D01*
X148307500Y-126855000D01*
G37*
%TD.AperFunction*%
%TA.AperFunction,NonConductor*%
G36*
X153762150Y-126855000D02*
G01*
X152111150Y-126855000D01*
X152111150Y-123680000D01*
X153762150Y-123680000D01*
X153762150Y-126855000D01*
G37*
%TD.AperFunction*%
%TA.AperFunction,NonConductor*%
G36*
X169637150Y-79484000D02*
G01*
X130775150Y-79484000D01*
X130775150Y-76486800D01*
X169637150Y-76486800D01*
X169637150Y-79484000D01*
G37*
%TD.AperFunction*%
%TA.AperFunction,NonConductor*%
G36*
X175606150Y-102598000D02*
G01*
X151736500Y-102598000D01*
X151736500Y-97518000D01*
X175606150Y-97518000D01*
X175606150Y-102598000D01*
G37*
%TD.AperFunction*%
%TA.AperFunction,NonConductor*%
G36*
X177003150Y-123680000D02*
G01*
X152111150Y-123680000D01*
X152111150Y-118600000D01*
X177003150Y-118600000D01*
X177003150Y-123680000D01*
G37*
%TD.AperFunction*%
%TA.AperFunction,NonConductor*%
G36*
X150847500Y-99677000D02*
G01*
X150841150Y-126855000D01*
X149571150Y-126855000D01*
X149577500Y-103487000D01*
X148688500Y-102598000D01*
X124806150Y-102598000D01*
X124806150Y-97518000D01*
X148688500Y-97518000D01*
X150847500Y-99677000D01*
G37*
%TD.AperFunction*%
D11*
X150456150Y-126093000D02*
G75*
G02*
X149956150Y-126093000I-250000J0D01*
G01*
X149956150Y-126093000D02*
G75*
G02*
X150456150Y-126093000I250000J0D01*
G01*
D12*
%TO.N,*%
X152746150Y-98280000D03*
X147539150Y-121140000D03*
X153000150Y-119362000D03*
X168875150Y-77198000D03*
X147920150Y-98280000D03*
X124298150Y-121140000D03*
X124298150Y-122918000D03*
X125695150Y-101836000D03*
X176368150Y-122918000D03*
X147539150Y-119362000D03*
X153000150Y-121140000D03*
X125695150Y-98280000D03*
X153000150Y-122918000D03*
X174844150Y-98280000D03*
X168875150Y-78722000D03*
X131537150Y-78722000D03*
X152746150Y-101836000D03*
X176368150Y-121140000D03*
X131537150Y-77198000D03*
X147539150Y-122918000D03*
X147920150Y-101836000D03*
X176368150Y-119362000D03*
X174844150Y-101836000D03*
X124298150Y-119362000D03*
%TD*%
%TO.N,*%
D13*
X131035500Y-76486800D02*
X169135500Y-76486800D01*
X125066500Y-97518000D02*
X148688500Y-97518000D01*
X151736500Y-102598000D02*
X175358500Y-102598000D01*
X146656500Y-126728000D02*
X148307500Y-126728000D01*
X151736500Y-97518000D02*
X175358500Y-97518000D01*
X152244500Y-123680000D02*
X176755500Y-123680000D01*
X152244500Y-118600000D02*
X176755500Y-118600000D01*
X148688500Y-97518000D02*
X150847500Y-99677000D01*
X123796500Y-118600000D02*
X148307500Y-118600000D01*
X123796500Y-123680000D02*
X148307500Y-123680000D01*
X131035500Y-79484000D02*
X169135500Y-79484000D01*
X125066500Y-102598000D02*
X148688500Y-102598000D01*
%TD*%
M02*
