M48
; DRILL file KiCad 10.0.1 date 2026-05-30T16:25:40
; FORMAT={-:-/ absolute / metric / decimal}
; #@! TF.CreationDate,2026-05-30T16:25:40+02:00
; #@! TF.GenerationSoftware,Kicad,Pcbnew,10.0.1
; #@! TF.FileFunction,Plated,1,4,PTH
FMAT,2
METRIC
; #@! TA.AperFunction,Plated,PTH,ViaDrill
T1C0.200
; #@! TA.AperFunction,Plated,PTH,ComponentDrill
T2C0.200
; #@! TA.AperFunction,Plated,PTH,ViaDrill
T3C0.400
; #@! TA.AperFunction,Plated,PTH,ViaDrill
T4C0.500
; #@! TA.AperFunction,Plated,PTH,ComponentDrill
T5C0.500
; #@! TA.AperFunction,Plated,PTH,ComponentDrill
T6C1.000
%
G90
G05
T1
X81.68Y-57.53
X81.77Y-60.11
X82.24Y-61.85
X82.45Y-51.9
X83.09Y-60.27
X83.11Y-59.52
X83.92Y-57.66
X84.01Y-58.68
X84.05Y-55.48
X84.7Y-51.33
X84.7Y-54.1
X84.78Y-57.65
X85.42Y-53.16
X85.48Y-54.97
X85.8Y-44.7
X86.01Y-51.33
X86.13Y-58.5
X86.186Y-61.8
X86.72Y-42.25
X86.97Y-43.25
X88.366Y-53.16
X88.704Y-61.8
X88.73Y-43.83
X88.97Y-51.32
X89.22Y-57.59
X89.35Y-43.07
X89.839Y-53.16
X89.962Y-61.8
X90.33Y-51.32
X90.62Y-57.59
X90.63Y-59.14
X91.221Y-61.8
X91.311Y-53.16
X91.73Y-51.32
X92.01Y-59.14
X92.02Y-57.59
X92.4Y-72.6
X92.48Y-61.8
X92.784Y-53.16
X93.13Y-51.32
X93.42Y-57.59
X93.5Y-72.6
X93.973Y-61.248
X94.257Y-53.16
X94.53Y-51.32
X94.6Y-72.6
X94.82Y-57.59
X95.0Y-41.75
X95.73Y-53.16
X95.93Y-51.32
X96.15Y-59.17
X96.74Y-58.73
X96.994Y-53.406
X97.26Y-55.355
X97.26Y-55.955
X97.27Y-57.355
X97.27Y-57.955
X97.35Y-60.36
X97.496Y-52.904
X98.1Y-64.8
X98.4Y-66.0
X98.805Y-63.13
X100.089Y-60.477
X100.099Y-51.661
X100.549Y-63.767
X100.605Y-62.105
X100.785Y-49.2
X101.085Y-51.64
X101.72Y-50.03
X101.745Y-48.37
X102.039Y-60.476
X102.095Y-63.833
X102.13Y-62.13
X102.44Y-50.32
X102.57Y-51.0
X102.85Y-61.42
X103.069Y-60.397
X103.279Y-48.43
X103.305Y-50.055
X103.561Y-51.665
X103.619Y-63.867
X103.63Y-62.155
X104.185Y-49.212
X104.305Y-63.93
X104.375Y-61.62
X105.205Y-67.43
X105.205Y-68.43
X105.205Y-69.63
X105.355Y-60.48
X105.405Y-51.677
X105.905Y-63.03
X105.905Y-64.03
X105.905Y-65.03
X106.235Y-52.54
X106.629Y-58.037
X106.719Y-55.187
X106.723Y-56.845
X107.005Y-50.03
X107.354Y-71.531
X107.429Y-62.687
X108.005Y-50.03
X108.205Y-65.83
X108.205Y-67.63
X108.509Y-57.917
X108.905Y-50.53
X108.953Y-62.687
X109.005Y-54.43
X109.461Y-72.339
X109.889Y-70.246
X109.969Y-71.323
X110.005Y-54.63
X110.105Y-57.13
X110.165Y-55.79
X110.205Y-52.03
X110.4Y-61.5
X110.485Y-66.28
X110.505Y-55.03
X110.525Y-62.225
X110.605Y-56.63
X110.605Y-57.83
X110.805Y-52.63
X111.005Y-64.03
X111.2Y-69.6
X111.205Y-53.63
X111.805Y-62.83
X112.005Y-65.43
X112.014Y-70.104
X112.205Y-55.03
X112.205Y-56.83
X112.205Y-57.658
X112.205Y-58.547
X112.305Y-63.33
X112.46Y-60.91
X112.8Y-70.6
X112.805Y-64.63
X113.005Y-63.83
X113.019Y-54.206
X113.157Y-57.023
X113.157Y-57.785
X113.705Y-63.83
X113.8Y-71.0
X113.805Y-64.63
X114.046Y-56.642
X114.046Y-57.404
X114.25Y-52.959
X114.6Y-71.0
X114.605Y-64.23
X115.305Y-64.23
X115.4Y-71.0
X115.57Y-56.642
X115.6Y-57.4
X115.824Y-54.61
X116.105Y-64.23
X116.332Y-57.404
X116.332Y-71.0
X116.805Y-64.23
X117.094Y-54.61
X117.2Y-71.0
X117.475Y-51.308
X117.505Y-64.23
X117.602Y-49.276
X117.742Y-54.089
X118.03Y-52.45
X118.491Y-56.896
X118.618Y-48.768
X118.8Y-69.0
X118.89Y-67.78
X118.905Y-62.13
X118.91Y-65.88
X118.92Y-60.15
X118.999Y-52.832
X119.005Y-64.63
X119.126Y-56.896
X119.2Y-62.6
X119.761Y-56.896
X119.825Y-46.672
X119.888Y-41.196
X119.888Y-42.799
X119.888Y-45.593
X120.005Y-64.63
X120.005Y-76.73
X121.031Y-40.132
X122.005Y-73.13
X122.105Y-78.43
X122.4Y-66.0
X122.4Y-67.5
X122.5Y-59.7
X122.5Y-61.2
X122.805Y-64.63
X122.936Y-55.372
X123.444Y-64.008
X123.698Y-57.023
X124.46Y-56.388
X124.46Y-64.008
X124.805Y-79.33
X124.968Y-57.15
X125.222Y-75.184
X125.349Y-55.753
X125.476Y-64.008
X125.73Y-56.388
X125.857Y-53.213
X126.405Y-79.33
X126.445Y-70.92
X126.746Y-47.625
X126.746Y-50.8
X126.768Y-65.0
X126.873Y-55.753
X126.873Y-57.15
X126.873Y-58.801
X127.0Y-53.594
X127.784Y-65.0
X128.016Y-58.801
X128.029Y-53.2
X128.651Y-55.753
X128.651Y-57.15
X128.8Y-65.0
X129.2Y-51.105
X129.805Y-48.68
X129.865Y-70.6
X130.205Y-73.83
X130.429Y-53.975
X130.43Y-50.255
X130.556Y-55.753
X131.005Y-78.83
X131.13Y-58.305
X131.2Y-72.2
X131.405Y-53.975
X132.105Y-55.63
X132.505Y-49.505
X132.805Y-53.73
X133.03Y-58.305
X133.035Y-59.92
X133.345Y-61.43
X133.345Y-63.23
X133.575Y-47.69
X133.58Y-58.58
X133.86Y-51.9
X134.145Y-63.23
X134.145Y-64.03
X134.295Y-48.41
X134.345Y-59.43
X134.945Y-58.83
X135.105Y-51.86
X135.985Y-73.554
X136.005Y-56.33
X136.025Y-56.93
X136.08Y-53.53
X136.085Y-48.57
X136.105Y-55.43
X136.145Y-54.22
X136.19Y-57.59
X136.21Y-69.825
X136.255Y-52.355
X136.705Y-60.53
X136.705Y-61.23
X136.705Y-82.58
X136.8Y-67.6
X137.035Y-47.7
X137.145Y-63.43
X137.31Y-46.12
X137.6Y-69.4
X137.6Y-70.2
X137.755Y-50.59
X138.035Y-63.175
X138.105Y-68.73
X138.25Y-78.1
X138.43Y-49.505
X138.555Y-50.4
X138.575Y-63.71
X138.605Y-68.03
X138.691Y-73.843
X138.805Y-75.32
X138.805Y-76.03
X139.125Y-64.575
X139.205Y-60.43
X139.205Y-68.03
X139.6Y-71.4
X139.778Y-44.41
X139.815Y-61.53
X140.105Y-68.03
X140.405Y-71.43
X140.505Y-76.23
X140.52Y-63.63
X140.705Y-68.03
X140.805Y-60.33
X141.005Y-50.42
X141.375Y-61.125
X141.405Y-68.03
X141.505Y-62.63
X141.705Y-48.62
X142.14Y-61.96
X142.205Y-68.03
X142.588Y-78.09
X142.828Y-46.42
X142.878Y-49.225
X142.895Y-51.76
X142.898Y-50.89
X143.03Y-68.02
X143.205Y-71.53
X143.891Y-79.502
X144.098Y-78.63
X144.113Y-75.078
X144.145Y-68.63
X144.145Y-69.23
X144.145Y-69.83
X144.205Y-77.27
X144.405Y-61.73
X144.53Y-59.305
X144.58Y-67.45
X144.602Y-58.333
X144.67Y-61.11
X144.78Y-54.305
X144.83Y-55.03
X144.905Y-73.23
X145.292Y-74.867
X145.738Y-77.69
X146.268Y-73.36
X146.365Y-74.02
X146.655Y-50.59
X146.779Y-70.779
X146.855Y-60.58
X147.43Y-79.049
X148.055Y-54.46
X148.08Y-59.705
X148.105Y-55.03
X148.207Y-73.023
X148.23Y-53.48
X148.355Y-50.98
X148.541Y-56.131
X148.745Y-58.28
X148.85Y-67.46
X149.09Y-66.07
X149.37Y-58.28
X149.445Y-56.131
X149.778Y-47.59
X149.805Y-46.73
X151.645Y-56.43
X151.645Y-58.43
X151.878Y-74.61
X152.309Y-68.209
X152.5Y-70.8
X152.545Y-56.43
X152.545Y-58.43
X153.245Y-56.83
X153.345Y-58.33
X153.575Y-72.21
X154.495Y-56.83
X154.57Y-58.33
X155.745Y-56.83
X155.795Y-58.33
X156.645Y-56.43
X156.645Y-58.78
X157.725Y-56.43
X157.725Y-58.78
X158.805Y-56.43
X158.805Y-58.78
X159.885Y-56.43
X159.885Y-58.78
T2
X100.725Y-54.58
X100.725Y-55.367
X100.725Y-56.155
X100.725Y-56.942
X100.725Y-57.73
X101.513Y-54.58
X101.513Y-55.367
X101.513Y-56.155
X101.513Y-56.942
X101.513Y-57.73
X102.3Y-54.58
X102.3Y-55.367
X102.3Y-56.155
X102.3Y-56.942
X102.3Y-57.73
X103.088Y-54.58
X103.088Y-55.367
X103.088Y-56.155
X103.088Y-56.942
X103.088Y-57.73
X103.875Y-54.58
X103.875Y-55.367
X103.875Y-56.155
X103.875Y-56.942
X103.875Y-57.73
X138.989Y-54.686
X138.989Y-56.083
X138.989Y-57.48
X140.386Y-54.686
X140.386Y-56.083
X140.386Y-57.48
X141.783Y-54.686
X141.783Y-56.083
X141.783Y-57.48
T3
X82.09Y-44.65
X84.8Y-36.8
X84.8Y-39.2
X84.8Y-41.8
X84.9Y-63.65
X84.9Y-64.85
X84.9Y-66.62
X84.9Y-67.95
X84.9Y-69.03
X84.9Y-70.7
X84.9Y-72.06
X84.9Y-73.6
X84.9Y-75.7
X84.9Y-76.91
X84.9Y-78.8
X84.9Y-80.7
X84.9Y-82.7
X84.9Y-83.7
X84.9Y-85.7
X84.9Y-86.7
X84.9Y-88.37
X86.6Y-49.6
X86.7Y-46.6
X86.7Y-48.1
X88.045Y-36.45
X88.3Y-46.0
X88.3Y-47.6
X88.3Y-49.2
X88.786Y-89.79
X92.067Y-89.79
X92.944Y-36.45
X93.9Y-80.1
X94.155Y-78.305
X94.3Y-81.2
X95.347Y-89.79
X95.425Y-77.075
X95.5Y-81.5
X95.8Y-83.7
X96.7Y-71.8
X97.005Y-73.83
X97.005Y-74.93
X97.005Y-75.93
X97.842Y-36.45
X98.305Y-76.53
X102.741Y-36.45
X103.8Y-89.8
X104.1Y-82.7
X104.105Y-75.83
X104.475Y-71.83
X106.8Y-89.8
X107.639Y-36.45
X109.8Y-89.8
X112.2Y-77.4
X112.538Y-36.45
X113.0Y-55.88
X113.8Y-82.7
X115.2Y-77.4
X117.255Y-89.79
X117.436Y-36.45
X120.4Y-89.8
X120.5Y-82.7
X122.105Y-77.13
X122.335Y-36.45
X123.1Y-79.6
X127.234Y-36.45
X127.8Y-89.8
X128.016Y-43.053
X128.016Y-43.942
X129.8Y-68.6
X131.0Y-67.4
X131.86Y-89.79
X132.132Y-36.45
X134.4Y-66.4
X135.4Y-89.8
X135.6Y-65.4
X137.031Y-36.45
X139.162Y-89.79
X141.929Y-36.45
X143.0Y-89.8
X146.465Y-89.79
X146.828Y-36.45
X156.6Y-48.4
X156.6Y-66.4
X156.6Y-90.0
X156.625Y-36.45
X156.625Y-44.493
X156.625Y-52.537
X156.625Y-64.39
X156.625Y-68.623
X156.625Y-76.667
X156.625Y-84.71
T4
X96.975Y-77.07
X98.21Y-78.3
X98.22Y-80.1
X98.95Y-64.25
X100.47Y-71.81
X101.7Y-65.5
X104.805Y-66.43
X106.25Y-74.0
X107.505Y-52.43
X108.204Y-64.008
X119.888Y-71.628
X120.904Y-71.628
X121.92Y-71.628
X126.6Y-69.6
X127.889Y-44.958
X129.87Y-44.63
X132.405Y-44.83
X134.47Y-45.03
X136.1Y-45.0
T5
X88.93Y-39.6
X93.45Y-39.6
X108.56Y-81.0
X108.56Y-87.72
X113.275Y-81.0
X113.275Y-87.72
X117.99Y-81.0
X117.99Y-87.72
X133.52Y-39.36
T6
X158.229Y-72.593
X158.229Y-75.133
X158.229Y-77.673
X158.229Y-80.213
M30
