%TF.GenerationSoftware,KiCad,Pcbnew,10.0.1*%
%TF.CreationDate,2026-05-30T16:25:37+02:00*%
%TF.ProjectId,RASRF,52415352-462e-46b6-9963-61645f706362,AB*%
%TF.SameCoordinates,Original*%
%TF.FileFunction,Soldermask,Bot*%
%TF.FilePolarity,Negative*%
%FSLAX46Y46*%
G04 Gerber Fmt 4.6, Leading zero omitted, Abs format (unit mm)*
G04 Created by KiCad (PCBNEW 10.0.1) date 2026-05-30 16:25:37*
%MOMM*%
%LPD*%
G01*
G04 APERTURE LIST*
G04 Aperture macros list*
%AMRoundRect*
0 Rectangle with rounded corners*
0 $1 Rounding radius*
0 $2 $3 $4 $5 $6 $7 $8 $9 X,Y pos of 4 corners*
0 Add a 4 corners polygon primitive as box body*
4,1,4,$2,$3,$4,$5,$6,$7,$8,$9,$2,$3,0*
0 Add four circle primitives for the rounded corners*
1,1,$1+$1,$2,$3*
1,1,$1+$1,$4,$5*
1,1,$1+$1,$6,$7*
1,1,$1+$1,$8,$9*
0 Add four rect primitives between the rounded corners*
20,1,$1+$1,$2,$3,$4,$5,0*
20,1,$1+$1,$4,$5,$6,$7,0*
20,1,$1+$1,$6,$7,$8,$9,0*
20,1,$1+$1,$8,$9,$2,$3,0*%
G04 Aperture macros list end*
%ADD10C,1.000000*%
%ADD11C,0.500000*%
%ADD12R,1.700000X1.700000*%
%ADD13O,1.700000X1.700000*%
%ADD14C,3.200000*%
%ADD15R,3.200000X0.700000*%
%ADD16R,4.300000X0.700000*%
%ADD17RoundRect,0.200000X2.050000X-0.625000X2.050000X0.625000X-2.050000X0.625000X-2.050000X-0.625000X0*%
%ADD18RoundRect,0.225000X-0.250000X0.225000X-0.250000X-0.225000X0.250000X-0.225000X0.250000X0.225000X0*%
%ADD19RoundRect,0.225000X0.225000X0.250000X-0.225000X0.250000X-0.225000X-0.250000X0.225000X-0.250000X0*%
%ADD20RoundRect,0.225000X0.250000X-0.225000X0.250000X0.225000X-0.250000X0.225000X-0.250000X-0.225000X0*%
%ADD21RoundRect,0.200000X0.200000X0.275000X-0.200000X0.275000X-0.200000X-0.275000X0.200000X-0.275000X0*%
%ADD22RoundRect,0.225000X-0.225000X-0.250000X0.225000X-0.250000X0.225000X0.250000X-0.225000X0.250000X0*%
G04 APERTURE END LIST*
D10*
%TO.C,TP12*%
X113275000Y-81000000D03*
%TD*%
D11*
%TO.C,U7*%
X100725400Y-57729600D03*
X101512800Y-57729600D03*
X102300200Y-57729600D03*
X103087600Y-57729600D03*
X103875000Y-57729600D03*
X100725400Y-56942200D03*
X101512800Y-56942200D03*
X102300200Y-56942200D03*
X103087600Y-56942200D03*
X103875000Y-56942200D03*
X100725400Y-56154800D03*
X101512800Y-56154800D03*
X102300200Y-56154800D03*
X103087600Y-56154800D03*
X103875000Y-56154800D03*
X100725400Y-55367400D03*
X101512800Y-55367400D03*
X102300200Y-55367400D03*
X103087600Y-55367400D03*
X103875000Y-55367400D03*
X100725400Y-54580000D03*
X101512800Y-54580000D03*
X102300200Y-54580000D03*
X103087600Y-54580000D03*
X103875000Y-54580000D03*
%TD*%
D12*
%TO.C,J4*%
X158229300Y-72593200D03*
D13*
X158229300Y-75133200D03*
X158229300Y-77673200D03*
X158229300Y-80213200D03*
%TD*%
D14*
%TO.C,H2*%
X99555300Y-40335200D03*
%TD*%
%TO.C,H3*%
X99555300Y-87325200D03*
%TD*%
%TO.C,H4*%
X152895300Y-87325200D03*
%TD*%
D10*
%TO.C,TP20*%
X88930000Y-39600000D03*
%TD*%
%TO.C,TP1*%
X108560000Y-81000000D03*
%TD*%
%TO.C,TP14*%
X113275000Y-87720000D03*
%TD*%
D14*
%TO.C,H1*%
X152895300Y-40335200D03*
%TD*%
D10*
%TO.C,TP16*%
X117990000Y-87720000D03*
%TD*%
D11*
%TO.C,U5*%
X141782800Y-57480200D03*
X141782800Y-56083200D03*
X141782800Y-54686200D03*
X140385800Y-57480200D03*
X140385800Y-56083200D03*
X140385800Y-54686200D03*
X138988800Y-57480200D03*
X138988800Y-56083200D03*
X138988800Y-54686200D03*
%TD*%
D15*
%TO.C,J1*%
X79450000Y-38700000D03*
D16*
X78900000Y-39700000D03*
X78900000Y-40700000D03*
X78900000Y-41700000D03*
X78900000Y-42700000D03*
X78900000Y-43700000D03*
X78900000Y-44700000D03*
X78900000Y-45700000D03*
X78900000Y-46700000D03*
X78900000Y-47700000D03*
X78900000Y-48700000D03*
X78900000Y-51700000D03*
X78900000Y-52700000D03*
X78900000Y-53700000D03*
X78900000Y-54700000D03*
X78900000Y-55700000D03*
X78900000Y-56700000D03*
X78900000Y-57700000D03*
X78900000Y-58700000D03*
X78900000Y-59700000D03*
X78900000Y-60700000D03*
X78900000Y-61700000D03*
X78900000Y-62700000D03*
X78900000Y-63700000D03*
X78900000Y-64700000D03*
X78900000Y-65700000D03*
X78900000Y-66700000D03*
X78900000Y-67700000D03*
X78900000Y-68700000D03*
X78900000Y-69700000D03*
X78900000Y-70700000D03*
X78900000Y-71700000D03*
X78900000Y-72700000D03*
X78900000Y-73700000D03*
X78900000Y-74700000D03*
X78900000Y-75700000D03*
X78900000Y-76700000D03*
X78900000Y-77700000D03*
X78900000Y-78700000D03*
X78900000Y-79700000D03*
X78900000Y-80700000D03*
X78900000Y-81700000D03*
X78900000Y-82700000D03*
X78900000Y-83700000D03*
X78900000Y-84700000D03*
X78900000Y-85700000D03*
X78900000Y-86700000D03*
X78900000Y-87700000D03*
X78900000Y-88700000D03*
%TD*%
D10*
%TO.C,TP8*%
X133520000Y-39360000D03*
%TD*%
%TO.C,TP21*%
X93450000Y-39600000D03*
%TD*%
D17*
%TO.C,J3*%
X158250000Y-60305000D03*
X158250000Y-54755000D03*
%TD*%
D10*
%TO.C,TP15*%
X117990000Y-81000000D03*
%TD*%
%TO.C,TP11*%
X108560000Y-87720000D03*
%TD*%
D18*
%TO.C,C48*%
X100099300Y-50962200D03*
X100099300Y-52512200D03*
%TD*%
D19*
%TO.C,C56*%
X107442300Y-56845200D03*
X105892300Y-56845200D03*
%TD*%
D18*
%TO.C,C52*%
X101649300Y-50962200D03*
X101649300Y-52512200D03*
%TD*%
D20*
%TO.C,C39*%
X135005000Y-59205000D03*
X135005000Y-57655000D03*
%TD*%
D21*
%TO.C,R23*%
X135125000Y-52700000D03*
X133475000Y-52700000D03*
%TD*%
D22*
%TO.C,C40*%
X133430000Y-55930000D03*
X134980000Y-55930000D03*
%TD*%
D18*
%TO.C,C62*%
X105209300Y-50992200D03*
X105209300Y-52542200D03*
%TD*%
D20*
%TO.C,C44*%
X100063300Y-61189200D03*
X100063300Y-59639200D03*
%TD*%
D18*
%TO.C,C63*%
X103639300Y-50992200D03*
X103639300Y-52542200D03*
%TD*%
D20*
%TO.C,C47*%
X103619300Y-61176200D03*
X103619300Y-59626200D03*
%TD*%
%TO.C,C53*%
X105169300Y-61176200D03*
X105169300Y-59626200D03*
%TD*%
%TO.C,C43*%
X102095300Y-61176200D03*
X102095300Y-59626200D03*
%TD*%
D19*
%TO.C,C59*%
X107442300Y-55227200D03*
X105892300Y-55227200D03*
%TD*%
D22*
%TO.C,C20*%
X133705000Y-54260000D03*
X135255000Y-54260000D03*
%TD*%
M02*
