%TF.GenerationSoftware,KiCad,Pcbnew,10.0.1*%
%TF.CreationDate,2026-05-30T16:25:37+02:00*%
%TF.ProjectId,RASRF,52415352-462e-46b6-9963-61645f706362,AB*%
%TF.SameCoordinates,Original*%
%TF.FileFunction,Paste,Top*%
%TF.FilePolarity,Positive*%
%FSLAX46Y46*%
G04 Gerber Fmt 4.6, Leading zero omitted, Abs format (unit mm)*
G04 Created by KiCad (PCBNEW 10.0.1) date 2026-05-30 16:25:37*
%MOMM*%
%LPD*%
G01*
G04 APERTURE LIST*
G04 Aperture macros list*
%AMRoundRect*
0 Rectangle with rounded corners*
0 $1 Rounding radius*
0 $2 $3 $4 $5 $6 $7 $8 $9 X,Y pos of 4 corners*
0 Add a 4 corners polygon primitive as box body*
4,1,4,$2,$3,$4,$5,$6,$7,$8,$9,$2,$3,0*
0 Add four circle primitives for the rounded corners*
1,1,$1+$1,$2,$3*
1,1,$1+$1,$4,$5*
1,1,$1+$1,$6,$7*
1,1,$1+$1,$8,$9*
0 Add four rect primitives between the rounded corners*
20,1,$1+$1,$2,$3,$4,$5,0*
20,1,$1+$1,$4,$5,$6,$7,0*
20,1,$1+$1,$6,$7,$8,$9,0*
20,1,$1+$1,$8,$9,$2,$3,0*%
%AMFreePoly0*
4,1,14,0.230680,0.111820,0.364320,-0.021820,0.377500,-0.053640,0.377500,-0.080000,0.364320,-0.111820,0.332500,-0.125000,-0.332500,-0.125000,-0.364320,-0.111820,-0.377500,-0.080000,-0.377500,0.080000,-0.364320,0.111820,-0.332500,0.125000,0.198860,0.125000,0.230680,0.111820,0.230680,0.111820,$1*%
%AMFreePoly1*
4,1,14,0.364320,0.111820,0.377500,0.080000,0.377500,0.053640,0.364320,0.021820,0.230680,-0.111820,0.198860,-0.125000,-0.332500,-0.125000,-0.364320,-0.111820,-0.377500,-0.080000,-0.377500,0.080000,-0.364320,0.111820,-0.332500,0.125000,0.332500,0.125000,0.364320,0.111820,0.364320,0.111820,$1*%
%AMFreePoly2*
4,1,14,0.111820,0.364320,0.125000,0.332500,0.125000,-0.332500,0.111820,-0.364320,0.080000,-0.377500,-0.080000,-0.377500,-0.111820,-0.364320,-0.125000,-0.332500,-0.125000,0.198860,-0.111820,0.230680,0.021820,0.364320,0.053640,0.377500,0.080000,0.377500,0.111820,0.364320,0.111820,0.364320,$1*%
%AMFreePoly3*
4,1,14,-0.021820,0.364320,0.111820,0.230680,0.125000,0.198860,0.125000,-0.332500,0.111820,-0.364320,0.080000,-0.377500,-0.080000,-0.377500,-0.111820,-0.364320,-0.125000,-0.332500,-0.125000,0.332500,-0.111820,0.364320,-0.080000,0.377500,-0.053640,0.377500,-0.021820,0.364320,-0.021820,0.364320,$1*%
%AMFreePoly4*
4,1,14,0.364320,0.111820,0.377500,0.080000,0.377500,-0.080000,0.364320,-0.111820,0.332500,-0.125000,-0.198860,-0.125000,-0.230680,-0.111820,-0.364320,0.021820,-0.377500,0.053640,-0.377500,0.080000,-0.364320,0.111820,-0.332500,0.125000,0.332500,0.125000,0.364320,0.111820,0.364320,0.111820,$1*%
%AMFreePoly5*
4,1,14,0.364320,0.111820,0.377500,0.080000,0.377500,-0.080000,0.364320,-0.111820,0.332500,-0.125000,-0.332500,-0.125000,-0.364320,-0.111820,-0.377500,-0.080000,-0.377500,-0.053640,-0.364320,-0.021820,-0.230680,0.111820,-0.198860,0.125000,0.332500,0.125000,0.364320,0.111820,0.364320,0.111820,$1*%
%AMFreePoly6*
4,1,14,0.111820,0.364320,0.125000,0.332500,0.125000,-0.198860,0.111820,-0.230680,-0.021820,-0.364320,-0.053640,-0.377500,-0.080000,-0.377500,-0.111820,-0.364320,-0.125000,-0.332500,-0.125000,0.332500,-0.111820,0.364320,-0.080000,0.377500,0.080000,0.377500,0.111820,0.364320,0.111820,0.364320,$1*%
%AMFreePoly7*
4,1,14,0.111820,0.364320,0.125000,0.332500,0.125000,-0.332500,0.111820,-0.364320,0.080000,-0.377500,0.053640,-0.377500,0.021820,-0.364320,-0.111820,-0.230680,-0.125000,-0.198860,-0.125000,0.332500,-0.111820,0.364320,-0.080000,0.377500,0.080000,0.377500,0.111820,0.364320,0.111820,0.364320,$1*%
G04 Aperture macros list end*
%ADD10C,0.000000*%
%ADD11RoundRect,0.200000X-0.200000X-0.275000X0.200000X-0.275000X0.200000X0.275000X-0.200000X0.275000X0*%
%ADD12RoundRect,0.218750X-0.218750X-0.256250X0.218750X-0.256250X0.218750X0.256250X-0.218750X0.256250X0*%
%ADD13RoundRect,0.218750X0.218750X0.256250X-0.218750X0.256250X-0.218750X-0.256250X0.218750X-0.256250X0*%
%ADD14RoundRect,0.225000X0.250000X-0.225000X0.250000X0.225000X-0.250000X0.225000X-0.250000X-0.225000X0*%
%ADD15RoundRect,0.200000X-0.275000X0.200000X-0.275000X-0.200000X0.275000X-0.200000X0.275000X0.200000X0*%
%ADD16RoundRect,0.225000X-0.250000X0.225000X-0.250000X-0.225000X0.250000X-0.225000X0.250000X0.225000X0*%
%ADD17RoundRect,0.200000X0.275000X-0.200000X0.275000X0.200000X-0.275000X0.200000X-0.275000X-0.200000X0*%
%ADD18RoundRect,0.225000X0.225000X0.250000X-0.225000X0.250000X-0.225000X-0.250000X0.225000X-0.250000X0*%
%ADD19RoundRect,0.200000X0.200000X0.275000X-0.200000X0.275000X-0.200000X-0.275000X0.200000X-0.275000X0*%
%ADD20R,1.803400X1.340600*%
%ADD21R,1.422400X0.558800*%
%ADD22RoundRect,0.225000X-0.225000X-0.250000X0.225000X-0.250000X0.225000X0.250000X-0.225000X0.250000X0*%
%ADD23R,0.254800X0.807999*%
%ADD24R,0.807999X0.254800*%
%ADD25R,0.300000X0.350000*%
%ADD26R,0.350000X0.350000*%
%ADD27R,1.500000X2.000000*%
%ADD28R,3.800000X2.000000*%
%ADD29R,0.965200X0.939800*%
%ADD30R,0.800000X0.900000*%
%ADD31R,0.825000X0.500000*%
%ADD32RoundRect,0.150000X0.150000X-0.512500X0.150000X0.512500X-0.150000X0.512500X-0.150000X-0.512500X0*%
%ADD33FreePoly0,0.000000*%
%ADD34RoundRect,0.062500X-0.375000X-0.062500X0.375000X-0.062500X0.375000X0.062500X-0.375000X0.062500X0*%
%ADD35FreePoly1,0.000000*%
%ADD36FreePoly2,0.000000*%
%ADD37RoundRect,0.062500X-0.062500X-0.375000X0.062500X-0.375000X0.062500X0.375000X-0.062500X0.375000X0*%
%ADD38FreePoly3,0.000000*%
%ADD39FreePoly4,0.000000*%
%ADD40FreePoly5,0.000000*%
%ADD41FreePoly6,0.000000*%
%ADD42FreePoly7,0.000000*%
%ADD43R,4.100000X0.900000*%
%ADD44R,4.100000X1.250000*%
%ADD45R,0.700001X0.200000*%
%ADD46R,0.599999X0.200000*%
%ADD47R,0.200000X0.599999*%
G04 APERTURE END LIST*
D10*
%TO.C,U7*%
G36*
X100601600Y-54122800D02*
G01*
X100601600Y-54427358D01*
X100460179Y-54568779D01*
X100155621Y-54568779D01*
X100014200Y-54427358D01*
X100014200Y-54122800D01*
X100155621Y-53981379D01*
X100460179Y-53981379D01*
X100601600Y-54122800D01*
G37*
G36*
X100625400Y-54821421D02*
G01*
X100625400Y-55125979D01*
X100483979Y-55267400D01*
X100179421Y-55267400D01*
X100038000Y-55125979D01*
X100038000Y-54821421D01*
X100179421Y-54680000D01*
X100483979Y-54680000D01*
X100625400Y-54821421D01*
G37*
G36*
X100625400Y-55608821D02*
G01*
X100625400Y-55913379D01*
X100483979Y-56054800D01*
X100179421Y-56054800D01*
X100038000Y-55913379D01*
X100038000Y-55608821D01*
X100179421Y-55467400D01*
X100483979Y-55467400D01*
X100625400Y-55608821D01*
G37*
G36*
X100625400Y-56396221D02*
G01*
X100625400Y-56700779D01*
X100483979Y-56842200D01*
X100179421Y-56842200D01*
X100038000Y-56700779D01*
X100038000Y-56396221D01*
X100179421Y-56254800D01*
X100483979Y-56254800D01*
X100625400Y-56396221D01*
G37*
G36*
X100625400Y-57183621D02*
G01*
X100625400Y-57488179D01*
X100483979Y-57629600D01*
X100179421Y-57629600D01*
X100038000Y-57488179D01*
X100038000Y-57183621D01*
X100179421Y-57042200D01*
X100483979Y-57042200D01*
X100625400Y-57183621D01*
G37*
G36*
X100625400Y-57971021D02*
G01*
X100625400Y-58275579D01*
X100483979Y-58417000D01*
X100179421Y-58417000D01*
X100038000Y-58275579D01*
X100038000Y-57971021D01*
X100179421Y-57829600D01*
X100483979Y-57829600D01*
X100625400Y-57971021D01*
G37*
G36*
X101412800Y-54034021D02*
G01*
X101412800Y-54338579D01*
X101271379Y-54480000D01*
X100966821Y-54480000D01*
X100825400Y-54338579D01*
X100825400Y-54034021D01*
X100966821Y-53892600D01*
X101271379Y-53892600D01*
X101412800Y-54034021D01*
G37*
G36*
X101412800Y-54821421D02*
G01*
X101412800Y-55125979D01*
X101271379Y-55267400D01*
X100966821Y-55267400D01*
X100825400Y-55125979D01*
X100825400Y-54821421D01*
X100966821Y-54680000D01*
X101271379Y-54680000D01*
X101412800Y-54821421D01*
G37*
G36*
X101412800Y-55608821D02*
G01*
X101412800Y-55913379D01*
X101271379Y-56054800D01*
X100966821Y-56054800D01*
X100825400Y-55913379D01*
X100825400Y-55608821D01*
X100966821Y-55467400D01*
X101271379Y-55467400D01*
X101412800Y-55608821D01*
G37*
G36*
X101412800Y-56396221D02*
G01*
X101412800Y-56700779D01*
X101271379Y-56842200D01*
X100966821Y-56842200D01*
X100825400Y-56700779D01*
X100825400Y-56396221D01*
X100966821Y-56254800D01*
X101271379Y-56254800D01*
X101412800Y-56396221D01*
G37*
G36*
X101412800Y-57183621D02*
G01*
X101412800Y-57488179D01*
X101271379Y-57629600D01*
X100966821Y-57629600D01*
X100825400Y-57488179D01*
X100825400Y-57183621D01*
X100966821Y-57042200D01*
X101271379Y-57042200D01*
X101412800Y-57183621D01*
G37*
G36*
X101412800Y-57971021D02*
G01*
X101412800Y-58275579D01*
X101271379Y-58417000D01*
X100966821Y-58417000D01*
X100825400Y-58275579D01*
X100825400Y-57971021D01*
X100966821Y-57829600D01*
X101271379Y-57829600D01*
X101412800Y-57971021D01*
G37*
G36*
X102200200Y-54034021D02*
G01*
X102200200Y-54338579D01*
X102058779Y-54480000D01*
X101754221Y-54480000D01*
X101612800Y-54338579D01*
X101612800Y-54034021D01*
X101754221Y-53892600D01*
X102058779Y-53892600D01*
X102200200Y-54034021D01*
G37*
G36*
X102200200Y-54821421D02*
G01*
X102200200Y-55125979D01*
X102058779Y-55267400D01*
X101754221Y-55267400D01*
X101612800Y-55125979D01*
X101612800Y-54821421D01*
X101754221Y-54680000D01*
X102058779Y-54680000D01*
X102200200Y-54821421D01*
G37*
G36*
X102200200Y-55608821D02*
G01*
X102200200Y-55913379D01*
X102058779Y-56054800D01*
X101754221Y-56054800D01*
X101612800Y-55913379D01*
X101612800Y-55608821D01*
X101754221Y-55467400D01*
X102058779Y-55467400D01*
X102200200Y-55608821D01*
G37*
G36*
X102200200Y-56396221D02*
G01*
X102200200Y-56700779D01*
X102058779Y-56842200D01*
X101754221Y-56842200D01*
X101612800Y-56700779D01*
X101612800Y-56396221D01*
X101754221Y-56254800D01*
X102058779Y-56254800D01*
X102200200Y-56396221D01*
G37*
G36*
X102200200Y-57183621D02*
G01*
X102200200Y-57488179D01*
X102058779Y-57629600D01*
X101754221Y-57629600D01*
X101612800Y-57488179D01*
X101612800Y-57183621D01*
X101754221Y-57042200D01*
X102058779Y-57042200D01*
X102200200Y-57183621D01*
G37*
G36*
X102200200Y-57971021D02*
G01*
X102200200Y-58275579D01*
X102058779Y-58417000D01*
X101754221Y-58417000D01*
X101612800Y-58275579D01*
X101612800Y-57971021D01*
X101754221Y-57829600D01*
X102058779Y-57829600D01*
X102200200Y-57971021D01*
G37*
G36*
X102987600Y-54034021D02*
G01*
X102987600Y-54338579D01*
X102846179Y-54480000D01*
X102541621Y-54480000D01*
X102400200Y-54338579D01*
X102400200Y-54034021D01*
X102541621Y-53892600D01*
X102846179Y-53892600D01*
X102987600Y-54034021D01*
G37*
G36*
X102987600Y-54821421D02*
G01*
X102987600Y-55125979D01*
X102846179Y-55267400D01*
X102541621Y-55267400D01*
X102400200Y-55125979D01*
X102400200Y-54821421D01*
X102541621Y-54680000D01*
X102846179Y-54680000D01*
X102987600Y-54821421D01*
G37*
G36*
X102987600Y-55608821D02*
G01*
X102987600Y-55913379D01*
X102846179Y-56054800D01*
X102541621Y-56054800D01*
X102400200Y-55913379D01*
X102400200Y-55608821D01*
X102541621Y-55467400D01*
X102846179Y-55467400D01*
X102987600Y-55608821D01*
G37*
G36*
X102987600Y-56396221D02*
G01*
X102987600Y-56700779D01*
X102846179Y-56842200D01*
X102541621Y-56842200D01*
X102400200Y-56700779D01*
X102400200Y-56396221D01*
X102541621Y-56254800D01*
X102846179Y-56254800D01*
X102987600Y-56396221D01*
G37*
G36*
X102987600Y-57183621D02*
G01*
X102987600Y-57488179D01*
X102846179Y-57629600D01*
X102541621Y-57629600D01*
X102400200Y-57488179D01*
X102400200Y-57183621D01*
X102541621Y-57042200D01*
X102846179Y-57042200D01*
X102987600Y-57183621D01*
G37*
G36*
X102987600Y-57971021D02*
G01*
X102987600Y-58275579D01*
X102846179Y-58417000D01*
X102541621Y-58417000D01*
X102400200Y-58275579D01*
X102400200Y-57971021D01*
X102541621Y-57829600D01*
X102846179Y-57829600D01*
X102987600Y-57971021D01*
G37*
G36*
X103775000Y-54034021D02*
G01*
X103775000Y-54338579D01*
X103633579Y-54480000D01*
X103329021Y-54480000D01*
X103187600Y-54338579D01*
X103187600Y-54034021D01*
X103329021Y-53892600D01*
X103633579Y-53892600D01*
X103775000Y-54034021D01*
G37*
G36*
X103775000Y-54821421D02*
G01*
X103775000Y-55125979D01*
X103633579Y-55267400D01*
X103329021Y-55267400D01*
X103187600Y-55125979D01*
X103187600Y-54821421D01*
X103329021Y-54680000D01*
X103633579Y-54680000D01*
X103775000Y-54821421D01*
G37*
G36*
X103775000Y-55608821D02*
G01*
X103775000Y-55913379D01*
X103633579Y-56054800D01*
X103329021Y-56054800D01*
X103187600Y-55913379D01*
X103187600Y-55608821D01*
X103329021Y-55467400D01*
X103633579Y-55467400D01*
X103775000Y-55608821D01*
G37*
G36*
X103775000Y-56396221D02*
G01*
X103775000Y-56700779D01*
X103633579Y-56842200D01*
X103329021Y-56842200D01*
X103187600Y-56700779D01*
X103187600Y-56396221D01*
X103329021Y-56254800D01*
X103633579Y-56254800D01*
X103775000Y-56396221D01*
G37*
G36*
X103775000Y-57183621D02*
G01*
X103775000Y-57488179D01*
X103633579Y-57629600D01*
X103329021Y-57629600D01*
X103187600Y-57488179D01*
X103187600Y-57183621D01*
X103329021Y-57042200D01*
X103633579Y-57042200D01*
X103775000Y-57183621D01*
G37*
G36*
X103775000Y-57971021D02*
G01*
X103775000Y-58275579D01*
X103633579Y-58417000D01*
X103329021Y-58417000D01*
X103187600Y-58275579D01*
X103187600Y-57971021D01*
X103329021Y-57829600D01*
X103633579Y-57829600D01*
X103775000Y-57971021D01*
G37*
G36*
X104562400Y-54034021D02*
G01*
X104562400Y-54338579D01*
X104420979Y-54480000D01*
X104116421Y-54480000D01*
X103975000Y-54338579D01*
X103975000Y-54034021D01*
X104116421Y-53892600D01*
X104420979Y-53892600D01*
X104562400Y-54034021D01*
G37*
G36*
X104562400Y-54821421D02*
G01*
X104562400Y-55125979D01*
X104420979Y-55267400D01*
X104116421Y-55267400D01*
X103975000Y-55125979D01*
X103975000Y-54821421D01*
X104116421Y-54680000D01*
X104420979Y-54680000D01*
X104562400Y-54821421D01*
G37*
G36*
X104562400Y-55608821D02*
G01*
X104562400Y-55913379D01*
X104420979Y-56054800D01*
X104116421Y-56054800D01*
X103975000Y-55913379D01*
X103975000Y-55608821D01*
X104116421Y-55467400D01*
X104420979Y-55467400D01*
X104562400Y-55608821D01*
G37*
G36*
X104562400Y-56396221D02*
G01*
X104562400Y-56700779D01*
X104420979Y-56842200D01*
X104116421Y-56842200D01*
X103975000Y-56700779D01*
X103975000Y-56396221D01*
X104116421Y-56254800D01*
X104420979Y-56254800D01*
X104562400Y-56396221D01*
G37*
G36*
X104562400Y-57183621D02*
G01*
X104562400Y-57488179D01*
X104420979Y-57629600D01*
X104116421Y-57629600D01*
X103975000Y-57488179D01*
X103975000Y-57183621D01*
X104116421Y-57042200D01*
X104420979Y-57042200D01*
X104562400Y-57183621D01*
G37*
G36*
X104562400Y-57971021D02*
G01*
X104562400Y-58275579D01*
X104420979Y-58417000D01*
X104116421Y-58417000D01*
X103975000Y-58275579D01*
X103975000Y-57971021D01*
X104116421Y-57829600D01*
X104420979Y-57829600D01*
X104562400Y-57971021D01*
G37*
%TO.C,U5*%
G36*
X138888800Y-54586200D02*
G01*
X137691800Y-54586200D01*
X137691800Y-53389200D01*
X138888800Y-53389200D01*
X138888800Y-54586200D01*
G37*
G36*
X138888800Y-55983200D02*
G01*
X137691800Y-55983200D01*
X137691800Y-54786200D01*
X138888800Y-54786200D01*
X138888800Y-55983200D01*
G37*
G36*
X138888800Y-57380200D02*
G01*
X137691800Y-57380200D01*
X137691800Y-56183200D01*
X138888800Y-56183200D01*
X138888800Y-57380200D01*
G37*
G36*
X138888800Y-58777200D02*
G01*
X137691800Y-58777200D01*
X137691800Y-57580200D01*
X138888800Y-57580200D01*
X138888800Y-58777200D01*
G37*
G36*
X140285800Y-54586200D02*
G01*
X139088800Y-54586200D01*
X139088800Y-53389200D01*
X140285800Y-53389200D01*
X140285800Y-54586200D01*
G37*
G36*
X140285800Y-55983200D02*
G01*
X139088800Y-55983200D01*
X139088800Y-54786200D01*
X140285800Y-54786200D01*
X140285800Y-55983200D01*
G37*
G36*
X140285800Y-57380200D02*
G01*
X139088800Y-57380200D01*
X139088800Y-56183200D01*
X140285800Y-56183200D01*
X140285800Y-57380200D01*
G37*
G36*
X140285800Y-58777200D02*
G01*
X139088800Y-58777200D01*
X139088800Y-57580200D01*
X140285800Y-57580200D01*
X140285800Y-58777200D01*
G37*
G36*
X141682800Y-54586200D02*
G01*
X140485800Y-54586200D01*
X140485800Y-53389200D01*
X141682800Y-53389200D01*
X141682800Y-54586200D01*
G37*
G36*
X141682800Y-55983200D02*
G01*
X140485800Y-55983200D01*
X140485800Y-54786200D01*
X141682800Y-54786200D01*
X141682800Y-55983200D01*
G37*
G36*
X141682800Y-57380200D02*
G01*
X140485800Y-57380200D01*
X140485800Y-56183200D01*
X141682800Y-56183200D01*
X141682800Y-57380200D01*
G37*
G36*
X141682800Y-58777200D02*
G01*
X140485800Y-58777200D01*
X140485800Y-57580200D01*
X141682800Y-57580200D01*
X141682800Y-58777200D01*
G37*
G36*
X143079800Y-54586200D02*
G01*
X141882800Y-54586200D01*
X141882800Y-53389200D01*
X143079800Y-53389200D01*
X143079800Y-54586200D01*
G37*
G36*
X143079800Y-55983200D02*
G01*
X141882800Y-55983200D01*
X141882800Y-54786200D01*
X143079800Y-54786200D01*
X143079800Y-55983200D01*
G37*
G36*
X143079800Y-57380200D02*
G01*
X141882800Y-57380200D01*
X141882800Y-56183200D01*
X143079800Y-56183200D01*
X143079800Y-57380200D01*
G37*
G36*
X143079800Y-58777200D02*
G01*
X141882800Y-58777200D01*
X141882800Y-57580200D01*
X143079800Y-57580200D01*
X143079800Y-58777200D01*
G37*
%TD*%
D11*
%TO.C,R5*%
X139780000Y-72530000D03*
X141430000Y-72530000D03*
%TD*%
D12*
%TO.C,L5*%
X120012500Y-67476000D03*
X121587500Y-67476000D03*
%TD*%
D13*
%TO.C,L2*%
X125371200Y-69864000D03*
X123796200Y-69864000D03*
%TD*%
D11*
%TO.C,R40*%
X111620800Y-60147200D03*
X113270800Y-60147200D03*
%TD*%
%TO.C,R12*%
X127480000Y-73830000D03*
X129130000Y-73830000D03*
%TD*%
D14*
%TO.C,C6*%
X143050000Y-70505000D03*
X143050000Y-68955000D03*
%TD*%
D15*
%TO.C,R32*%
X117779800Y-58560200D03*
X117779800Y-60210200D03*
%TD*%
D16*
%TO.C,C60*%
X116255800Y-66738200D03*
X116255800Y-68288200D03*
%TD*%
D17*
%TO.C,R29*%
X117779800Y-66814200D03*
X117779800Y-65164200D03*
%TD*%
%TO.C,R43*%
X108953300Y-60972200D03*
X108953300Y-59322200D03*
%TD*%
D18*
%TO.C,C4*%
X96975000Y-78300000D03*
X95425000Y-78300000D03*
%TD*%
D19*
%TO.C,R19*%
X148380000Y-51855000D03*
X146730000Y-51855000D03*
%TD*%
%TO.C,R38*%
X113270800Y-61671200D03*
X111620800Y-61671200D03*
%TD*%
D11*
%TO.C,R6*%
X153360000Y-75150000D03*
X155010000Y-75150000D03*
%TD*%
D14*
%TO.C,C76*%
X114250000Y-55639000D03*
X114250000Y-54089000D03*
%TD*%
D16*
%TO.C,C71*%
X118723500Y-49765500D03*
X118723500Y-51315500D03*
%TD*%
%TO.C,C32*%
X140530000Y-61085000D03*
X140530000Y-62635000D03*
%TD*%
D20*
%TO.C,FB4*%
X99800000Y-69658400D03*
X99800000Y-65600000D03*
%TD*%
D12*
%TO.C,L6*%
X120046700Y-61162800D03*
X121621700Y-61162800D03*
%TD*%
D18*
%TO.C,C24*%
X147130000Y-53480000D03*
X145580000Y-53480000D03*
%TD*%
D17*
%TO.C,R17*%
X130645000Y-63195000D03*
X130645000Y-61545000D03*
%TD*%
D21*
%TO.C,U4*%
X129855600Y-45949999D03*
X129855600Y-46900000D03*
X129855600Y-47850001D03*
X132144400Y-47850001D03*
X132144400Y-45949999D03*
%TD*%
D14*
%TO.C,C38*%
X135155000Y-57730000D03*
X135155000Y-56180000D03*
%TD*%
D18*
%TO.C,C14*%
X128675000Y-66900000D03*
X127125000Y-66900000D03*
%TD*%
%TO.C,C22*%
X145273000Y-50840000D03*
X143723000Y-50840000D03*
%TD*%
D22*
%TO.C,C42*%
X130425000Y-51100000D03*
X131975000Y-51100000D03*
%TD*%
D11*
%TO.C,R33*%
X114668800Y-65227200D03*
X116318800Y-65227200D03*
%TD*%
D18*
%TO.C,C66*%
X109220300Y-55575200D03*
X107670300Y-55575200D03*
%TD*%
%TO.C,C2*%
X99375000Y-71800000D03*
X97825000Y-71800000D03*
%TD*%
D23*
%TO.C,U7*%
X99550200Y-59632200D03*
X100050199Y-59632200D03*
X100550201Y-59632200D03*
X101050200Y-59632200D03*
X101550199Y-59632200D03*
X102050200Y-59632200D03*
X102550200Y-59632200D03*
X103050201Y-59632200D03*
X103550200Y-59632200D03*
X104050199Y-59632200D03*
X104550201Y-59632200D03*
X105050200Y-59632200D03*
D24*
X105777600Y-58904800D03*
X105777600Y-58404801D03*
X105777600Y-57904799D03*
X105777600Y-57404800D03*
X105777600Y-56904801D03*
X105777600Y-56404800D03*
X105777600Y-55904800D03*
X105777600Y-55404799D03*
X105777600Y-54904800D03*
X105777600Y-54404801D03*
X105777600Y-53904799D03*
X105777600Y-53404800D03*
D23*
X105050200Y-52677400D03*
X104550201Y-52677400D03*
X104050199Y-52677400D03*
X103550200Y-52677400D03*
X103050201Y-52677400D03*
X102550200Y-52677400D03*
X102050200Y-52677400D03*
X101550199Y-52677400D03*
X101050200Y-52677400D03*
X100550201Y-52677400D03*
X100050199Y-52677400D03*
X99550200Y-52677400D03*
D24*
X98822800Y-53404800D03*
X98822800Y-53904799D03*
X98822800Y-54404801D03*
X98822800Y-54904800D03*
X98822800Y-55404799D03*
X98822800Y-55904800D03*
X98822800Y-56404800D03*
X98822800Y-56904801D03*
X98822800Y-57404800D03*
X98822800Y-57904799D03*
X98822800Y-58404801D03*
X98822800Y-58904800D03*
%TD*%
D11*
%TO.C,R8*%
X153290000Y-73152000D03*
X154940000Y-73152000D03*
%TD*%
%TO.C,R44*%
X120819500Y-53461500D03*
X122469500Y-53461500D03*
%TD*%
D13*
%TO.C,L4*%
X125371200Y-58352000D03*
X123796200Y-58352000D03*
%TD*%
D11*
%TO.C,R25*%
X123758700Y-66816000D03*
X125408700Y-66816000D03*
%TD*%
D25*
%TO.C,U6*%
X149355000Y-57030000D03*
X148855000Y-57030000D03*
D26*
X148855000Y-57580000D03*
D25*
X149355000Y-57580000D03*
%TD*%
D27*
%TO.C,U1*%
X104100000Y-74000000D03*
X101800000Y-74000000D03*
X99500000Y-74000000D03*
D28*
X101800000Y-80300000D03*
%TD*%
D19*
%TO.C,R14*%
X129130000Y-70630000D03*
X127480000Y-70630000D03*
%TD*%
D22*
%TO.C,C68*%
X107430000Y-53530000D03*
X108980000Y-53530000D03*
%TD*%
D13*
%TO.C,L1*%
X125371200Y-65292000D03*
X123796200Y-65292000D03*
%TD*%
D14*
%TO.C,C75*%
X118999000Y-55639000D03*
X118999000Y-54089000D03*
%TD*%
D29*
%TO.C,FB1*%
X126123100Y-42720250D03*
X124624500Y-42720250D03*
%TD*%
D14*
%TO.C,C64*%
X103279300Y-50762200D03*
X103279300Y-49212200D03*
%TD*%
D16*
%TO.C,C49*%
X103619300Y-61417200D03*
X103619300Y-62967200D03*
%TD*%
D22*
%TO.C,C67*%
X107670300Y-57099200D03*
X109220300Y-57099200D03*
%TD*%
D19*
%TO.C,R9*%
X154980000Y-79248000D03*
X153330000Y-79248000D03*
%TD*%
D30*
%TO.C,Y2*%
X141630000Y-70555000D03*
X141630000Y-68905000D03*
X140380000Y-68905000D03*
X140380000Y-70555000D03*
%TD*%
D13*
%TO.C,D1*%
X149555300Y-62941200D03*
X147980300Y-62941200D03*
%TD*%
D18*
%TO.C,C21*%
X145270000Y-49320000D03*
X143720000Y-49320000D03*
%TD*%
D22*
%TO.C,C7*%
X101825000Y-71800000D03*
X103375000Y-71800000D03*
%TD*%
D16*
%TO.C,C10*%
X139105000Y-68955000D03*
X139105000Y-70505000D03*
%TD*%
D31*
%TO.C,Y1*%
X121080000Y-44110250D03*
X121080000Y-46410250D03*
X122555000Y-46410250D03*
X122555000Y-44110250D03*
%TD*%
D17*
%TO.C,R42*%
X107429300Y-60972200D03*
X107429300Y-59322200D03*
%TD*%
D11*
%TO.C,R27*%
X123758700Y-61400000D03*
X125408700Y-61400000D03*
%TD*%
D22*
%TO.C,C50*%
X120025000Y-65952000D03*
X121575000Y-65952000D03*
%TD*%
D15*
%TO.C,R31*%
X117779800Y-61608200D03*
X117779800Y-63258200D03*
%TD*%
D16*
%TO.C,C9*%
X141205000Y-74055000D03*
X141205000Y-75605000D03*
%TD*%
D22*
%TO.C,C41*%
X133525000Y-49500000D03*
X135075000Y-49500000D03*
%TD*%
D18*
%TO.C,C12*%
X128660000Y-61590000D03*
X127110000Y-61590000D03*
%TD*%
D22*
%TO.C,C30*%
X142135000Y-61110000D03*
X143685000Y-61110000D03*
%TD*%
D17*
%TO.C,R30*%
X117779800Y-69862200D03*
X117779800Y-68212200D03*
%TD*%
%TO.C,R18*%
X136825000Y-66725000D03*
X136825000Y-65075000D03*
%TD*%
D15*
%TO.C,R15*%
X124805000Y-76805000D03*
X124805000Y-78455000D03*
%TD*%
D16*
%TO.C,C45*%
X102095300Y-61404200D03*
X102095300Y-62954200D03*
%TD*%
D18*
%TO.C,C3*%
X122592500Y-42720250D03*
X121042500Y-42720250D03*
%TD*%
%TO.C,C1*%
X122592500Y-41196250D03*
X121042500Y-41196250D03*
%TD*%
D11*
%TO.C,R35*%
X114668800Y-63195200D03*
X116318800Y-63195200D03*
%TD*%
D15*
%TO.C,R1*%
X121666000Y-54991000D03*
X121666000Y-56641000D03*
%TD*%
D14*
%TO.C,C34*%
X133179600Y-66254600D03*
X133179600Y-64704600D03*
%TD*%
D32*
%TO.C,U8*%
X120655000Y-51678000D03*
X121605000Y-51678000D03*
X122555000Y-51678000D03*
X122555000Y-49403000D03*
X120655000Y-49403000D03*
%TD*%
D18*
%TO.C,C70*%
X147130000Y-58130000D03*
X145580000Y-58130000D03*
%TD*%
D22*
%TO.C,C51*%
X120059200Y-59638800D03*
X121609200Y-59638800D03*
%TD*%
D14*
%TO.C,C58*%
X114731800Y-61684200D03*
X114731800Y-60134200D03*
%TD*%
D11*
%TO.C,R36*%
X114668800Y-58623200D03*
X116318800Y-58623200D03*
%TD*%
D15*
%TO.C,R22*%
X139318000Y-46395000D03*
X139318000Y-48045000D03*
%TD*%
%TO.C,R20*%
X141685000Y-46045000D03*
X141685000Y-47695000D03*
%TD*%
D16*
%TO.C,C57*%
X114731800Y-66738200D03*
X114731800Y-68288200D03*
%TD*%
D22*
%TO.C,C17*%
X120030000Y-75930000D03*
X121580000Y-75930000D03*
%TD*%
D19*
%TO.C,R37*%
X113270800Y-66751200D03*
X111620800Y-66751200D03*
%TD*%
D14*
%TO.C,C36*%
X132060000Y-58305000D03*
X132060000Y-56755000D03*
%TD*%
D13*
%TO.C,L8*%
X117373500Y-55626000D03*
X115798500Y-55626000D03*
%TD*%
D18*
%TO.C,C55*%
X121609200Y-62686800D03*
X120059200Y-62686800D03*
%TD*%
D11*
%TO.C,R11*%
X127480000Y-72230000D03*
X129130000Y-72230000D03*
%TD*%
%TO.C,R7*%
X153340000Y-77216000D03*
X154990000Y-77216000D03*
%TD*%
D14*
%TO.C,C35*%
X132245000Y-63115000D03*
X132245000Y-61565000D03*
%TD*%
D11*
%TO.C,R26*%
X123758700Y-68340000D03*
X125408700Y-68340000D03*
%TD*%
D14*
%TO.C,C28*%
X139318000Y-51045000D03*
X139318000Y-49495000D03*
%TD*%
D22*
%TO.C,C23*%
X145580000Y-59705000D03*
X147130000Y-59705000D03*
%TD*%
%TO.C,C13*%
X127125000Y-68424000D03*
X128675000Y-68424000D03*
%TD*%
%TO.C,C69*%
X133580000Y-54655000D03*
X135130000Y-54655000D03*
%TD*%
D33*
%TO.C,U2*%
X143230300Y-72522700D03*
D34*
X143290300Y-73022700D03*
X143290300Y-73522700D03*
X143290300Y-74022700D03*
X143290300Y-74522700D03*
X143290300Y-75022700D03*
D35*
X143230300Y-75522700D03*
D36*
X143727800Y-76020200D03*
D37*
X144227800Y-75960200D03*
X144727800Y-75960200D03*
X145227800Y-75960200D03*
X145727800Y-75960200D03*
X146227800Y-75960200D03*
D38*
X146727800Y-76020200D03*
D39*
X147225300Y-75522700D03*
D34*
X147165300Y-75022700D03*
X147165300Y-74522700D03*
X147165300Y-74022700D03*
X147165300Y-73522700D03*
X147165300Y-73022700D03*
D40*
X147225300Y-72522700D03*
D41*
X146727800Y-72025200D03*
D37*
X146227800Y-72085200D03*
X145727800Y-72085200D03*
X145227800Y-72085200D03*
X144727800Y-72085200D03*
X144227800Y-72085200D03*
D42*
X143727800Y-72025200D03*
%TD*%
D14*
%TO.C,C27*%
X134302000Y-47675000D03*
X134302000Y-46125000D03*
%TD*%
D11*
%TO.C,R34*%
X114668800Y-69799200D03*
X116318800Y-69799200D03*
%TD*%
D17*
%TO.C,R16*%
X131579600Y-66304600D03*
X131579600Y-64654600D03*
%TD*%
D16*
%TO.C,C33*%
X139005000Y-61455000D03*
X139005000Y-63005000D03*
%TD*%
D24*
%TO.C,U5*%
X143837800Y-58833200D03*
X143837800Y-58333201D03*
X143837800Y-57833199D03*
X143837800Y-57333200D03*
X143837800Y-56833201D03*
X143837800Y-56333200D03*
X143837800Y-55833200D03*
X143837800Y-55333199D03*
X143837800Y-54833200D03*
X143837800Y-54333201D03*
X143837800Y-53833199D03*
X143837800Y-53333200D03*
D23*
X143135800Y-52631200D03*
X142635801Y-52631200D03*
X142135799Y-52631200D03*
X141635800Y-52631200D03*
X141135801Y-52631200D03*
X140635800Y-52631200D03*
X140135800Y-52631200D03*
X139635799Y-52631200D03*
X139135800Y-52631200D03*
X138635801Y-52631200D03*
X138135799Y-52631200D03*
X137635800Y-52631200D03*
D24*
X136933800Y-53333200D03*
X136933800Y-53833199D03*
X136933800Y-54333201D03*
X136933800Y-54833200D03*
X136933800Y-55333199D03*
X136933800Y-55833200D03*
X136933800Y-56333200D03*
X136933800Y-56833201D03*
X136933800Y-57333200D03*
X136933800Y-57833199D03*
X136933800Y-58333201D03*
X136933800Y-58833200D03*
D23*
X137635800Y-59535200D03*
X138135799Y-59535200D03*
X138635801Y-59535200D03*
X139135800Y-59535200D03*
X139635799Y-59535200D03*
X140135800Y-59535200D03*
X140635800Y-59535200D03*
X141135801Y-59535200D03*
X141635800Y-59535200D03*
X142135799Y-59535200D03*
X142635801Y-59535200D03*
X143135800Y-59535200D03*
%TD*%
D18*
%TO.C,C15*%
X128660000Y-63150000D03*
X127110000Y-63150000D03*
%TD*%
D14*
%TO.C,C74*%
X129286000Y-54750000D03*
X129286000Y-53200000D03*
%TD*%
D43*
%TO.C,J3*%
X158250000Y-57530000D03*
D44*
X158250000Y-60305000D03*
X158250000Y-54755000D03*
%TD*%
D16*
%TO.C,C8*%
X139705000Y-74055000D03*
X139705000Y-75605000D03*
%TD*%
D13*
%TO.C,L3*%
X125371200Y-62924000D03*
X123796200Y-62924000D03*
%TD*%
D18*
%TO.C,C26*%
X147130000Y-55030000D03*
X145580000Y-55030000D03*
%TD*%
D14*
%TO.C,C16*%
X123105000Y-78405000D03*
X123105000Y-76855000D03*
%TD*%
D20*
%TO.C,FB3*%
X103200000Y-69558400D03*
X103200000Y-65500000D03*
%TD*%
D11*
%TO.C,R24*%
X133475000Y-51100000D03*
X135125000Y-51100000D03*
%TD*%
D18*
%TO.C,C18*%
X147130000Y-56580000D03*
X145580000Y-56580000D03*
%TD*%
D14*
%TO.C,C31*%
X141685000Y-51030000D03*
X141685000Y-49480000D03*
%TD*%
D15*
%TO.C,R3*%
X147497800Y-67450200D03*
X147497800Y-69100200D03*
%TD*%
%TO.C,R13*%
X126405000Y-76805000D03*
X126405000Y-78455000D03*
%TD*%
D18*
%TO.C,C25*%
X135275000Y-52710000D03*
X133725000Y-52710000D03*
%TD*%
D14*
%TO.C,C61*%
X116255800Y-61684200D03*
X116255800Y-60134200D03*
%TD*%
D17*
%TO.C,R4*%
X141405000Y-78755000D03*
X141405000Y-77105000D03*
%TD*%
D14*
%TO.C,C73*%
X124460000Y-54750000D03*
X124460000Y-53200000D03*
%TD*%
%TO.C,C65*%
X101719300Y-50762200D03*
X101719300Y-49212200D03*
%TD*%
D16*
%TO.C,C5*%
X139705000Y-77155000D03*
X139705000Y-78705000D03*
%TD*%
%TO.C,C37*%
X133630000Y-56180000D03*
X133630000Y-57730000D03*
%TD*%
D19*
%TO.C,R21*%
X145328800Y-47640000D03*
X143678800Y-47640000D03*
%TD*%
D29*
%TO.C,FB2*%
X95450700Y-80100000D03*
X96949300Y-80100000D03*
%TD*%
D19*
%TO.C,R10*%
X149592800Y-64973200D03*
X147942800Y-64973200D03*
%TD*%
D15*
%TO.C,R45*%
X124311500Y-49715500D03*
X124311500Y-51365500D03*
%TD*%
D19*
%TO.C,R41*%
X117644300Y-74967200D03*
X115994300Y-74967200D03*
%TD*%
D11*
%TO.C,R39*%
X111620800Y-68275200D03*
X113270800Y-68275200D03*
%TD*%
D18*
%TO.C,C54*%
X121575000Y-69000000D03*
X120025000Y-69000000D03*
%TD*%
D17*
%TO.C,R2*%
X145796000Y-69100200D03*
X145796000Y-67450200D03*
%TD*%
D18*
%TO.C,C72*%
X122518000Y-47583250D03*
X120968000Y-47583250D03*
%TD*%
D45*
%TO.C,U3*%
X124117801Y-75001201D03*
D46*
X124167801Y-74601202D03*
X124167801Y-74201200D03*
X124167801Y-73801201D03*
D47*
X123967799Y-73201200D03*
X123567800Y-73201200D03*
X123167800Y-73201200D03*
X122767799Y-73201200D03*
D46*
X122567799Y-73801201D03*
X122567799Y-74201200D03*
X122567799Y-74601202D03*
X122567799Y-75001201D03*
D47*
X122767799Y-75601200D03*
X123167800Y-75601200D03*
X123567800Y-75601200D03*
X123967799Y-75601200D03*
%TD*%
D14*
%TO.C,C29*%
X136080000Y-47675000D03*
X136080000Y-46125000D03*
%TD*%
D11*
%TO.C,R28*%
X123758700Y-59876000D03*
X125408700Y-59876000D03*
%TD*%
D18*
%TO.C,C11*%
X152320000Y-57430000D03*
X150770000Y-57430000D03*
%TD*%
D16*
%TO.C,C46*%
X100559300Y-61404200D03*
X100559300Y-62954200D03*
%TD*%
D14*
%TO.C,C19*%
X127900000Y-47675000D03*
X127900000Y-46125000D03*
%TD*%
D12*
%TO.C,L7*%
X126085500Y-54724000D03*
X127660500Y-54724000D03*
%TD*%
M02*
