%TF.GenerationSoftware,KiCad,Pcbnew,10.0.1*%
%TF.CreationDate,2026-05-30T16:25:37+02:00*%
%TF.ProjectId,RASRF,52415352-462e-46b6-9963-61645f706362,AB*%
%TF.SameCoordinates,Original*%
%TF.FileFunction,Soldermask,Top*%
%TF.FilePolarity,Negative*%
%FSLAX46Y46*%
G04 Gerber Fmt 4.6, Leading zero omitted, Abs format (unit mm)*
G04 Created by KiCad (PCBNEW 10.0.1) date 2026-05-30 16:25:37*
%MOMM*%
%LPD*%
G01*
G04 APERTURE LIST*
G04 Aperture macros list*
%AMRoundRect*
0 Rectangle with rounded corners*
0 $1 Rounding radius*
0 $2 $3 $4 $5 $6 $7 $8 $9 X,Y pos of 4 corners*
0 Add a 4 corners polygon primitive as box body*
4,1,4,$2,$3,$4,$5,$6,$7,$8,$9,$2,$3,0*
0 Add four circle primitives for the rounded corners*
1,1,$1+$1,$2,$3*
1,1,$1+$1,$4,$5*
1,1,$1+$1,$6,$7*
1,1,$1+$1,$8,$9*
0 Add four rect primitives between the rounded corners*
20,1,$1+$1,$2,$3,$4,$5,0*
20,1,$1+$1,$4,$5,$6,$7,0*
20,1,$1+$1,$6,$7,$8,$9,0*
20,1,$1+$1,$8,$9,$2,$3,0*%
%AMFreePoly0*
4,1,14,0.230680,0.111820,0.364320,-0.021820,0.377500,-0.053640,0.377500,-0.080000,0.364320,-0.111820,0.332500,-0.125000,-0.332500,-0.125000,-0.364320,-0.111820,-0.377500,-0.080000,-0.377500,0.080000,-0.364320,0.111820,-0.332500,0.125000,0.198860,0.125000,0.230680,0.111820,0.230680,0.111820,$1*%
%AMFreePoly1*
4,1,14,0.364320,0.111820,0.377500,0.080000,0.377500,0.053640,0.364320,0.021820,0.230680,-0.111820,0.198860,-0.125000,-0.332500,-0.125000,-0.364320,-0.111820,-0.377500,-0.080000,-0.377500,0.080000,-0.364320,0.111820,-0.332500,0.125000,0.332500,0.125000,0.364320,0.111820,0.364320,0.111820,$1*%
%AMFreePoly2*
4,1,14,0.111820,0.364320,0.125000,0.332500,0.125000,-0.332500,0.111820,-0.364320,0.080000,-0.377500,-0.080000,-0.377500,-0.111820,-0.364320,-0.125000,-0.332500,-0.125000,0.198860,-0.111820,0.230680,0.021820,0.364320,0.053640,0.377500,0.080000,0.377500,0.111820,0.364320,0.111820,0.364320,$1*%
%AMFreePoly3*
4,1,14,-0.021820,0.364320,0.111820,0.230680,0.125000,0.198860,0.125000,-0.332500,0.111820,-0.364320,0.080000,-0.377500,-0.080000,-0.377500,-0.111820,-0.364320,-0.125000,-0.332500,-0.125000,0.332500,-0.111820,0.364320,-0.080000,0.377500,-0.053640,0.377500,-0.021820,0.364320,-0.021820,0.364320,$1*%
%AMFreePoly4*
4,1,14,0.364320,0.111820,0.377500,0.080000,0.377500,-0.080000,0.364320,-0.111820,0.332500,-0.125000,-0.198860,-0.125000,-0.230680,-0.111820,-0.364320,0.021820,-0.377500,0.053640,-0.377500,0.080000,-0.364320,0.111820,-0.332500,0.125000,0.332500,0.125000,0.364320,0.111820,0.364320,0.111820,$1*%
%AMFreePoly5*
4,1,14,0.364320,0.111820,0.377500,0.080000,0.377500,-0.080000,0.364320,-0.111820,0.332500,-0.125000,-0.332500,-0.125000,-0.364320,-0.111820,-0.377500,-0.080000,-0.377500,-0.053640,-0.364320,-0.021820,-0.230680,0.111820,-0.198860,0.125000,0.332500,0.125000,0.364320,0.111820,0.364320,0.111820,$1*%
%AMFreePoly6*
4,1,14,0.111820,0.364320,0.125000,0.332500,0.125000,-0.198860,0.111820,-0.230680,-0.021820,-0.364320,-0.053640,-0.377500,-0.080000,-0.377500,-0.111820,-0.364320,-0.125000,-0.332500,-0.125000,0.332500,-0.111820,0.364320,-0.080000,0.377500,0.080000,0.377500,0.111820,0.364320,0.111820,0.364320,$1*%
%AMFreePoly7*
4,1,14,0.111820,0.364320,0.125000,0.332500,0.125000,-0.332500,0.111820,-0.364320,0.080000,-0.377500,0.053640,-0.377500,0.021820,-0.364320,-0.111820,-0.230680,-0.125000,-0.198860,-0.125000,0.332500,-0.111820,0.364320,-0.080000,0.377500,0.080000,0.377500,0.111820,0.364320,0.111820,0.364320,$1*%
G04 Aperture macros list end*
%ADD10RoundRect,0.200000X-0.200000X-0.275000X0.200000X-0.275000X0.200000X0.275000X-0.200000X0.275000X0*%
%ADD11RoundRect,0.218750X-0.218750X-0.256250X0.218750X-0.256250X0.218750X0.256250X-0.218750X0.256250X0*%
%ADD12RoundRect,0.218750X0.218750X0.256250X-0.218750X0.256250X-0.218750X-0.256250X0.218750X-0.256250X0*%
%ADD13R,1.000000X1.000000*%
%ADD14C,1.500000*%
%ADD15RoundRect,0.225000X0.250000X-0.225000X0.250000X0.225000X-0.250000X0.225000X-0.250000X-0.225000X0*%
%ADD16RoundRect,0.200000X-0.275000X0.200000X-0.275000X-0.200000X0.275000X-0.200000X0.275000X0.200000X0*%
%ADD17RoundRect,0.225000X-0.250000X0.225000X-0.250000X-0.225000X0.250000X-0.225000X0.250000X0.225000X0*%
%ADD18RoundRect,0.200000X0.275000X-0.200000X0.275000X0.200000X-0.275000X0.200000X-0.275000X-0.200000X0*%
%ADD19RoundRect,0.225000X0.225000X0.250000X-0.225000X0.250000X-0.225000X-0.250000X0.225000X-0.250000X0*%
%ADD20RoundRect,0.200000X0.200000X0.275000X-0.200000X0.275000X-0.200000X-0.275000X0.200000X-0.275000X0*%
%ADD21C,1.000000*%
%ADD22R,1.803400X1.340600*%
%ADD23R,1.422400X0.558800*%
%ADD24RoundRect,0.225000X-0.225000X-0.250000X0.225000X-0.250000X0.225000X0.250000X-0.225000X0.250000X0*%
%ADD25R,0.254800X0.807999*%
%ADD26R,0.807999X0.254800*%
%ADD27R,4.826000X4.826000*%
%ADD28C,0.500000*%
%ADD29R,0.300000X0.350000*%
%ADD30R,0.350000X0.350000*%
%ADD31R,1.500000X2.000000*%
%ADD32R,3.800000X2.000000*%
%ADD33R,0.965200X0.939800*%
%ADD34R,0.800000X0.900000*%
%ADD35R,1.700000X1.700000*%
%ADD36O,1.700000X1.700000*%
%ADD37R,0.825000X0.500000*%
%ADD38C,3.200000*%
%ADD39RoundRect,0.150000X0.150000X-0.512500X0.150000X0.512500X-0.150000X0.512500X-0.150000X-0.512500X0*%
%ADD40FreePoly0,0.000000*%
%ADD41RoundRect,0.062500X-0.375000X-0.062500X0.375000X-0.062500X0.375000X0.062500X-0.375000X0.062500X0*%
%ADD42FreePoly1,0.000000*%
%ADD43FreePoly2,0.000000*%
%ADD44RoundRect,0.062500X-0.062500X-0.375000X0.062500X-0.375000X0.062500X0.375000X-0.062500X0.375000X0*%
%ADD45FreePoly3,0.000000*%
%ADD46FreePoly4,0.000000*%
%ADD47FreePoly5,0.000000*%
%ADD48FreePoly6,0.000000*%
%ADD49FreePoly7,0.000000*%
%ADD50R,5.588000X5.588000*%
%ADD51R,4.300000X0.700000*%
%ADD52R,3.200000X0.700000*%
%ADD53RoundRect,0.200000X2.050000X-0.450000X2.050000X0.450000X-2.050000X0.450000X-2.050000X-0.450000X0*%
%ADD54RoundRect,0.200000X2.050000X-0.625000X2.050000X0.625000X-2.050000X0.625000X-2.050000X-0.625000X0*%
%ADD55R,0.700001X0.200000*%
%ADD56R,0.599999X0.200000*%
%ADD57R,0.200000X0.599999*%
G04 APERTURE END LIST*
D10*
%TO.C,R5*%
X139780000Y-72530000D03*
X141430000Y-72530000D03*
%TD*%
D11*
%TO.C,L5*%
X120012500Y-67476000D03*
X121587500Y-67476000D03*
%TD*%
D12*
%TO.C,L2*%
X125371200Y-69864000D03*
X123796200Y-69864000D03*
%TD*%
D13*
%TO.C,TP3*%
X143350000Y-88210000D03*
%TD*%
D10*
%TO.C,R40*%
X111620800Y-60147200D03*
X113270800Y-60147200D03*
%TD*%
D14*
%TO.C,TP22*%
X131826000Y-68834000D03*
%TD*%
D10*
%TO.C,R12*%
X127480000Y-73830000D03*
X129130000Y-73830000D03*
%TD*%
D15*
%TO.C,C6*%
X143050000Y-70505000D03*
X143050000Y-68955000D03*
%TD*%
D16*
%TO.C,R32*%
X117779800Y-58560200D03*
X117779800Y-60210200D03*
%TD*%
D17*
%TO.C,C60*%
X116255800Y-66738200D03*
X116255800Y-68288200D03*
%TD*%
D14*
%TO.C,TP25*%
X129540000Y-58928000D03*
%TD*%
D18*
%TO.C,R29*%
X117779800Y-66814200D03*
X117779800Y-65164200D03*
%TD*%
%TO.C,R43*%
X108953300Y-60972200D03*
X108953300Y-59322200D03*
%TD*%
D19*
%TO.C,C4*%
X96975000Y-78300000D03*
X95425000Y-78300000D03*
%TD*%
D20*
%TO.C,R19*%
X148380000Y-51855000D03*
X146730000Y-51855000D03*
%TD*%
D21*
%TO.C,TP12*%
X113275000Y-81000000D03*
%TD*%
D20*
%TO.C,R38*%
X113270800Y-61671200D03*
X111620800Y-61671200D03*
%TD*%
D10*
%TO.C,R6*%
X153360000Y-75150000D03*
X155010000Y-75150000D03*
%TD*%
D15*
%TO.C,C76*%
X114250000Y-55639000D03*
X114250000Y-54089000D03*
%TD*%
D17*
%TO.C,C71*%
X118723500Y-49765500D03*
X118723500Y-51315500D03*
%TD*%
%TO.C,C32*%
X140530000Y-61085000D03*
X140530000Y-62635000D03*
%TD*%
D22*
%TO.C,FB4*%
X99800000Y-69658400D03*
X99800000Y-65600000D03*
%TD*%
D11*
%TO.C,L6*%
X120046700Y-61162800D03*
X121621700Y-61162800D03*
%TD*%
D19*
%TO.C,C24*%
X147130000Y-53480000D03*
X145580000Y-53480000D03*
%TD*%
D18*
%TO.C,R17*%
X130645000Y-63195000D03*
X130645000Y-61545000D03*
%TD*%
D23*
%TO.C,U4*%
X129855600Y-45949999D03*
X129855600Y-46900000D03*
X129855600Y-47850001D03*
X132144400Y-47850001D03*
X132144400Y-45949999D03*
%TD*%
D15*
%TO.C,C38*%
X135155000Y-57730000D03*
X135155000Y-56180000D03*
%TD*%
D19*
%TO.C,C14*%
X128675000Y-66900000D03*
X127125000Y-66900000D03*
%TD*%
%TO.C,C22*%
X145273000Y-50840000D03*
X143723000Y-50840000D03*
%TD*%
D24*
%TO.C,C42*%
X130425000Y-51100000D03*
X131975000Y-51100000D03*
%TD*%
D10*
%TO.C,R33*%
X114668800Y-65227200D03*
X116318800Y-65227200D03*
%TD*%
D19*
%TO.C,C66*%
X109220300Y-55575200D03*
X107670300Y-55575200D03*
%TD*%
D13*
%TO.C,TP2*%
X134543800Y-76657200D03*
%TD*%
D19*
%TO.C,C2*%
X99375000Y-71800000D03*
X97825000Y-71800000D03*
%TD*%
D25*
%TO.C,U7*%
X99550200Y-59632200D03*
X100050199Y-59632200D03*
X100550201Y-59632200D03*
X101050200Y-59632200D03*
X101550199Y-59632200D03*
X102050200Y-59632200D03*
X102550200Y-59632200D03*
X103050201Y-59632200D03*
X103550200Y-59632200D03*
X104050199Y-59632200D03*
X104550201Y-59632200D03*
X105050200Y-59632200D03*
D26*
X105777600Y-58904800D03*
X105777600Y-58404801D03*
X105777600Y-57904799D03*
X105777600Y-57404800D03*
X105777600Y-56904801D03*
X105777600Y-56404800D03*
X105777600Y-55904800D03*
X105777600Y-55404799D03*
X105777600Y-54904800D03*
X105777600Y-54404801D03*
X105777600Y-53904799D03*
X105777600Y-53404800D03*
D25*
X105050200Y-52677400D03*
X104550201Y-52677400D03*
X104050199Y-52677400D03*
X103550200Y-52677400D03*
X103050201Y-52677400D03*
X102550200Y-52677400D03*
X102050200Y-52677400D03*
X101550199Y-52677400D03*
X101050200Y-52677400D03*
X100550201Y-52677400D03*
X100050199Y-52677400D03*
X99550200Y-52677400D03*
D26*
X98822800Y-53404800D03*
X98822800Y-53904799D03*
X98822800Y-54404801D03*
X98822800Y-54904800D03*
X98822800Y-55404799D03*
X98822800Y-55904800D03*
X98822800Y-56404800D03*
X98822800Y-56904801D03*
X98822800Y-57404800D03*
X98822800Y-57904799D03*
X98822800Y-58404801D03*
X98822800Y-58904800D03*
D27*
X102300200Y-56154800D03*
D28*
X100725400Y-57729600D03*
X101512800Y-57729600D03*
X102300200Y-57729600D03*
X103087600Y-57729600D03*
X103875000Y-57729600D03*
X100725400Y-56942200D03*
X101512800Y-56942200D03*
X102300200Y-56942200D03*
X103087600Y-56942200D03*
X103875000Y-56942200D03*
X100725400Y-56154800D03*
X101512800Y-56154800D03*
X102300200Y-56154800D03*
X103087600Y-56154800D03*
X103875000Y-56154800D03*
X100725400Y-55367400D03*
X101512800Y-55367400D03*
X102300200Y-55367400D03*
X103087600Y-55367400D03*
X103875000Y-55367400D03*
X100725400Y-54580000D03*
X101512800Y-54580000D03*
X102300200Y-54580000D03*
X103087600Y-54580000D03*
X103875000Y-54580000D03*
%TD*%
D13*
%TO.C,TP13*%
X154330000Y-81640000D03*
%TD*%
D10*
%TO.C,R8*%
X153290000Y-73152000D03*
X154940000Y-73152000D03*
%TD*%
%TO.C,R44*%
X120819500Y-53461500D03*
X122469500Y-53461500D03*
%TD*%
D12*
%TO.C,L4*%
X125371200Y-58352000D03*
X123796200Y-58352000D03*
%TD*%
D10*
%TO.C,R25*%
X123758700Y-66816000D03*
X125408700Y-66816000D03*
%TD*%
D29*
%TO.C,U6*%
X149355000Y-57030000D03*
X148855000Y-57030000D03*
D30*
X148855000Y-57580000D03*
D29*
X149355000Y-57580000D03*
%TD*%
D13*
%TO.C,TP10*%
X140550000Y-65075000D03*
%TD*%
D31*
%TO.C,U1*%
X104100000Y-74000000D03*
X101800000Y-74000000D03*
X99500000Y-74000000D03*
D32*
X101800000Y-80300000D03*
%TD*%
D20*
%TO.C,R14*%
X129130000Y-70630000D03*
X127480000Y-70630000D03*
%TD*%
D24*
%TO.C,C68*%
X107430000Y-53530000D03*
X108980000Y-53530000D03*
%TD*%
D12*
%TO.C,L1*%
X125371200Y-65292000D03*
X123796200Y-65292000D03*
%TD*%
D15*
%TO.C,C75*%
X118999000Y-55639000D03*
X118999000Y-54089000D03*
%TD*%
D33*
%TO.C,FB1*%
X126123100Y-42720250D03*
X124624500Y-42720250D03*
%TD*%
D15*
%TO.C,C64*%
X103279300Y-50762200D03*
X103279300Y-49212200D03*
%TD*%
D17*
%TO.C,C49*%
X103619300Y-61417200D03*
X103619300Y-62967200D03*
%TD*%
D24*
%TO.C,C67*%
X107670300Y-57099200D03*
X109220300Y-57099200D03*
%TD*%
D20*
%TO.C,R9*%
X154980000Y-79248000D03*
X153330000Y-79248000D03*
%TD*%
D34*
%TO.C,Y2*%
X141630000Y-70555000D03*
X141630000Y-68905000D03*
X140380000Y-68905000D03*
X140380000Y-70555000D03*
%TD*%
D12*
%TO.C,D1*%
X149555300Y-62941200D03*
X147980300Y-62941200D03*
%TD*%
D19*
%TO.C,C21*%
X145270000Y-49320000D03*
X143720000Y-49320000D03*
%TD*%
D24*
%TO.C,C7*%
X101825000Y-71800000D03*
X103375000Y-71800000D03*
%TD*%
D35*
%TO.C,J4*%
X158229300Y-72593200D03*
D36*
X158229300Y-75133200D03*
X158229300Y-77673200D03*
X158229300Y-80213200D03*
%TD*%
D17*
%TO.C,C10*%
X139105000Y-68955000D03*
X139105000Y-70505000D03*
%TD*%
D37*
%TO.C,Y1*%
X121080000Y-44110250D03*
X121080000Y-46410250D03*
X122555000Y-46410250D03*
X122555000Y-44110250D03*
%TD*%
D18*
%TO.C,R42*%
X107429300Y-60972200D03*
X107429300Y-59322200D03*
%TD*%
D10*
%TO.C,R27*%
X123758700Y-61400000D03*
X125408700Y-61400000D03*
%TD*%
D38*
%TO.C,H2*%
X99555300Y-40335200D03*
%TD*%
D13*
%TO.C,TP18*%
X135330000Y-82950000D03*
%TD*%
D38*
%TO.C,H3*%
X99555300Y-87325200D03*
%TD*%
D24*
%TO.C,C50*%
X120025000Y-65952000D03*
X121575000Y-65952000D03*
%TD*%
D16*
%TO.C,R31*%
X117779800Y-61608200D03*
X117779800Y-63258200D03*
%TD*%
D38*
%TO.C,H4*%
X152895300Y-87325200D03*
%TD*%
D13*
%TO.C,TP5*%
X150740000Y-80670000D03*
%TD*%
D14*
%TO.C,TP23*%
X112268000Y-51816000D03*
%TD*%
D17*
%TO.C,C9*%
X141205000Y-74055000D03*
X141205000Y-75605000D03*
%TD*%
D24*
%TO.C,C41*%
X133525000Y-49500000D03*
X135075000Y-49500000D03*
%TD*%
D19*
%TO.C,C12*%
X128660000Y-61590000D03*
X127110000Y-61590000D03*
%TD*%
D24*
%TO.C,C30*%
X142135000Y-61110000D03*
X143685000Y-61110000D03*
%TD*%
D18*
%TO.C,R30*%
X117779800Y-69862200D03*
X117779800Y-68212200D03*
%TD*%
%TO.C,R18*%
X136825000Y-66725000D03*
X136825000Y-65075000D03*
%TD*%
D16*
%TO.C,R15*%
X124805000Y-76805000D03*
X124805000Y-78455000D03*
%TD*%
D17*
%TO.C,C45*%
X102095300Y-61404200D03*
X102095300Y-62954200D03*
%TD*%
D21*
%TO.C,TP20*%
X88930000Y-39600000D03*
%TD*%
%TO.C,TP1*%
X108560000Y-81000000D03*
%TD*%
D19*
%TO.C,C3*%
X122592500Y-42720250D03*
X121042500Y-42720250D03*
%TD*%
%TO.C,C1*%
X122592500Y-41196250D03*
X121042500Y-41196250D03*
%TD*%
D13*
%TO.C,TP17*%
X134543800Y-68750000D03*
%TD*%
%TO.C,TP9*%
X113750000Y-77400000D03*
%TD*%
D10*
%TO.C,R35*%
X114668800Y-63195200D03*
X116318800Y-63195200D03*
%TD*%
D16*
%TO.C,R1*%
X121666000Y-54991000D03*
X121666000Y-56641000D03*
%TD*%
D15*
%TO.C,C34*%
X133179600Y-66254600D03*
X133179600Y-64704600D03*
%TD*%
D21*
%TO.C,TP14*%
X113275000Y-87720000D03*
%TD*%
D39*
%TO.C,U8*%
X120655000Y-51678000D03*
X121605000Y-51678000D03*
X122555000Y-51678000D03*
X122555000Y-49403000D03*
X120655000Y-49403000D03*
%TD*%
D19*
%TO.C,C70*%
X147130000Y-58130000D03*
X145580000Y-58130000D03*
%TD*%
D24*
%TO.C,C51*%
X120059200Y-59638800D03*
X121609200Y-59638800D03*
%TD*%
D15*
%TO.C,C58*%
X114731800Y-61684200D03*
X114731800Y-60134200D03*
%TD*%
D10*
%TO.C,R36*%
X114668800Y-58623200D03*
X116318800Y-58623200D03*
%TD*%
D16*
%TO.C,R22*%
X139318000Y-46395000D03*
X139318000Y-48045000D03*
%TD*%
%TO.C,R20*%
X141685000Y-46045000D03*
X141685000Y-47695000D03*
%TD*%
D17*
%TO.C,C57*%
X114731800Y-66738200D03*
X114731800Y-68288200D03*
%TD*%
D21*
%TO.C,TP19*%
X131572000Y-52832000D03*
%TD*%
D24*
%TO.C,C17*%
X120030000Y-75930000D03*
X121580000Y-75930000D03*
%TD*%
D20*
%TO.C,R37*%
X113270800Y-66751200D03*
X111620800Y-66751200D03*
%TD*%
D15*
%TO.C,C36*%
X132060000Y-58305000D03*
X132060000Y-56755000D03*
%TD*%
D12*
%TO.C,L8*%
X117373500Y-55626000D03*
X115798500Y-55626000D03*
%TD*%
D19*
%TO.C,C55*%
X121609200Y-62686800D03*
X120059200Y-62686800D03*
%TD*%
D10*
%TO.C,R11*%
X127480000Y-72230000D03*
X129130000Y-72230000D03*
%TD*%
%TO.C,R7*%
X153340000Y-77216000D03*
X154990000Y-77216000D03*
%TD*%
D15*
%TO.C,C35*%
X132245000Y-63115000D03*
X132245000Y-61565000D03*
%TD*%
D10*
%TO.C,R26*%
X123758700Y-68340000D03*
X125408700Y-68340000D03*
%TD*%
D15*
%TO.C,C28*%
X139318000Y-51045000D03*
X139318000Y-49495000D03*
%TD*%
D38*
%TO.C,H1*%
X152895300Y-40335200D03*
%TD*%
D24*
%TO.C,C23*%
X145580000Y-59705000D03*
X147130000Y-59705000D03*
%TD*%
%TO.C,C13*%
X127125000Y-68424000D03*
X128675000Y-68424000D03*
%TD*%
%TO.C,C69*%
X133580000Y-54655000D03*
X135130000Y-54655000D03*
%TD*%
D40*
%TO.C,U2*%
X143230300Y-72522700D03*
D41*
X143290300Y-73022700D03*
X143290300Y-73522700D03*
X143290300Y-74022700D03*
X143290300Y-74522700D03*
X143290300Y-75022700D03*
D42*
X143230300Y-75522700D03*
D43*
X143727800Y-76020200D03*
D44*
X144227800Y-75960200D03*
X144727800Y-75960200D03*
X145227800Y-75960200D03*
X145727800Y-75960200D03*
X146227800Y-75960200D03*
D45*
X146727800Y-76020200D03*
D46*
X147225300Y-75522700D03*
D41*
X147165300Y-75022700D03*
X147165300Y-74522700D03*
X147165300Y-74022700D03*
X147165300Y-73522700D03*
X147165300Y-73022700D03*
D47*
X147225300Y-72522700D03*
D48*
X146727800Y-72025200D03*
D44*
X146227800Y-72085200D03*
X145727800Y-72085200D03*
X145227800Y-72085200D03*
X144727800Y-72085200D03*
X144227800Y-72085200D03*
D49*
X143727800Y-72025200D03*
%TD*%
D15*
%TO.C,C27*%
X134302000Y-47675000D03*
X134302000Y-46125000D03*
%TD*%
D10*
%TO.C,R34*%
X114668800Y-69799200D03*
X116318800Y-69799200D03*
%TD*%
D18*
%TO.C,R16*%
X131579600Y-66304600D03*
X131579600Y-64654600D03*
%TD*%
D17*
%TO.C,C33*%
X139005000Y-61455000D03*
X139005000Y-63005000D03*
%TD*%
D21*
%TO.C,TP16*%
X117990000Y-87720000D03*
%TD*%
D26*
%TO.C,U5*%
X143837800Y-58833200D03*
X143837800Y-58333201D03*
X143837800Y-57833199D03*
X143837800Y-57333200D03*
X143837800Y-56833201D03*
X143837800Y-56333200D03*
X143837800Y-55833200D03*
X143837800Y-55333199D03*
X143837800Y-54833200D03*
X143837800Y-54333201D03*
X143837800Y-53833199D03*
X143837800Y-53333200D03*
D25*
X143135800Y-52631200D03*
X142635801Y-52631200D03*
X142135799Y-52631200D03*
X141635800Y-52631200D03*
X141135801Y-52631200D03*
X140635800Y-52631200D03*
X140135800Y-52631200D03*
X139635799Y-52631200D03*
X139135800Y-52631200D03*
X138635801Y-52631200D03*
X138135799Y-52631200D03*
X137635800Y-52631200D03*
D26*
X136933800Y-53333200D03*
X136933800Y-53833199D03*
X136933800Y-54333201D03*
X136933800Y-54833200D03*
X136933800Y-55333199D03*
X136933800Y-55833200D03*
X136933800Y-56333200D03*
X136933800Y-56833201D03*
X136933800Y-57333200D03*
X136933800Y-57833199D03*
X136933800Y-58333201D03*
X136933800Y-58833200D03*
D25*
X137635800Y-59535200D03*
X138135799Y-59535200D03*
X138635801Y-59535200D03*
X139135800Y-59535200D03*
X139635799Y-59535200D03*
X140135800Y-59535200D03*
X140635800Y-59535200D03*
X141135801Y-59535200D03*
X141635800Y-59535200D03*
X142135799Y-59535200D03*
X142635801Y-59535200D03*
X143135800Y-59535200D03*
D50*
X140385800Y-56083200D03*
D28*
X141782800Y-57480200D03*
X141782800Y-56083200D03*
X141782800Y-54686200D03*
X140385800Y-57480200D03*
X140385800Y-56083200D03*
X140385800Y-54686200D03*
X138988800Y-57480200D03*
X138988800Y-56083200D03*
X138988800Y-54686200D03*
%TD*%
D19*
%TO.C,C15*%
X128660000Y-63150000D03*
X127110000Y-63150000D03*
%TD*%
D15*
%TO.C,C74*%
X129286000Y-54750000D03*
X129286000Y-53200000D03*
%TD*%
D51*
%TO.C,J1*%
X78900000Y-38700000D03*
X78900000Y-39700000D03*
X78900000Y-40700000D03*
X78900000Y-41700000D03*
X78900000Y-42700000D03*
X78900000Y-43700000D03*
X78900000Y-44700000D03*
X78900000Y-45700000D03*
X78900000Y-46700000D03*
X78900000Y-47700000D03*
X78900000Y-48700000D03*
X78900000Y-51700000D03*
X78900000Y-52700000D03*
X78900000Y-53700000D03*
X78900000Y-54700000D03*
X78900000Y-55700000D03*
X78900000Y-56700000D03*
X78900000Y-57700000D03*
X78900000Y-58700000D03*
X78900000Y-59700000D03*
X78900000Y-60700000D03*
X78900000Y-61700000D03*
X78900000Y-62700000D03*
X78900000Y-63700000D03*
X78900000Y-64700000D03*
X78900000Y-65700000D03*
X78900000Y-66700000D03*
X78900000Y-67700000D03*
X78900000Y-68700000D03*
X78900000Y-69700000D03*
X78900000Y-70700000D03*
X78900000Y-71700000D03*
X78900000Y-72700000D03*
X78900000Y-73700000D03*
X78900000Y-74700000D03*
X78900000Y-75700000D03*
X78900000Y-76700000D03*
X78900000Y-77700000D03*
X78900000Y-78700000D03*
X78900000Y-79700000D03*
X78900000Y-80700000D03*
X78900000Y-81700000D03*
X78900000Y-82700000D03*
X78900000Y-83700000D03*
X78900000Y-84700000D03*
X78900000Y-85700000D03*
X78900000Y-86700000D03*
D52*
X79450000Y-87700000D03*
D51*
X78900000Y-88700000D03*
%TD*%
D21*
%TO.C,TP8*%
X133520000Y-39360000D03*
%TD*%
%TO.C,TP21*%
X93450000Y-39600000D03*
%TD*%
D53*
%TO.C,J3*%
X158250000Y-57530000D03*
D54*
X158250000Y-60305000D03*
X158250000Y-54755000D03*
%TD*%
D17*
%TO.C,C8*%
X139705000Y-74055000D03*
X139705000Y-75605000D03*
%TD*%
D12*
%TO.C,L3*%
X125371200Y-62924000D03*
X123796200Y-62924000D03*
%TD*%
D19*
%TO.C,C26*%
X147130000Y-55030000D03*
X145580000Y-55030000D03*
%TD*%
D13*
%TO.C,TP4*%
X143350000Y-82950000D03*
%TD*%
D15*
%TO.C,C16*%
X123105000Y-78405000D03*
X123105000Y-76855000D03*
%TD*%
D22*
%TO.C,FB3*%
X103200000Y-69558400D03*
X103200000Y-65500000D03*
%TD*%
D14*
%TO.C,TP24*%
X109728000Y-64770000D03*
%TD*%
D10*
%TO.C,R24*%
X133475000Y-51100000D03*
X135125000Y-51100000D03*
%TD*%
D19*
%TO.C,C18*%
X147130000Y-56580000D03*
X145580000Y-56580000D03*
%TD*%
D15*
%TO.C,C31*%
X141685000Y-51030000D03*
X141685000Y-49480000D03*
%TD*%
D16*
%TO.C,R3*%
X147497800Y-67450200D03*
X147497800Y-69100200D03*
%TD*%
%TO.C,R13*%
X126405000Y-76805000D03*
X126405000Y-78455000D03*
%TD*%
D19*
%TO.C,C25*%
X135275000Y-52710000D03*
X133725000Y-52710000D03*
%TD*%
D15*
%TO.C,C61*%
X116255800Y-61684200D03*
X116255800Y-60134200D03*
%TD*%
D18*
%TO.C,R4*%
X141405000Y-78755000D03*
X141405000Y-77105000D03*
%TD*%
D13*
%TO.C,TP6*%
X134543800Y-73355200D03*
%TD*%
D15*
%TO.C,C73*%
X124460000Y-54750000D03*
X124460000Y-53200000D03*
%TD*%
%TO.C,C65*%
X101719300Y-50762200D03*
X101719300Y-49212200D03*
%TD*%
D17*
%TO.C,C5*%
X139705000Y-77155000D03*
X139705000Y-78705000D03*
%TD*%
%TO.C,C37*%
X133630000Y-56180000D03*
X133630000Y-57730000D03*
%TD*%
D20*
%TO.C,R21*%
X145328800Y-47640000D03*
X143678800Y-47640000D03*
%TD*%
D21*
%TO.C,TP15*%
X117990000Y-81000000D03*
%TD*%
D33*
%TO.C,FB2*%
X95450700Y-80100000D03*
X96949300Y-80100000D03*
%TD*%
D20*
%TO.C,R10*%
X149592800Y-64973200D03*
X147942800Y-64973200D03*
%TD*%
D16*
%TO.C,R45*%
X124311500Y-49715500D03*
X124311500Y-51365500D03*
%TD*%
D20*
%TO.C,R41*%
X117644300Y-74967200D03*
X115994300Y-74967200D03*
%TD*%
D10*
%TO.C,R39*%
X111620800Y-68275200D03*
X113270800Y-68275200D03*
%TD*%
D19*
%TO.C,C54*%
X121575000Y-69000000D03*
X120025000Y-69000000D03*
%TD*%
D21*
%TO.C,TP11*%
X108560000Y-87720000D03*
%TD*%
D18*
%TO.C,R2*%
X145796000Y-69100200D03*
X145796000Y-67450200D03*
%TD*%
D19*
%TO.C,C72*%
X122518000Y-47583250D03*
X120968000Y-47583250D03*
%TD*%
D55*
%TO.C,U3*%
X124117801Y-75001201D03*
D56*
X124167801Y-74601202D03*
X124167801Y-74201200D03*
X124167801Y-73801201D03*
D57*
X123967799Y-73201200D03*
X123567800Y-73201200D03*
X123167800Y-73201200D03*
X122767799Y-73201200D03*
D56*
X122567799Y-73801201D03*
X122567799Y-74201200D03*
X122567799Y-74601202D03*
X122567799Y-75001201D03*
D57*
X122767799Y-75601200D03*
X123167800Y-75601200D03*
X123567800Y-75601200D03*
X123967799Y-75601200D03*
%TD*%
D15*
%TO.C,C29*%
X136080000Y-47675000D03*
X136080000Y-46125000D03*
%TD*%
D10*
%TO.C,R28*%
X123758700Y-59876000D03*
X125408700Y-59876000D03*
%TD*%
D19*
%TO.C,C11*%
X152320000Y-57430000D03*
X150770000Y-57430000D03*
%TD*%
D17*
%TO.C,C46*%
X100559300Y-61404200D03*
X100559300Y-62954200D03*
%TD*%
D15*
%TO.C,C19*%
X127900000Y-47675000D03*
X127900000Y-46125000D03*
%TD*%
D11*
%TO.C,L7*%
X126085500Y-54724000D03*
X127660500Y-54724000D03*
%TD*%
D13*
%TO.C,TP7*%
X150840000Y-76450000D03*
%TD*%
G36*
X152698156Y-56841324D02*
G01*
X152741177Y-56878763D01*
X152900000Y-57100000D01*
X156222080Y-57128929D01*
X156288945Y-57149196D01*
X156334239Y-57202397D01*
X156345000Y-57252924D01*
X156345000Y-57806000D01*
X156325315Y-57873039D01*
X156272511Y-57918794D01*
X156221000Y-57930000D01*
X151924000Y-57930000D01*
X151856961Y-57910315D01*
X151811206Y-57857511D01*
X151800000Y-57806000D01*
X151800000Y-57013643D01*
X151819685Y-56946604D01*
X151872489Y-56900849D01*
X151913212Y-56890113D01*
X152629658Y-56827546D01*
X152698156Y-56841324D01*
G37*
M02*
