%TF.GenerationSoftware,KiCad,Pcbnew,9.0.7*%
%TF.CreationDate,2026-04-25T15:32:30+02:00*%
%TF.ProjectId,RASRF2400WBMC,52415352-4632-4343-9030-57424d432e6b,A*%
%TF.SameCoordinates,Original*%
%TF.FileFunction,Soldermask,Bot*%
%TF.FilePolarity,Negative*%
%FSLAX46Y46*%
G04 Gerber Fmt 4.6, Leading zero omitted, Abs format (unit mm)*
G04 Created by KiCad (PCBNEW 9.0.7) date 2026-04-25 15:32:30*
%MOMM*%
%LPD*%
G01*
G04 APERTURE LIST*
G04 Aperture macros list*
%AMRoundRect*
0 Rectangle with rounded corners*
0 $1 Rounding radius*
0 $2 $3 $4 $5 $6 $7 $8 $9 X,Y pos of 4 corners*
0 Add a 4 corners polygon primitive as box body*
4,1,4,$2,$3,$4,$5,$6,$7,$8,$9,$2,$3,0*
0 Add four circle primitives for the rounded corners*
1,1,$1+$1,$2,$3*
1,1,$1+$1,$4,$5*
1,1,$1+$1,$6,$7*
1,1,$1+$1,$8,$9*
0 Add four rect primitives between the rounded corners*
20,1,$1+$1,$2,$3,$4,$5,0*
20,1,$1+$1,$4,$5,$6,$7,0*
20,1,$1+$1,$6,$7,$8,$9,0*
20,1,$1+$1,$8,$9,$2,$3,0*%
G04 Aperture macros list end*
%ADD10C,0.450000*%
%ADD11R,1.700000X1.700000*%
%ADD12C,1.700000*%
%ADD13C,1.000000*%
%ADD14RoundRect,0.200000X2.050000X-0.625000X2.050000X0.625000X-2.050000X0.625000X-2.050000X-0.625000X0*%
%ADD15C,0.500000*%
%ADD16C,3.200000*%
%ADD17C,2.250000*%
%ADD18C,2.100000*%
%ADD19R,3.200000X0.700000*%
%ADD20R,4.300000X0.700000*%
%ADD21RoundRect,0.200000X-0.200000X-0.275000X0.200000X-0.275000X0.200000X0.275000X-0.200000X0.275000X0*%
%ADD22RoundRect,0.140000X-0.140000X-0.170000X0.140000X-0.170000X0.140000X0.170000X-0.140000X0.170000X0*%
%ADD23RoundRect,0.140000X-0.170000X0.140000X-0.170000X-0.140000X0.170000X-0.140000X0.170000X0.140000X0*%
%ADD24R,0.939800X0.965200*%
%ADD25RoundRect,0.225000X-0.250000X0.225000X-0.250000X-0.225000X0.250000X-0.225000X0.250000X0.225000X0*%
%ADD26RoundRect,0.140000X0.170000X-0.140000X0.170000X0.140000X-0.170000X0.140000X-0.170000X-0.140000X0*%
%ADD27RoundRect,0.135000X0.135000X0.185000X-0.135000X0.185000X-0.135000X-0.185000X0.135000X-0.185000X0*%
%ADD28RoundRect,0.225000X0.250000X-0.225000X0.250000X0.225000X-0.250000X0.225000X-0.250000X-0.225000X0*%
%ADD29RoundRect,0.225000X-0.225000X-0.250000X0.225000X-0.250000X0.225000X0.250000X-0.225000X0.250000X0*%
%ADD30R,0.250000X0.850000*%
%ADD31R,0.850000X0.250000*%
%ADD32R,3.600000X3.600000*%
%ADD33RoundRect,0.135000X-0.135000X-0.185000X0.135000X-0.185000X0.135000X0.185000X-0.135000X0.185000X0*%
%ADD34RoundRect,0.140000X0.140000X0.170000X-0.140000X0.170000X-0.140000X-0.170000X0.140000X-0.170000X0*%
%ADD35RoundRect,0.200000X-0.275000X0.200000X-0.275000X-0.200000X0.275000X-0.200000X0.275000X0.200000X0*%
%ADD36RoundRect,0.135000X0.185000X-0.135000X0.185000X0.135000X-0.185000X0.135000X-0.185000X-0.135000X0*%
%ADD37RoundRect,0.225000X0.225000X0.250000X-0.225000X0.250000X-0.225000X-0.250000X0.225000X-0.250000X0*%
%ADD38RoundRect,0.200000X0.200000X0.275000X-0.200000X0.275000X-0.200000X-0.275000X0.200000X-0.275000X0*%
%ADD39R,0.700001X0.200000*%
%ADD40R,0.599999X0.200000*%
%ADD41R,0.200000X0.599999*%
%ADD42RoundRect,0.150000X-0.512500X-0.150000X0.512500X-0.150000X0.512500X0.150000X-0.512500X0.150000X0*%
%ADD43RoundRect,0.200000X0.275000X-0.200000X0.275000X0.200000X-0.275000X0.200000X-0.275000X-0.200000X0*%
%ADD44RoundRect,0.135000X-0.185000X0.135000X-0.185000X-0.135000X0.185000X-0.135000X0.185000X0.135000X0*%
G04 APERTURE END LIST*
D10*
%TO.C,IC5*%
X139205002Y-90400002D03*
X140355002Y-90400002D03*
X141595002Y-90400002D03*
X142835002Y-90400002D03*
X145205002Y-90400002D03*
X144075002Y-90380002D03*
X140355002Y-89160002D03*
X141595002Y-89160002D03*
X142835002Y-89160002D03*
X139205002Y-89140002D03*
X144075002Y-89140002D03*
X145205002Y-89140002D03*
X140355002Y-87920002D03*
X141595002Y-87920002D03*
X142835002Y-87920002D03*
X139205002Y-87900002D03*
X144075002Y-87900002D03*
X145205002Y-87900002D03*
X140355002Y-86680002D03*
X141595002Y-86680002D03*
X142835002Y-86680002D03*
X139205002Y-86660002D03*
X144075002Y-86660002D03*
X145205002Y-86660002D03*
X140355002Y-85440002D03*
X141595002Y-85440002D03*
X142835002Y-85440002D03*
X139205002Y-85420002D03*
X144075002Y-85420002D03*
X145205002Y-85420002D03*
X139205002Y-84200002D03*
X140355002Y-84200002D03*
X141595002Y-84200002D03*
X142835002Y-84200002D03*
X145205002Y-84200002D03*
X144075002Y-84180002D03*
%TD*%
D11*
%TO.C,J6*%
X120800000Y-67500000D03*
D12*
X123340000Y-67500000D03*
X125880000Y-67500000D03*
X128420000Y-67500000D03*
%TD*%
D13*
%TO.C,TP6*%
X130700000Y-62520000D03*
%TD*%
D14*
%TO.C,J2*%
X180300000Y-79475000D03*
X180300000Y-73925000D03*
%TD*%
D13*
%TO.C,TP10*%
X125900000Y-62520000D03*
%TD*%
D14*
%TO.C,J1*%
X180300000Y-95205500D03*
X180300000Y-89655500D03*
%TD*%
D13*
%TO.C,TP7*%
X151000000Y-62520000D03*
%TD*%
D15*
%TO.C,U8*%
X170450978Y-124075004D03*
X170450978Y-122775004D03*
X170450978Y-121475004D03*
X169150978Y-125375004D03*
X169150978Y-124075004D03*
X169150978Y-122775004D03*
X169150978Y-121475004D03*
X169150978Y-120175004D03*
X167850978Y-125375004D03*
X167850978Y-124075004D03*
X167850978Y-122775004D03*
X167850978Y-121475004D03*
X167850978Y-120175004D03*
X166550978Y-125375004D03*
X166550978Y-124075004D03*
X166550978Y-122775004D03*
X166550978Y-121475004D03*
X166550978Y-120175004D03*
X165250978Y-124075004D03*
X165250978Y-122775004D03*
X165250978Y-121475004D03*
%TD*%
D13*
%TO.C,TP5*%
X158306954Y-136300000D03*
%TD*%
D15*
%TO.C,U6*%
X170450977Y-76900002D03*
X170450977Y-75600002D03*
X170450977Y-74300002D03*
X169150977Y-78200002D03*
X169150977Y-76900002D03*
X169150977Y-75600002D03*
X169150977Y-74300002D03*
X169150977Y-73000002D03*
X167850977Y-78200002D03*
X167850977Y-76900002D03*
X167850977Y-75600002D03*
X167850977Y-74300002D03*
X167850977Y-73000002D03*
X166550977Y-78200002D03*
X166550977Y-76900002D03*
X166550977Y-75600002D03*
X166550977Y-74300002D03*
X166550977Y-73000002D03*
X165250977Y-76900002D03*
X165250977Y-75600002D03*
X165250977Y-74300002D03*
%TD*%
D13*
%TO.C,TP20*%
X157500000Y-74600000D03*
%TD*%
%TO.C,TP2*%
X161450000Y-62520000D03*
%TD*%
%TO.C,TP4*%
X119900000Y-62520000D03*
%TD*%
D16*
%TO.C,H2*%
X176100000Y-65300000D03*
%TD*%
%TO.C,H3*%
X113400000Y-133500000D03*
%TD*%
D13*
%TO.C,TP19*%
X157300000Y-89300000D03*
%TD*%
%TO.C,TP22*%
X157470000Y-105400000D03*
%TD*%
%TO.C,TP1*%
X150503477Y-136170000D03*
%TD*%
%TO.C,TP16*%
X157470000Y-120970001D03*
%TD*%
D10*
%TO.C,IC6*%
X139205002Y-121917913D03*
X140355002Y-121917913D03*
X141595002Y-121917913D03*
X142835002Y-121917913D03*
X145205002Y-121917913D03*
X144075002Y-121897913D03*
X140355002Y-120677913D03*
X141595002Y-120677913D03*
X142835002Y-120677913D03*
X139205002Y-120657913D03*
X144075002Y-120657913D03*
X145205002Y-120657913D03*
X140355002Y-119437913D03*
X141595002Y-119437913D03*
X142835002Y-119437913D03*
X139205002Y-119417913D03*
X144075002Y-119417913D03*
X145205002Y-119417913D03*
X140355002Y-118197913D03*
X141595002Y-118197913D03*
X142835002Y-118197913D03*
X139205002Y-118177913D03*
X144075002Y-118177913D03*
X145205002Y-118177913D03*
X140355002Y-116957913D03*
X141595002Y-116957913D03*
X142835002Y-116957913D03*
X139205002Y-116937913D03*
X144075002Y-116937913D03*
X145205002Y-116937913D03*
X139205002Y-115717913D03*
X140355002Y-115717913D03*
X141595002Y-115717913D03*
X142835002Y-115717913D03*
X145205002Y-115717913D03*
X144075002Y-115697913D03*
%TD*%
D15*
%TO.C,U10*%
X170450978Y-108350003D03*
X170450978Y-107050003D03*
X170450978Y-105750003D03*
X169150978Y-109650003D03*
X169150978Y-108350003D03*
X169150978Y-107050003D03*
X169150978Y-105750003D03*
X169150978Y-104450003D03*
X167850978Y-109650003D03*
X167850978Y-108350003D03*
X167850978Y-107050003D03*
X167850978Y-105750003D03*
X167850978Y-104450003D03*
X166550978Y-109650003D03*
X166550978Y-108350003D03*
X166550978Y-107050003D03*
X166550978Y-105750003D03*
X166550978Y-104450003D03*
X165250978Y-108350003D03*
X165250978Y-107050003D03*
X165250978Y-105750003D03*
%TD*%
D14*
%TO.C,J3*%
X180375488Y-126666501D03*
X180375488Y-121116501D03*
%TD*%
D16*
%TO.C,H1*%
X113400000Y-65300000D03*
%TD*%
D17*
%TO.C,J5*%
X129523000Y-103170000D03*
X129523000Y-108270000D03*
X124423000Y-108270000D03*
X124423000Y-103170000D03*
D18*
X126973000Y-105720000D03*
%TD*%
D14*
%TO.C,J4*%
X180375488Y-110936001D03*
X180375488Y-105386001D03*
%TD*%
D13*
%TO.C,TP12*%
X137900000Y-68800000D03*
%TD*%
%TO.C,TP3*%
X142700000Y-136170000D03*
%TD*%
D16*
%TO.C,H4*%
X176100000Y-133500000D03*
%TD*%
D13*
%TO.C,TP9*%
X170680000Y-131600003D03*
%TD*%
D15*
%TO.C,U4*%
X170450978Y-92625003D03*
X170450978Y-91325003D03*
X170450978Y-90025003D03*
X169150978Y-93925003D03*
X169150978Y-92625003D03*
X169150978Y-91325003D03*
X169150978Y-90025003D03*
X169150978Y-88725003D03*
X167850978Y-93925003D03*
X167850978Y-92625003D03*
X167850978Y-91325003D03*
X167850978Y-90025003D03*
X167850978Y-88725003D03*
X166550978Y-93925003D03*
X166550978Y-92625003D03*
X166550978Y-91325003D03*
X166550978Y-90025003D03*
X166550978Y-88725003D03*
X165250978Y-92625003D03*
X165250978Y-91325003D03*
X165250978Y-90025003D03*
%TD*%
D19*
%TO.C,J7*%
X104970000Y-74400000D03*
D20*
X104420000Y-75400000D03*
X104420000Y-76400000D03*
X104420000Y-77400000D03*
X104420000Y-78400000D03*
X104420000Y-79400000D03*
X104420000Y-80400000D03*
X104420000Y-81400000D03*
X104420000Y-82400000D03*
X104420000Y-83400000D03*
X104420000Y-84400000D03*
X104420000Y-87400000D03*
X104420000Y-88400000D03*
X104420000Y-89400000D03*
X104420000Y-90400000D03*
X104420000Y-91400000D03*
X104420000Y-92400000D03*
X104420000Y-93400000D03*
X104420000Y-94400000D03*
X104420000Y-95400000D03*
X104420000Y-96400000D03*
X104420000Y-97400000D03*
X104420000Y-98400000D03*
X104420000Y-99400000D03*
X104420000Y-100400000D03*
X104420000Y-101400000D03*
X104420000Y-102400000D03*
X104420000Y-103400000D03*
X104420000Y-104400000D03*
X104420000Y-105400000D03*
X104420000Y-106400000D03*
X104420000Y-107400000D03*
X104420000Y-108400000D03*
X104420000Y-109400000D03*
X104420000Y-110400000D03*
X104420000Y-111400000D03*
X104420000Y-112400000D03*
X104420000Y-113400000D03*
X104420000Y-114400000D03*
X104420000Y-115400000D03*
X104420000Y-116400000D03*
X104420000Y-117400000D03*
X104420000Y-118400000D03*
X104420000Y-119400000D03*
X104420000Y-120400000D03*
X104420000Y-121400000D03*
X104420000Y-122400000D03*
X104420000Y-123400000D03*
X104420000Y-124400000D03*
%TD*%
D21*
%TO.C,R40*%
X168825978Y-83725001D03*
X170475978Y-83725001D03*
%TD*%
D22*
%TO.C,C148*%
X161740001Y-107050003D03*
X162700001Y-107050003D03*
%TD*%
%TO.C,C60*%
X171370978Y-89825003D03*
X172330978Y-89825003D03*
%TD*%
D23*
%TO.C,C172*%
X145324025Y-82700000D03*
X145324025Y-83660000D03*
%TD*%
D21*
%TO.C,R39*%
X168825978Y-85335001D03*
X170475978Y-85335001D03*
%TD*%
D24*
%TO.C,FB2*%
X121400000Y-130649300D03*
X121400000Y-129150700D03*
%TD*%
D25*
%TO.C,C176*%
X140683923Y-81800000D03*
X140683923Y-83350000D03*
%TD*%
D21*
%TO.C,R124*%
X143575000Y-128217913D03*
X145225000Y-128217913D03*
%TD*%
D26*
%TO.C,C217*%
X145200000Y-123497911D03*
X145200000Y-122537911D03*
%TD*%
D27*
%TO.C,R17*%
X145320000Y-73800000D03*
X144300000Y-73800000D03*
%TD*%
D23*
%TO.C,C207*%
X145324025Y-114217911D03*
X145324025Y-115177911D03*
%TD*%
D21*
%TO.C,R59*%
X168825978Y-113575002D03*
X170475978Y-113575002D03*
%TD*%
D23*
%TO.C,C181*%
X146400000Y-83520000D03*
X146400000Y-84480000D03*
%TD*%
D28*
%TO.C,C37*%
X126700000Y-130750000D03*
X126700000Y-129200000D03*
%TD*%
D22*
%TO.C,C125*%
X161740001Y-122775004D03*
X162700001Y-122775004D03*
%TD*%
D21*
%TO.C,R67*%
X168825978Y-99450001D03*
X170475978Y-99450001D03*
%TD*%
D26*
%TO.C,C180*%
X146200000Y-91080000D03*
X146200000Y-90120000D03*
%TD*%
D22*
%TO.C,C2*%
X131358030Y-67350001D03*
X132318030Y-67350001D03*
%TD*%
D29*
%TO.C,C208*%
X137200000Y-120080095D03*
X138750000Y-120080095D03*
%TD*%
D30*
%TO.C,IC3*%
X140600000Y-66800000D03*
X141100000Y-66800000D03*
X141600000Y-66800000D03*
X142100000Y-66800000D03*
X142600000Y-66800000D03*
X143100000Y-66800000D03*
X143600000Y-66800000D03*
X144100000Y-66800000D03*
D31*
X144800000Y-67500000D03*
X144800000Y-68000000D03*
X144800000Y-68500000D03*
X144800000Y-69000000D03*
X144800000Y-69500000D03*
X144800000Y-70000000D03*
X144800000Y-70500000D03*
X144800000Y-71000000D03*
D30*
X144100000Y-71700000D03*
X143600000Y-71700000D03*
X143100000Y-71700000D03*
X142600000Y-71700000D03*
X142100000Y-71700000D03*
X141600000Y-71700000D03*
X141100000Y-71700000D03*
X140600000Y-71700000D03*
D31*
X139900000Y-71000000D03*
X139900000Y-70500000D03*
X139900000Y-70000000D03*
X139900000Y-69500000D03*
X139900000Y-69000000D03*
X139900000Y-68500000D03*
X139900000Y-68000000D03*
X139900000Y-67500000D03*
D32*
X142350000Y-69250000D03*
%TD*%
D22*
%TO.C,C99*%
X161740000Y-76650000D03*
X162700000Y-76650000D03*
%TD*%
D26*
%TO.C,C74*%
X166100001Y-95605001D03*
X166100001Y-94645001D03*
%TD*%
D23*
%TO.C,C116*%
X168600001Y-118495002D03*
X168600001Y-119455002D03*
%TD*%
D33*
%TO.C,R31*%
X139799998Y-80000000D03*
X140819998Y-80000000D03*
%TD*%
D21*
%TO.C,R48*%
X168825977Y-69610000D03*
X170475977Y-69610000D03*
%TD*%
D26*
%TO.C,C68*%
X167100001Y-95605001D03*
X167100001Y-94645001D03*
%TD*%
D23*
%TO.C,C57*%
X138900000Y-74510000D03*
X138900000Y-75470000D03*
%TD*%
D21*
%TO.C,R2*%
X131237499Y-68950001D03*
X132887499Y-68950001D03*
%TD*%
D34*
%TO.C,C52*%
X140340000Y-65450000D03*
X139380000Y-65450000D03*
%TD*%
D23*
%TO.C,C209*%
X144315002Y-114217911D03*
X144315002Y-115177911D03*
%TD*%
D25*
%TO.C,C213*%
X139900000Y-123142911D03*
X139900000Y-124692911D03*
%TD*%
D34*
%TO.C,C168*%
X146880000Y-85400000D03*
X145920000Y-85400000D03*
%TD*%
D21*
%TO.C,R43*%
X161075000Y-85950000D03*
X162725000Y-85950000D03*
%TD*%
D34*
%TO.C,C210*%
X146880000Y-120225000D03*
X145920000Y-120225000D03*
%TD*%
D21*
%TO.C,R68*%
X168825978Y-97850001D03*
X170475978Y-97850001D03*
%TD*%
D22*
%TO.C,C63*%
X171370978Y-90825003D03*
X172330978Y-90825003D03*
%TD*%
%TO.C,C3*%
X135082499Y-68950001D03*
X136042499Y-68950001D03*
%TD*%
D33*
%TO.C,R125*%
X141724023Y-75600000D03*
X142744023Y-75600000D03*
%TD*%
D35*
%TO.C,R22*%
X146690000Y-62874999D03*
X146690000Y-64524999D03*
%TD*%
D22*
%TO.C,C79*%
X161740001Y-91325003D03*
X162700001Y-91325003D03*
%TD*%
D23*
%TO.C,C139*%
X168600001Y-102770001D03*
X168600001Y-103730001D03*
%TD*%
%TO.C,C204*%
X141924025Y-114217911D03*
X141924025Y-115177911D03*
%TD*%
D29*
%TO.C,C171*%
X137200000Y-86000000D03*
X138750000Y-86000000D03*
%TD*%
D22*
%TO.C,C86*%
X171370977Y-75100002D03*
X172330977Y-75100002D03*
%TD*%
D23*
%TO.C,C169*%
X141924025Y-82700000D03*
X141924025Y-83660000D03*
%TD*%
D22*
%TO.C,C55*%
X142300000Y-64400001D03*
X143260000Y-64400001D03*
%TD*%
D35*
%TO.C,R96*%
X150380000Y-86695000D03*
X150380000Y-88345000D03*
%TD*%
D26*
%TO.C,C127*%
X159300000Y-119955004D03*
X159300000Y-118995004D03*
%TD*%
D36*
%TO.C,R18*%
X146990000Y-71330001D03*
X146990000Y-70310001D03*
%TD*%
D23*
%TO.C,C131*%
X167100001Y-102750001D03*
X167100001Y-103710001D03*
%TD*%
D26*
%TO.C,C91*%
X167100000Y-79880000D03*
X167100000Y-78920000D03*
%TD*%
D23*
%TO.C,C108*%
X167100001Y-118475002D03*
X167100001Y-119435002D03*
%TD*%
D26*
%TO.C,C150*%
X159850978Y-104230003D03*
X159850978Y-103270003D03*
%TD*%
%TO.C,C215*%
X146200000Y-122597911D03*
X146200000Y-121637911D03*
%TD*%
D36*
%TO.C,R24*%
X148199999Y-69310000D03*
X148199999Y-68290000D03*
%TD*%
%TO.C,R20*%
X149390000Y-71309999D03*
X149390000Y-70289999D03*
%TD*%
%TO.C,R26*%
X149399999Y-69310000D03*
X149399999Y-68290000D03*
%TD*%
D22*
%TO.C,C167*%
X145920000Y-87630000D03*
X146880000Y-87630000D03*
%TD*%
D21*
%TO.C,R58*%
X168825978Y-115175002D03*
X170475978Y-115175002D03*
%TD*%
D29*
%TO.C,C173*%
X137200000Y-88562184D03*
X138750000Y-88562184D03*
%TD*%
D36*
%TO.C,R30*%
X138700000Y-80909999D03*
X138700000Y-79890001D03*
%TD*%
D37*
%TO.C,C48*%
X131640000Y-134570000D03*
X130090000Y-134570000D03*
%TD*%
D23*
%TO.C,C174*%
X144315002Y-82700000D03*
X144315002Y-83660000D03*
%TD*%
D26*
%TO.C,C183*%
X141200000Y-91980000D03*
X141200000Y-91020000D03*
%TD*%
%TO.C,C120*%
X166100001Y-127055002D03*
X166100001Y-126095002D03*
%TD*%
D21*
%TO.C,R50*%
X168825977Y-66400000D03*
X170475977Y-66400000D03*
%TD*%
D38*
%TO.C,R69*%
X162750978Y-103950003D03*
X161100978Y-103950003D03*
%TD*%
D26*
%TO.C,C137*%
X167100001Y-111330001D03*
X167100001Y-110370001D03*
%TD*%
D23*
%TO.C,C205*%
X143324025Y-114217911D03*
X143324025Y-115177911D03*
%TD*%
D22*
%TO.C,C56*%
X142300000Y-65500001D03*
X143260000Y-65500001D03*
%TD*%
D23*
%TO.C,C70*%
X168600001Y-87045001D03*
X168600001Y-88005001D03*
%TD*%
D26*
%TO.C,C185*%
X142200000Y-91980000D03*
X142200000Y-91020000D03*
%TD*%
D22*
%TO.C,C132*%
X171370978Y-106550003D03*
X172330978Y-106550003D03*
%TD*%
D23*
%TO.C,C36*%
X128670000Y-95510000D03*
X128670000Y-96470000D03*
%TD*%
D34*
%TO.C,C80*%
X162930978Y-84650000D03*
X161970978Y-84650000D03*
%TD*%
D39*
%TO.C,U3*%
X139959999Y-77000000D03*
D40*
X140009999Y-77399999D03*
X140009999Y-77800001D03*
X140009999Y-78200000D03*
D41*
X139809997Y-78800001D03*
X139409998Y-78800001D03*
X139009998Y-78800001D03*
X138609997Y-78800001D03*
D40*
X138409997Y-78200000D03*
X138409997Y-77800001D03*
X138409997Y-77399999D03*
X138409997Y-77000000D03*
D41*
X138609997Y-76400001D03*
X139009998Y-76400001D03*
X139409998Y-76400001D03*
X139809997Y-76400001D03*
%TD*%
D21*
%TO.C,R41*%
X168825978Y-82125001D03*
X170475978Y-82125001D03*
%TD*%
D36*
%TO.C,R27*%
X150599999Y-69309999D03*
X150599999Y-68289999D03*
%TD*%
D26*
%TO.C,C219*%
X143200000Y-123497911D03*
X143200000Y-122537911D03*
%TD*%
D27*
%TO.C,R126*%
X142744023Y-76600000D03*
X141724023Y-76600000D03*
%TD*%
D26*
%TO.C,C81*%
X159400000Y-88505003D03*
X159400000Y-87545003D03*
%TD*%
D42*
%TO.C,U1*%
X133799999Y-72600001D03*
X133799999Y-71650001D03*
X133799999Y-70700001D03*
X136074999Y-70700001D03*
X136074999Y-72600001D03*
%TD*%
D36*
%TO.C,R23*%
X146989999Y-69310001D03*
X146989999Y-68290001D03*
%TD*%
%TO.C,R33*%
X135790000Y-76070000D03*
X135790000Y-75050000D03*
%TD*%
D26*
%TO.C,C112*%
X169600001Y-126955002D03*
X169600001Y-125995002D03*
%TD*%
D36*
%TO.C,R21*%
X150590000Y-71309999D03*
X150590000Y-70289999D03*
%TD*%
D26*
%TO.C,C182*%
X145200000Y-91980000D03*
X145200000Y-91020000D03*
%TD*%
%TO.C,C135*%
X169600001Y-111230001D03*
X169600001Y-110270001D03*
%TD*%
D36*
%TO.C,R34*%
X136900000Y-76100001D03*
X136900000Y-75080001D03*
%TD*%
D26*
%TO.C,C114*%
X167100001Y-127055002D03*
X167100001Y-126095002D03*
%TD*%
%TO.C,C143*%
X166100001Y-111330001D03*
X166100001Y-110370001D03*
%TD*%
D23*
%TO.C,C58*%
X137900000Y-74500000D03*
X137900000Y-75460000D03*
%TD*%
D25*
%TO.C,C211*%
X140683923Y-113317911D03*
X140683923Y-114867911D03*
%TD*%
D34*
%TO.C,C149*%
X162930978Y-100950003D03*
X161970978Y-100950003D03*
%TD*%
D28*
%TO.C,C35*%
X124748367Y-130750000D03*
X124748367Y-129200000D03*
%TD*%
D26*
%TO.C,C184*%
X143200000Y-91980000D03*
X143200000Y-91020000D03*
%TD*%
D38*
%TO.C,R42*%
X162250000Y-88225003D03*
X160600000Y-88225003D03*
%TD*%
D22*
%TO.C,C122*%
X161740001Y-123825002D03*
X162700001Y-123825002D03*
%TD*%
D28*
%TO.C,C53*%
X144990000Y-64475001D03*
X144990000Y-62925001D03*
%TD*%
D36*
%TO.C,R19*%
X148190000Y-71309999D03*
X148190000Y-70289999D03*
%TD*%
D22*
%TO.C,C83*%
X171370977Y-74100002D03*
X172330977Y-74100002D03*
%TD*%
D26*
%TO.C,C89*%
X169600000Y-79780000D03*
X169600000Y-78820000D03*
%TD*%
D34*
%TO.C,C103*%
X162930977Y-69500002D03*
X161970977Y-69500002D03*
%TD*%
D26*
%TO.C,C179*%
X144200000Y-91980000D03*
X144200000Y-91020000D03*
%TD*%
%TO.C,C218*%
X141200000Y-123497911D03*
X141200000Y-122537911D03*
%TD*%
%TO.C,C104*%
X159500000Y-72780000D03*
X159500000Y-71820000D03*
%TD*%
D43*
%TO.C,R1*%
X131537499Y-72375001D03*
X131537499Y-70725001D03*
%TD*%
D38*
%TO.C,R3*%
X136424999Y-67300001D03*
X134774999Y-67300001D03*
%TD*%
D23*
%TO.C,C216*%
X146400000Y-115037911D03*
X146400000Y-115997911D03*
%TD*%
D21*
%TO.C,R70*%
X161100978Y-102250003D03*
X162750978Y-102250003D03*
%TD*%
D23*
%TO.C,C170*%
X143324025Y-82700000D03*
X143324025Y-83660000D03*
%TD*%
D22*
%TO.C,C129*%
X171370978Y-105550003D03*
X172330978Y-105550003D03*
%TD*%
D21*
%TO.C,R66*%
X168825978Y-101060001D03*
X170475978Y-101060001D03*
%TD*%
D28*
%TO.C,C42*%
X123100000Y-130749998D03*
X123100000Y-129199998D03*
%TD*%
D21*
%TO.C,R57*%
X168825978Y-116785002D03*
X170475978Y-116785002D03*
%TD*%
D23*
%TO.C,C93*%
X168600000Y-71320000D03*
X168600000Y-72280000D03*
%TD*%
D44*
%TO.C,R29*%
X134590000Y-75050000D03*
X134590000Y-76070000D03*
%TD*%
D26*
%TO.C,C214*%
X144200000Y-123497911D03*
X144200000Y-122537911D03*
%TD*%
D21*
%TO.C,R61*%
X161100978Y-117975004D03*
X162750978Y-117975004D03*
%TD*%
D25*
%TO.C,C178*%
X139700000Y-92150000D03*
X139700000Y-93700000D03*
%TD*%
D33*
%TO.C,R32*%
X142699999Y-80000000D03*
X143719999Y-80000000D03*
%TD*%
D22*
%TO.C,C109*%
X171370978Y-122275004D03*
X172330978Y-122275004D03*
%TD*%
%TO.C,C102*%
X161740000Y-75600002D03*
X162700000Y-75600002D03*
%TD*%
D33*
%TO.C,R16*%
X144300000Y-74900000D03*
X145320000Y-74900000D03*
%TD*%
D22*
%TO.C,C202*%
X145920000Y-119225000D03*
X146880000Y-119225000D03*
%TD*%
D21*
%TO.C,R52*%
X161100977Y-70800002D03*
X162750977Y-70800002D03*
%TD*%
D22*
%TO.C,C106*%
X171370978Y-121275004D03*
X172330978Y-121275004D03*
%TD*%
D23*
%TO.C,C46*%
X136560000Y-98200000D03*
X136560000Y-99160000D03*
%TD*%
D26*
%TO.C,C97*%
X166100000Y-79880000D03*
X166100000Y-78920000D03*
%TD*%
D23*
%TO.C,C39*%
X129650000Y-95510000D03*
X129650000Y-96470000D03*
%TD*%
D21*
%TO.C,R25*%
X139425000Y-62600000D03*
X141075000Y-62600000D03*
%TD*%
D34*
%TO.C,C203*%
X146880000Y-116917911D03*
X145920000Y-116917911D03*
%TD*%
D26*
%TO.C,C220*%
X142200000Y-123497911D03*
X142200000Y-122537911D03*
%TD*%
D21*
%TO.C,R49*%
X168825977Y-68000000D03*
X170475977Y-68000000D03*
%TD*%
D23*
%TO.C,C85*%
X167100000Y-71300000D03*
X167100000Y-72260000D03*
%TD*%
D34*
%TO.C,C126*%
X162930978Y-116675004D03*
X161970978Y-116675004D03*
%TD*%
D26*
%TO.C,C66*%
X169600001Y-95505001D03*
X169600001Y-94545001D03*
%TD*%
D29*
%TO.C,C206*%
X137200000Y-117517911D03*
X138750000Y-117517911D03*
%TD*%
D34*
%TO.C,C177*%
X146880000Y-86480000D03*
X145920000Y-86480000D03*
%TD*%
D22*
%TO.C,C145*%
X161740001Y-108100001D03*
X162700001Y-108100001D03*
%TD*%
D38*
%TO.C,R51*%
X162325000Y-72500002D03*
X160675000Y-72500002D03*
%TD*%
D34*
%TO.C,C175*%
X146880000Y-88630000D03*
X145920000Y-88630000D03*
%TD*%
D26*
%TO.C,C54*%
X138210000Y-64040000D03*
X138210000Y-63080000D03*
%TD*%
D35*
%TO.C,R97*%
X148690000Y-86695000D03*
X148690000Y-88345000D03*
%TD*%
D21*
%TO.C,R123*%
X143575000Y-126617912D03*
X145225000Y-126617912D03*
%TD*%
D22*
%TO.C,C76*%
X161740001Y-92375001D03*
X162700001Y-92375001D03*
%TD*%
D34*
%TO.C,C212*%
X146880000Y-117900000D03*
X145920000Y-117900000D03*
%TD*%
D23*
%TO.C,C62*%
X167210000Y-87020000D03*
X167210000Y-87980000D03*
%TD*%
D38*
%TO.C,R60*%
X162150000Y-119675004D03*
X160500000Y-119675004D03*
%TD*%
M02*
