M48
; DRILL file KiCad 10.0.1 date 2026-05-30T16:21:58
; FORMAT={-:-/ absolute / metric / decimal}
; #@! TF.CreationDate,2026-05-30T16:21:58+02:00
; #@! TF.GenerationSoftware,Kicad,Pcbnew,10.0.1
; #@! TF.FileFunction,Plated,1,6,PTH
FMAT,2
METRIC
; #@! TA.AperFunction,Plated,PTH,ViaDrill
T1C0.200
; #@! TA.AperFunction,Plated,PTH,ComponentDrill
T2C0.200
; #@! TA.AperFunction,Plated,PTH,ComponentDrill
T3C0.250
; #@! TA.AperFunction,Plated,PTH,ViaDrill
T4C0.300
; #@! TA.AperFunction,Plated,PTH,ViaDrill
T5C0.400
; #@! TA.AperFunction,Plated,PTH,ComponentDrill
T6C0.500
; #@! TA.AperFunction,Plated,PTH,ComponentDrill
T7C1.000
; #@! TA.AperFunction,Plated,PTH,ComponentDrill
T8C1.400
; #@! TA.AperFunction,Plated,PTH,ComponentDrill
T9C1.500
%
G90
G05
T1
X106.978Y-110.4
X107.0Y-92.3
X107.0Y-103.3
X107.059Y-88.923
X107.1Y-109.2
X107.1Y-112.6
X107.326Y-93.352
X107.326Y-106.052
X107.326Y-116.212
X107.326Y-118.752
X107.326Y-121.292
X107.326Y-123.832
X107.357Y-90.02
X107.4Y-113.8
X107.47Y-81.76
X107.47Y-82.86
X107.47Y-83.98
X107.5Y-79.5
X107.5Y-100.5
X107.5Y-101.3
X107.7Y-78.2
X107.723Y-102.477
X107.772Y-91.527
X107.9Y-95.9
X108.046Y-110.824
X108.1Y-96.6
X108.1Y-97.26
X108.1Y-108.617
X108.2Y-88.594
X108.3Y-113.4
X108.3Y-114.2
X108.353Y-81.76
X108.353Y-82.86
X108.353Y-83.98
X108.4Y-105.4
X108.5Y-88.0
X108.5Y-97.8
X108.5Y-100.0
X108.6Y-110.3
X108.6Y-112.2
X108.7Y-101.9
X108.8Y-90.3
X109.0Y-108.0
X109.216Y-104.716
X109.237Y-82.86
X109.237Y-83.98
X109.4Y-103.9
X109.5Y-88.0
X109.5Y-109.9
X109.8Y-98.0
X109.866Y-90.812
X109.866Y-93.352
X109.866Y-95.892
X109.866Y-106.052
X109.866Y-116.212
X109.866Y-118.752
X109.866Y-121.292
X109.866Y-123.832
X110.1Y-135.4
X110.12Y-82.86
X110.12Y-83.98
X110.2Y-101.9
X110.2Y-126.4
X110.2Y-128.912
X110.2Y-131.5
X110.2Y-136.4
X110.4Y-113.0
X110.5Y-100.0
X110.6Y-110.3
X110.7Y-86.4
X110.8Y-98.0
X110.825Y-137.0
X110.9Y-103.9
X111.0Y-89.0
X111.1Y-95.9
X111.1Y-108.0
X111.353Y-87.013
X111.4Y-85.8
X111.5Y-106.052
X111.6Y-101.9
X111.6Y-109.8
X111.7Y-62.2
X111.7Y-114.3
X111.8Y-98.0
X112.035Y-86.422
X112.145Y-137.0
X112.2Y-90.2
X112.406Y-67.952
X112.406Y-70.492
X112.406Y-73.032
X112.406Y-123.832
X112.406Y-126.372
X112.406Y-128.912
X112.7Y-118.8
X112.8Y-87.2
X112.8Y-111.0
X112.8Y-115.5
X113.0Y-97.3
X113.2Y-84.3
X113.466Y-137.0
X113.5Y-107.1
X113.6Y-121.1
X113.8Y-88.6
X113.9Y-102.2
X114.0Y-93.9
X114.2Y-116.7
X114.3Y-112.4
X114.4Y-83.1
X114.4Y-98.0
X114.5Y-85.6
X114.7Y-94.5
X114.787Y-137.0
X114.9Y-93.0
X114.946Y-67.952
X114.946Y-70.492
X114.946Y-73.032
X114.946Y-126.372
X114.946Y-128.912
X114.946Y-131.452
X115.1Y-96.9
X115.1Y-110.3
X115.3Y-62.2
X115.3Y-107.5
X115.6Y-93.7
X115.6Y-113.7
X115.6Y-118.6
X115.7Y-97.9
X115.7Y-99.6
X115.8Y-96.1
X115.8Y-110.9
X116.0Y-102.2
X116.0Y-103.2
X116.1Y-122.0
X116.108Y-137.0
X116.3Y-81.5
X116.5Y-92.9
X116.5Y-104.2
X116.5Y-111.5
X116.6Y-96.9
X116.7Y-95.2
X116.9Y-85.8
X117.1Y-99.2
X117.2Y-120.0
X117.3Y-104.9
X117.429Y-137.0
X117.486Y-62.872
X117.486Y-83.192
X117.486Y-95.892
X117.486Y-100.972
X117.486Y-103.512
X117.486Y-113.672
X117.486Y-128.912
X117.486Y-131.452
X117.486Y-133.992
X117.5Y-115.4
X117.6Y-81.0
X117.6Y-123.6
X117.7Y-90.1
X117.8Y-94.1
X118.1Y-98.2
X118.3Y-90.8
X118.3Y-105.8
X118.5Y-85.8
X118.6Y-94.8
X118.8Y-121.7
X118.9Y-97.3
X119.0Y-81.0
X119.1Y-90.1
X119.1Y-106.5
X119.2Y-125.2
X119.5Y-114.9
X119.7Y-117.4
X119.8Y-89.5
X119.9Y-96.3
X119.9Y-107.2
X120.026Y-83.192
X120.026Y-88.272
X120.026Y-98.432
X120.026Y-100.972
X120.026Y-103.512
X120.026Y-121.292
X120.026Y-134.35
X120.026Y-136.532
X120.1Y-85.8
X120.1Y-130.85
X120.1Y-132.025
X120.1Y-133.2
X120.2Y-92.7
X120.4Y-81.0
X120.4Y-123.2
X120.6Y-89.0
X120.7Y-108.0
X121.0Y-116.2
X121.0Y-118.9
X121.15Y-132.025
X121.2Y-125.6
X121.2Y-133.2
X121.5Y-88.0
X121.6Y-94.5
X121.8Y-81.0
X122.2Y-132.025
X122.3Y-133.2
X122.566Y-62.872
X122.566Y-100.972
X122.566Y-103.512
X122.566Y-106.052
X122.566Y-108.592
X122.566Y-118.752
X122.566Y-123.9
X122.566Y-126.372
X122.566Y-134.35
X122.566Y-136.532
X122.7Y-125.6
X123.0Y-120.6
X123.3Y-94.1
X123.45Y-70.1
X123.45Y-71.15
X123.5Y-85.9
X123.6Y-87.6
X123.8Y-90.4
X123.9Y-80.3
X124.2Y-125.6
X124.78Y-114.6
X124.8Y-113.6
X124.862Y-94.1
X125.0Y-120.6
X125.106Y-106.052
X125.106Y-111.132
X125.106Y-126.372
X125.106Y-136.532
X125.277Y-123.9
X125.4Y-86.0
X125.682Y-87.7
X125.7Y-125.6
X125.955Y-115.655
X126.03Y-98.42
X126.1Y-95.0
X126.7Y-84.0
X126.8Y-83.0
X126.8Y-90.4
X126.8Y-116.4
X126.9Y-120.6
X127.0Y-89.0
X127.646Y-62.872
X127.989Y-123.9
X128.0Y-85.9
X128.04Y-95.54
X128.1Y-80.4
X128.4Y-120.6
X128.8Y-116.4
X128.81Y-97.1
X128.9Y-79.5
X128.9Y-134.1
X128.984Y-77.167
X129.0Y-80.4
X129.0Y-135.1
X129.1Y-78.8
X129.3Y-84.0
X129.3Y-90.6
X129.5Y-119.7
X129.745Y-120.313
X130.186Y-67.952
X130.186Y-70.492
X130.2Y-69.8
X130.35Y-101.45
X130.4Y-100.4
X130.4Y-119.2
X130.6Y-88.4
X130.6Y-89.1
X130.69Y-99.098
X130.7Y-120.8
X130.7Y-123.9
X130.9Y-116.4
X131.185Y-89.585
X131.25Y-99.1
X131.4Y-88.4
X131.5Y-100.5
X131.98Y-88.91
X132.6Y-64.0
X132.726Y-62.872
X132.85Y-83.225
X133.4Y-80.8
X133.5Y-84.1
X133.6Y-73.5
X133.65Y-95.1
X133.7Y-123.9
X133.9Y-65.3
X133.9Y-68.1
X134.0Y-81.0
X134.1Y-69.9
X134.25Y-83.25
X134.7Y-81.0
X134.721Y-74.348
X134.764Y-96.564
X134.8Y-71.65
X134.8Y-103.2
X134.9Y-70.0
X134.9Y-116.3
X134.95Y-70.984
X135.2Y-102.5
X135.266Y-62.872
X135.4Y-78.489
X135.5Y-77.016
X135.692Y-79.692
X135.7Y-98.4
X135.742Y-80.24
X135.9Y-74.3
X136.0Y-111.0
X136.15Y-83.65
X136.2Y-110.1
X136.5Y-69.9
X136.5Y-100.1
X136.6Y-81.1
X136.7Y-68.95
X136.8Y-64.1
X136.8Y-84.1
X137.1Y-74.4
X137.1Y-100.2
X137.2Y-112.0
X137.257Y-71.801
X137.4Y-80.9
X137.4Y-97.8
X137.45Y-63.1
X137.45Y-65.2
X137.5Y-98.4
X137.65Y-76.0
X137.65Y-76.516
X137.65Y-94.4
X137.8Y-66.5
X137.806Y-128.912
X137.806Y-131.452
X137.806Y-133.992
X137.806Y-136.532
X137.9Y-73.8
X137.991Y-80.63
X138.025Y-65.875
X138.1Y-76.25
X138.12Y-64.62
X138.4Y-111.9
X138.4Y-123.7
X138.437Y-122.7
X138.7Y-81.7
X138.958Y-73.742
X139.0Y-70.3
X139.08Y-67.86
X139.114Y-69.179
X139.211Y-68.524
X139.3Y-71.7
X139.5Y-80.8
X139.616Y-74.75
X139.9Y-64.0
X140.0Y-111.7
X140.3Y-92.9
X140.346Y-131.452
X140.346Y-133.992
X140.346Y-136.532
X140.491Y-123.909
X140.5Y-63.95
X140.7Y-111.688
X140.727Y-77.091
X141.077Y-65.643
X141.262Y-74.332
X141.308Y-77.424
X141.4Y-92.7
X141.4Y-111.8
X141.4Y-124.1
X141.5Y-97.19
X141.5Y-97.95
X141.55Y-99.6
X141.58Y-98.81
X141.618Y-74.891
X141.65Y-64.05
X141.65Y-64.65
X141.79Y-103.9
X141.8Y-111.4
X141.8Y-125.1
X141.8Y-127.5
X141.8Y-129.3
X141.9Y-78.3
X141.9Y-80.4
X141.9Y-110.3
X141.9Y-110.9
X141.94Y-92.56
X141.94Y-124.078
X142.015Y-79.8
X142.1Y-73.8
X142.127Y-78.754
X142.15Y-63.75
X142.199Y-74.576
X142.4Y-131.5
X142.408Y-77.208
X142.791Y-63.791
X142.886Y-133.992
X143.415Y-92.53
X143.415Y-124.048
X143.5Y-124.9
X143.554Y-74.3
X143.7Y-75.4
X143.7Y-109.4
X143.7Y-129.9
X143.8Y-98.7
X143.9Y-64.2
X143.9Y-76.9
X143.97Y-92.53
X143.97Y-124.048
X144.0Y-64.8
X144.5Y-81.0
X144.5Y-108.1
X144.5Y-132.1
X144.93Y-67.07
X145.336Y-66.549
X145.426Y-106.052
X145.426Y-133.992
X145.426Y-136.532
X145.467Y-98.7
X145.5Y-75.8
X145.5Y-107.0
X145.787Y-70.561
X145.8Y-92.0
X145.8Y-123.518
X145.87Y-69.47
X145.9Y-124.3
X145.915Y-67.775
X145.915Y-68.445
X145.924Y-82.7
X145.924Y-114.218
X146.44Y-69.91
X146.7Y-61.9
X146.8Y-91.0
X146.8Y-122.518
X146.8Y-128.9
X146.8Y-132.1
X146.9Y-106.9
X146.93Y-89.533
X146.95Y-83.75
X146.95Y-115.268
X147.1Y-74.4
X147.115Y-84.684
X147.115Y-116.202
X147.133Y-98.7
X147.4Y-72.1
X147.45Y-119.225
X147.45Y-120.0
X147.469Y-87.585
X147.475Y-117.9
X147.485Y-88.245
X147.518Y-65.066
X147.57Y-86.4
X147.575Y-122.1
X147.58Y-89.649
X147.85Y-63.25
X147.966Y-128.912
X147.966Y-133.992
X147.966Y-136.532
X148.004Y-89.144
X148.025Y-121.051
X148.174Y-67.606
X148.217Y-90.177
X148.249Y-121.672
X148.59Y-120.711
X148.599Y-65.546
X148.6Y-132.1
X148.8Y-63.5
X148.8Y-98.7
X148.817Y-67.457
X149.0Y-128.4
X149.34Y-118.7
X149.463Y-67.594
X149.6Y-64.491
X149.821Y-66.463
X149.91Y-105.52
X150.2Y-97.0
X150.25Y-89.125
X150.335Y-66.946
X150.4Y-129.2
X150.5Y-75.1
X150.5Y-97.7
X150.5Y-133.1
X150.506Y-133.992
X150.6Y-79.6
X150.6Y-112.2
X150.7Y-82.1
X151.1Y-97.0
X151.2Y-128.4
X151.4Y-68.3
X151.6Y-120.1
X151.8Y-113.6
X151.9Y-70.2
X151.9Y-71.05
X151.9Y-71.9
X151.9Y-75.1
X152.1Y-121.1
X152.2Y-106.5
X152.4Y-120.3
X152.6Y-134.3
X152.7Y-125.9
X152.8Y-93.384
X152.8Y-113.6
X152.84Y-92.34
X152.84Y-123.858
X152.9Y-94.4
X153.046Y-62.872
X153.046Y-136.532
X153.3Y-106.5
X153.3Y-120.3
X153.4Y-82.1
X153.9Y-74.9
X153.9Y-113.6
X154.0Y-134.5
X154.05Y-103.4
X154.1Y-77.9
X154.2Y-120.3
X154.4Y-106.5
X155.0Y-108.1
X155.333Y-103.4
X155.5Y-74.9
X155.5Y-106.5
X155.586Y-73.032
X155.586Y-136.532
X155.8Y-120.2
X155.825Y-134.5
X156.2Y-91.7
X156.2Y-123.2
X156.3Y-101.2
X156.3Y-132.8
X156.44Y-98.97
X156.44Y-130.488
X156.617Y-103.4
X156.8Y-81.7
X156.8Y-123.5
X157.154Y-113.2
X157.65Y-134.5
X157.9Y-103.4
X157.931Y-79.7
X157.95Y-111.55
X158.027Y-113.2
X158.126Y-62.872
X158.126Y-70.492
X158.126Y-73.032
X158.126Y-80.652
X158.15Y-81.7
X158.3Y-127.3
X158.368Y-108.4
X158.5Y-96.1
X158.55Y-88.67
X158.55Y-120.1
X158.56Y-121.7
X158.854Y-79.7
X158.9Y-113.2
X159.0Y-103.67
X159.15Y-111.55
X159.2Y-91.27
X159.4Y-108.4
X159.4Y-123.7
X159.475Y-134.5
X159.5Y-81.7
X159.6Y-129.8
X159.777Y-79.7
X159.8Y-77.0
X159.847Y-106.937
X159.855Y-91.354
X159.9Y-97.9
X159.9Y-126.9
X160.0Y-75.8
X160.1Y-75.2
X160.14Y-92.42
X160.14Y-122.99
X160.141Y-122.459
X160.162Y-123.65
X160.185Y-91.009
X160.22Y-108.16
X160.264Y-106.684
X160.268Y-91.65
X160.276Y-107.164
X160.495Y-121.82
X160.5Y-73.85
X160.6Y-95.4
X160.671Y-137.0
X160.7Y-128.2
X160.89Y-108.49
X160.91Y-124.13
X160.99Y-74.43
X161.01Y-92.68
X161.033Y-126.9
X161.3Y-134.5
X161.5Y-118.85
X161.6Y-95.4
X161.8Y-129.2
X161.992Y-137.0
X162.167Y-126.9
X162.2Y-109.3
X162.27Y-86.87
X162.3Y-133.5
X162.9Y-111.3
X162.9Y-113.5
X162.95Y-115.55
X163.0Y-82.1
X163.0Y-109.3
X163.1Y-119.85
X163.2Y-72.7
X163.2Y-133.1
X163.206Y-62.872
X163.206Y-133.992
X163.3Y-126.9
X163.3Y-130.3
X163.313Y-137.0
X163.35Y-88.25
X163.427Y-77.088
X163.427Y-92.813
X163.427Y-108.538
X163.427Y-124.263
X163.6Y-104.2
X163.691Y-76.31
X163.691Y-92.035
X163.691Y-107.76
X163.691Y-123.485
X163.7Y-83.95
X163.7Y-101.5
X163.8Y-119.2
X163.878Y-87.535
X163.9Y-103.1
X164.1Y-71.849
X164.3Y-129.5
X164.3Y-130.3
X164.4Y-83.3
X164.4Y-133.1
X164.634Y-137.0
X164.8Y-71.2
X164.8Y-86.925
X164.8Y-102.65
X164.8Y-118.375
X164.87Y-82.57
X164.87Y-114.02
X164.9Y-114.8
X165.2Y-97.9
X165.2Y-129.35
X165.2Y-130.2
X165.337Y-102.235
X165.342Y-117.998
X165.6Y-133.1
X165.7Y-115.6
X165.746Y-133.992
X165.751Y-70.781
X165.955Y-137.0
X165.99Y-102.33
X166.092Y-82.815
X166.092Y-114.265
X166.1Y-80.5
X166.1Y-96.225
X166.1Y-111.95
X166.1Y-127.675
X166.131Y-86.817
X166.29Y-98.27
X166.29Y-129.72
X166.5Y-129.0
X166.8Y-133.1
X166.9Y-114.2
X167.1Y-70.6
X167.1Y-80.5
X167.1Y-86.325
X167.1Y-96.225
X167.1Y-102.05
X167.1Y-111.95
X167.1Y-117.775
X167.1Y-127.675
X167.22Y-84.374
X167.22Y-115.6
X167.275Y-137.0
X168.0Y-129.4
X168.0Y-132.0
X168.286Y-62.872
X168.286Y-133.992
X168.5Y-130.9
X168.596Y-137.0
X168.6Y-70.6
X168.6Y-86.325
X168.6Y-102.05
X168.6Y-117.775
X169.584Y-70.6
X169.584Y-118.527
X169.584Y-86.465
X169.584Y-102.19
X169.584Y-117.775
X169.6Y-71.4
X169.6Y-80.5
X169.6Y-87.125
X169.6Y-96.225
X169.6Y-102.85
X169.6Y-111.95
X169.6Y-127.675
X169.917Y-137.0
X170.826Y-133.992
X171.238Y-137.0
X171.321Y-66.22
X171.47Y-99.53
X171.48Y-82.23
X171.49Y-98.06
X171.495Y-83.725
X171.54Y-116.36
X171.58Y-115.21
X171.65Y-113.87
X171.67Y-68.04
X171.69Y-69.07
X171.695Y-101.446
X171.7Y-71.1
X171.7Y-100.786
X171.8Y-70.0
X171.8Y-85.6
X171.8Y-86.6
X171.8Y-102.366
X171.8Y-118.4
X171.9Y-117.2
X171.943Y-84.685
X172.558Y-137.0
X172.84Y-101.47
X172.851Y-85.821
X172.92Y-111.24
X173.366Y-131.452
X173.366Y-133.992
X173.4Y-117.3
X173.47Y-100.89
X173.61Y-70.33
X173.67Y-78.03
X173.68Y-110.56
X173.75Y-126.27
X173.773Y-75.382
X173.8Y-94.8
X173.826Y-79.1
X173.86Y-88.48
X173.879Y-137.0
X173.88Y-71.075
X173.88Y-118.25
X173.91Y-102.51
X174.03Y-86.81
X174.1Y-85.17
X174.2Y-78.01
X174.33Y-75.38
X174.8Y-124.8
X174.93Y-101.45
X174.95Y-122.9
X174.97Y-110.88
X175.1Y-106.9
X175.2Y-137.0
X175.31Y-77.65
X175.5Y-109.15
X175.54Y-124.73
X175.55Y-93.35
X175.62Y-122.9
X175.906Y-62.872
X175.95Y-75.8
X176.02Y-109.02
X176.46Y-112.26
X176.528Y-70.642
X176.6Y-124.73
X176.68Y-122.9
X177.0Y-93.25
X177.02Y-91.27
X177.04Y-75.86
X177.04Y-77.65
X177.04Y-107.31
X177.08Y-109.02
X177.11Y-71.76
X177.28Y-115.7
X177.38Y-124.73
X177.46Y-122.9
X177.78Y-93.25
X177.8Y-91.27
X177.82Y-75.86
X177.82Y-77.65
X177.82Y-107.31
X177.86Y-109.02
X177.9Y-72.24
X178.3Y-98.77
X178.446Y-62.872
X178.446Y-65.412
X178.446Y-67.952
X178.446Y-100.972
X178.446Y-103.512
X178.446Y-116.212
X178.446Y-118.752
X178.446Y-128.912
X178.446Y-131.452
X178.446Y-133.992
X178.446Y-136.532
X178.91Y-91.35
X178.91Y-93.4
X178.934Y-107.15
X178.934Y-109.1
X178.95Y-75.6
X178.964Y-122.85
X178.974Y-124.85
X179.01Y-77.7
X179.656Y-91.35
X179.656Y-93.4
X179.68Y-107.15
X179.68Y-109.1
X179.696Y-75.6
X179.71Y-122.85
X179.72Y-124.85
X179.756Y-77.7
X179.815Y-82.565
X180.72Y-91.35
X180.72Y-93.4
X180.744Y-107.15
X180.744Y-109.1
X180.76Y-75.6
X180.774Y-122.85
X180.784Y-124.85
X180.82Y-77.7
X180.986Y-88.272
X180.986Y-103.512
X180.986Y-118.752
X181.0Y-81.258
X181.0Y-82.579
X181.0Y-83.9
X181.0Y-85.221
X181.1Y-62.4
X181.1Y-63.743
X181.1Y-65.086
X181.1Y-66.429
X181.1Y-67.771
X181.1Y-69.114
X181.1Y-70.457
X181.1Y-71.8
X181.1Y-96.758
X181.1Y-98.079
X181.1Y-99.4
X181.1Y-100.721
X181.6Y-112.558
X181.6Y-113.879
X181.6Y-115.2
X181.6Y-116.521
X181.7Y-128.5
X181.7Y-129.821
X181.7Y-131.142
X181.7Y-132.462
X181.7Y-133.783
X181.7Y-135.104
X181.7Y-136.425
T2
X139.205Y-84.2
X139.205Y-85.42
X139.205Y-86.66
X139.205Y-87.9
X139.205Y-89.14
X139.205Y-90.4
X139.205Y-115.718
X139.205Y-116.938
X139.205Y-118.178
X139.205Y-119.418
X139.205Y-120.658
X139.205Y-121.918
X140.355Y-84.2
X140.355Y-85.44
X140.355Y-86.68
X140.355Y-87.92
X140.355Y-89.16
X140.355Y-90.4
X140.355Y-115.718
X140.355Y-116.958
X140.355Y-118.198
X140.355Y-119.438
X140.355Y-120.678
X140.355Y-121.918
X141.595Y-84.2
X141.595Y-85.44
X141.595Y-86.68
X141.595Y-87.92
X141.595Y-89.16
X141.595Y-90.4
X141.595Y-115.718
X141.595Y-116.958
X141.595Y-118.198
X141.595Y-119.438
X141.595Y-120.678
X141.595Y-121.918
X142.835Y-84.2
X142.835Y-85.44
X142.835Y-86.68
X142.835Y-87.92
X142.835Y-89.16
X142.835Y-90.4
X142.835Y-115.718
X142.835Y-116.958
X142.835Y-118.198
X142.835Y-119.438
X142.835Y-120.678
X142.835Y-121.918
X144.075Y-84.18
X144.075Y-85.42
X144.075Y-86.66
X144.075Y-87.9
X144.075Y-89.14
X144.075Y-90.38
X144.075Y-115.698
X144.075Y-116.938
X144.075Y-118.178
X144.075Y-119.418
X144.075Y-120.658
X144.075Y-121.898
X145.205Y-84.2
X145.205Y-85.42
X145.205Y-86.66
X145.205Y-87.9
X145.205Y-89.14
X145.205Y-90.4
X145.205Y-115.718
X145.205Y-116.938
X145.205Y-118.178
X145.205Y-119.418
X145.205Y-120.658
X145.205Y-121.918
T3
X165.251Y-74.3
X165.251Y-75.6
X165.251Y-76.9
X165.251Y-90.025
X165.251Y-91.325
X165.251Y-92.625
X165.251Y-105.75
X165.251Y-107.05
X165.251Y-108.35
X165.251Y-121.475
X165.251Y-122.775
X165.251Y-124.075
X166.551Y-73.0
X166.551Y-74.3
X166.551Y-75.6
X166.551Y-76.9
X166.551Y-78.2
X166.551Y-88.725
X166.551Y-90.025
X166.551Y-91.325
X166.551Y-92.625
X166.551Y-93.925
X166.551Y-104.45
X166.551Y-105.75
X166.551Y-107.05
X166.551Y-108.35
X166.551Y-109.65
X166.551Y-120.175
X166.551Y-121.475
X166.551Y-122.775
X166.551Y-124.075
X166.551Y-125.375
X167.851Y-73.0
X167.851Y-74.3
X167.851Y-75.6
X167.851Y-76.9
X167.851Y-78.2
X167.851Y-88.725
X167.851Y-90.025
X167.851Y-91.325
X167.851Y-92.625
X167.851Y-93.925
X167.851Y-104.45
X167.851Y-105.75
X167.851Y-107.05
X167.851Y-108.35
X167.851Y-109.65
X167.851Y-120.175
X167.851Y-121.475
X167.851Y-122.775
X167.851Y-124.075
X167.851Y-125.375
X169.151Y-73.0
X169.151Y-74.3
X169.151Y-75.6
X169.151Y-76.9
X169.151Y-78.2
X169.151Y-88.725
X169.151Y-90.025
X169.151Y-91.325
X169.151Y-92.625
X169.151Y-93.925
X169.151Y-104.45
X169.151Y-105.75
X169.151Y-107.05
X169.151Y-108.35
X169.151Y-109.65
X169.151Y-120.175
X169.151Y-121.475
X169.151Y-122.775
X169.151Y-124.075
X169.151Y-125.375
X170.451Y-74.3
X170.451Y-75.6
X170.451Y-76.9
X170.451Y-90.025
X170.451Y-91.325
X170.451Y-92.625
X170.451Y-105.75
X170.451Y-107.05
X170.451Y-108.35
X170.451Y-121.475
X170.451Y-122.775
X170.451Y-124.075
T4
X126.3Y-72.09
X136.1Y-120.3
X136.22Y-85.997
X136.25Y-117.568
X136.3Y-88.6
X140.7Y-80.9
X140.7Y-112.418
X140.91Y-94.17
X141.924Y-82.1
X141.924Y-113.618
X143.551Y-82.0
X143.551Y-113.518
X144.222Y-82.013
X144.222Y-113.531
X150.662Y-78.862
X150.662Y-110.38
X150.7Y-111.4
X150.724Y-80.3
X154.124Y-77.1
X154.124Y-108.618
X155.347Y-85.5
X155.347Y-117.018
X155.447Y-86.8
X155.447Y-118.318
X159.147Y-83.3
X159.147Y-114.75
X172.5Y-64.2
X173.0Y-74.1
X173.0Y-105.55
X173.0Y-121.275
X173.1Y-90.825
X173.1Y-75.1
X173.1Y-106.55
X173.1Y-122.275
X173.2Y-89.6
T5
X111.8Y-77.4
X115.0Y-123.8
X115.3Y-77.4
X117.2Y-126.1
X118.1Y-64.7
X118.8Y-77.4
X119.9Y-129.2
X120.2Y-128.3
X120.8Y-64.7
X121.0Y-127.9
X121.8Y-78.6
X121.9Y-75.3
X121.9Y-77.0
X123.494Y-75.253
X123.53Y-97.52
X123.55Y-76.93
X123.55Y-78.6
X124.89Y-98.68
X126.217Y-78.74
X127.1Y-78.74
X127.61Y-136.02
X127.63Y-137.09
X128.1Y-98.0
X128.4Y-99.2
X129.58Y-136.02
X129.6Y-137.09
X130.7Y-76.6
X131.5Y-105.6
X131.55Y-136.02
X131.57Y-137.09
X131.9Y-76.946
X132.9Y-76.946
X133.5Y-105.6
X133.52Y-136.02
X133.54Y-137.09
X134.0Y-76.8
X135.49Y-127.27
X135.49Y-129.03
X135.49Y-130.79
X135.49Y-132.55
X135.49Y-134.31
X135.49Y-136.02
X135.51Y-137.09
X135.6Y-105.6
X135.7Y-107.5
X137.6Y-104.9
X152.7Y-74.4
T6
X119.9Y-62.52
X125.9Y-62.52
X130.7Y-62.52
X137.9Y-68.8
X142.7Y-136.17
X150.503Y-136.17
X151.0Y-62.52
X157.3Y-89.3
X157.47Y-105.4
X157.47Y-120.97
X157.5Y-74.6
X158.307Y-136.3
X161.45Y-62.52
X170.68Y-131.6
T7
X120.8Y-67.5
X123.34Y-67.5
X125.88Y-67.5
X128.42Y-67.5
T8
X126.973Y-105.72
T9
X124.423Y-103.17
X124.423Y-108.27
X129.523Y-103.17
X129.523Y-108.27
M30
