%TF.GenerationSoftware,KiCad,Pcbnew,8.0.8*%
%TF.CreationDate,2025-02-03T01:07:07+01:00*%
%TF.ProjectId,RASBB,52415342-422e-46b6-9963-61645f706362,01*%
%TF.SameCoordinates,Original*%
%TF.FileFunction,Soldermask,Bot*%
%TF.FilePolarity,Negative*%
%FSLAX46Y46*%
G04 Gerber Fmt 4.6, Leading zero omitted, Abs format (unit mm)*
G04 Created by KiCad (PCBNEW 8.0.8) date 2025-02-03 01:07:07*
%MOMM*%
%LPD*%
G01*
G04 APERTURE LIST*
G04 Aperture macros list*
%AMRoundRect*
0 Rectangle with rounded corners*
0 $1 Rounding radius*
0 $2 $3 $4 $5 $6 $7 $8 $9 X,Y pos of 4 corners*
0 Add a 4 corners polygon primitive as box body*
4,1,4,$2,$3,$4,$5,$6,$7,$8,$9,$2,$3,0*
0 Add four circle primitives for the rounded corners*
1,1,$1+$1,$2,$3*
1,1,$1+$1,$4,$5*
1,1,$1+$1,$6,$7*
1,1,$1+$1,$8,$9*
0 Add four rect primitives between the rounded corners*
20,1,$1+$1,$2,$3,$4,$5,0*
20,1,$1+$1,$4,$5,$6,$7,0*
20,1,$1+$1,$6,$7,$8,$9,0*
20,1,$1+$1,$8,$9,$2,$3,0*%
G04 Aperture macros list end*
%ADD10R,1.350000X1.350000*%
%ADD11O,1.350000X1.350000*%
%ADD12R,2.025000X2.025000*%
%ADD13C,2.025000*%
%ADD14C,1.700000*%
%ADD15C,1.800000*%
%ADD16C,3.250000*%
%ADD17C,1.509000*%
%ADD18C,1.300000*%
%ADD19C,2.475000*%
%ADD20C,0.600000*%
%ADD21O,2.000000X0.900000*%
%ADD22O,1.700000X0.900000*%
%ADD23C,1.600000*%
%ADD24C,0.800000*%
%ADD25O,3.200000X1.400000*%
%ADD26R,1.300000X1.100000*%
%ADD27RoundRect,0.140000X-0.140000X-0.170000X0.140000X-0.170000X0.140000X0.170000X-0.140000X0.170000X0*%
%ADD28RoundRect,0.135000X0.185000X-0.135000X0.185000X0.135000X-0.185000X0.135000X-0.185000X-0.135000X0*%
%ADD29R,1.207999X0.771200*%
%ADD30RoundRect,0.140000X-0.170000X0.140000X-0.170000X-0.140000X0.170000X-0.140000X0.170000X0.140000X0*%
%ADD31RoundRect,0.135000X0.035355X-0.226274X0.226274X-0.035355X-0.035355X0.226274X-0.226274X0.035355X0*%
%ADD32RoundRect,0.140000X-0.219203X-0.021213X-0.021213X-0.219203X0.219203X0.021213X0.021213X0.219203X0*%
%ADD33RoundRect,0.250000X-0.325000X-0.650000X0.325000X-0.650000X0.325000X0.650000X-0.325000X0.650000X0*%
%ADD34RoundRect,0.140000X0.140000X0.170000X-0.140000X0.170000X-0.140000X-0.170000X0.140000X-0.170000X0*%
%ADD35RoundRect,0.135000X0.135000X0.185000X-0.135000X0.185000X-0.135000X-0.185000X0.135000X-0.185000X0*%
%ADD36RoundRect,0.050000X-1.575000X0.890000X-1.575000X-0.890000X1.575000X-0.890000X1.575000X0.890000X0*%
%ADD37RoundRect,0.140000X0.170000X-0.140000X0.170000X0.140000X-0.170000X0.140000X-0.170000X-0.140000X0*%
%ADD38RoundRect,0.250000X0.325000X0.650000X-0.325000X0.650000X-0.325000X-0.650000X0.325000X-0.650000X0*%
%ADD39RoundRect,0.225000X-0.250000X0.225000X-0.250000X-0.225000X0.250000X-0.225000X0.250000X0.225000X0*%
%ADD40RoundRect,0.140000X0.021213X-0.219203X0.219203X-0.021213X-0.021213X0.219203X-0.219203X0.021213X0*%
%ADD41RoundRect,0.140000X0.219203X0.021213X0.021213X0.219203X-0.219203X-0.021213X-0.021213X-0.219203X0*%
%ADD42RoundRect,0.135000X-0.135000X-0.185000X0.135000X-0.185000X0.135000X0.185000X-0.135000X0.185000X0*%
%ADD43RoundRect,0.200000X0.200000X0.275000X-0.200000X0.275000X-0.200000X-0.275000X0.200000X-0.275000X0*%
%ADD44RoundRect,0.102000X2.100000X-0.350000X2.100000X0.350000X-2.100000X0.350000X-2.100000X-0.350000X0*%
%ADD45RoundRect,0.225000X-0.225000X-0.250000X0.225000X-0.250000X0.225000X0.250000X-0.225000X0.250000X0*%
%ADD46R,0.600000X1.250000*%
%ADD47R,1.520000X1.200000*%
%ADD48RoundRect,0.135000X-0.185000X0.135000X-0.185000X-0.135000X0.185000X-0.135000X0.185000X0.135000X0*%
%ADD49RoundRect,0.225000X0.225000X0.250000X-0.225000X0.250000X-0.225000X-0.250000X0.225000X-0.250000X0*%
%ADD50RoundRect,0.135000X-0.226274X-0.035355X-0.035355X-0.226274X0.226274X0.035355X0.035355X0.226274X0*%
%ADD51RoundRect,0.200000X-0.200000X-0.275000X0.200000X-0.275000X0.200000X0.275000X-0.200000X0.275000X0*%
%ADD52RoundRect,0.250000X-0.262500X-0.450000X0.262500X-0.450000X0.262500X0.450000X-0.262500X0.450000X0*%
%ADD53RoundRect,0.450000X-0.450000X-0.800000X0.450000X-0.800000X0.450000X0.800000X-0.450000X0.800000X0*%
%ADD54RoundRect,0.140000X-0.021213X0.219203X-0.219203X0.021213X0.021213X-0.219203X0.219203X-0.021213X0*%
%ADD55RoundRect,0.150000X-0.587500X-0.150000X0.587500X-0.150000X0.587500X0.150000X-0.587500X0.150000X0*%
%ADD56RoundRect,0.200000X0.275000X-0.200000X0.275000X0.200000X-0.275000X0.200000X-0.275000X-0.200000X0*%
%ADD57RoundRect,0.250000X0.475000X-0.250000X0.475000X0.250000X-0.475000X0.250000X-0.475000X-0.250000X0*%
%ADD58R,0.650000X1.550000*%
%ADD59RoundRect,0.250000X-0.250000X-0.475000X0.250000X-0.475000X0.250000X0.475000X-0.250000X0.475000X0*%
%ADD60R,0.600000X1.150000*%
%ADD61RoundRect,0.075000X0.650000X0.075000X-0.650000X0.075000X-0.650000X-0.075000X0.650000X-0.075000X0*%
%ADD62R,1.680000X1.880000*%
%ADD63RoundRect,0.200000X-0.275000X0.200000X-0.275000X-0.200000X0.275000X-0.200000X0.275000X0.200000X0*%
%ADD64R,1.309599X0.568000*%
%ADD65RoundRect,0.250000X0.250000X0.475000X-0.250000X0.475000X-0.250000X-0.475000X0.250000X-0.475000X0*%
%ADD66RoundRect,0.250000X0.650000X-0.325000X0.650000X0.325000X-0.650000X0.325000X-0.650000X-0.325000X0*%
%ADD67RoundRect,0.225000X0.250000X-0.225000X0.250000X0.225000X-0.250000X0.225000X-0.250000X-0.225000X0*%
%ADD68RoundRect,0.250000X0.625000X-0.312500X0.625000X0.312500X-0.625000X0.312500X-0.625000X-0.312500X0*%
%ADD69RoundRect,0.250000X-0.650000X-2.450000X0.650000X-2.450000X0.650000X2.450000X-0.650000X2.450000X0*%
%ADD70RoundRect,0.250000X-1.000000X-0.900000X1.000000X-0.900000X1.000000X0.900000X-1.000000X0.900000X0*%
%ADD71RoundRect,0.150000X-0.150000X0.675000X-0.150000X-0.675000X0.150000X-0.675000X0.150000X0.675000X0*%
%ADD72R,0.400000X0.500000*%
%ADD73R,0.300000X1.475000*%
%ADD74R,1.475000X0.300000*%
%ADD75R,1.475000X0.450000*%
%ADD76RoundRect,0.250000X-0.475000X0.250000X-0.475000X-0.250000X0.475000X-0.250000X0.475000X0.250000X0*%
G04 APERTURE END LIST*
D10*
%TO.C,J18*%
X121550000Y-95410000D03*
D11*
X121550000Y-93410000D03*
%TD*%
D12*
%TO.C,J9*%
X259580000Y-103160000D03*
D13*
X259580000Y-106660000D03*
%TD*%
D14*
%TO.C,J1*%
X265945000Y-51410000D03*
D15*
X261445000Y-51410000D03*
%TD*%
D16*
%TO.C,J14*%
X259505000Y-95355000D03*
X259505000Y-82655000D03*
D17*
X244265000Y-83930000D03*
X244265000Y-85960000D03*
X244265000Y-87990001D03*
X244265000Y-90020000D03*
X244265000Y-92050000D03*
X244265000Y-94080000D03*
X241725000Y-82910000D03*
X241725000Y-84930000D03*
X241725000Y-86970000D03*
X241725000Y-91050000D03*
X241725000Y-93090000D03*
X241725000Y-95100000D03*
X239185000Y-82910001D03*
X239185000Y-85450000D03*
X239185000Y-92560000D03*
X239185000Y-95100000D03*
D18*
X251375000Y-82908000D03*
X251375000Y-95102000D03*
X252845000Y-82908000D03*
X252845000Y-95102000D03*
D19*
X262685000Y-97070000D03*
X262685000Y-80940000D03*
%TD*%
D16*
%TO.C,J2*%
X259505000Y-75555500D03*
X259505000Y-62855500D03*
D17*
X244265000Y-64130500D03*
X244265000Y-66160500D03*
X244265000Y-68190500D03*
X244265000Y-70220500D03*
X244265000Y-72250500D03*
X244265000Y-74280500D03*
X241725000Y-63110500D03*
X241725000Y-65130500D03*
X241725000Y-67170500D03*
X241725000Y-71250500D03*
X241725000Y-73290500D03*
X241725000Y-75300500D03*
X239185000Y-63110500D03*
X239185000Y-65650500D03*
X239185000Y-72760500D03*
X239185000Y-75300500D03*
D18*
X251375000Y-63108500D03*
X251375000Y-75302500D03*
X252845000Y-63108500D03*
X252845000Y-75302500D03*
D19*
X262685000Y-77270500D03*
X262685000Y-61140500D03*
%TD*%
D10*
%TO.C,J16*%
X121550000Y-50550000D03*
D11*
X121550000Y-48550000D03*
%TD*%
D20*
%TO.C,J7*%
X264220000Y-118610000D03*
X264220000Y-112830000D03*
D21*
X263740000Y-120040000D03*
D22*
X267910000Y-120040000D03*
D21*
X263740000Y-111400000D03*
D22*
X267910000Y-111400000D03*
%TD*%
D18*
%TO.C,J12*%
X258870000Y-125625000D03*
D23*
X268020000Y-125625000D03*
%TD*%
D14*
%TO.C,J3*%
X249410000Y-42000000D03*
X262660000Y-38500000D03*
D24*
X260760000Y-39500000D03*
X260180000Y-40500000D03*
X259600000Y-39500000D03*
X259020000Y-40500000D03*
X258440000Y-39500000D03*
X257860000Y-40500000D03*
X257280000Y-39500000D03*
X256700000Y-40500000D03*
X256120000Y-39500000D03*
X255540000Y-40500000D03*
X254960000Y-39500000D03*
X254380000Y-40500000D03*
X253800000Y-39500000D03*
X253220000Y-40500000D03*
X252640000Y-39500000D03*
X252060000Y-40500000D03*
X251480000Y-39500000D03*
X250900000Y-40500000D03*
X250320000Y-39500000D03*
D25*
X252510000Y-43250000D03*
X261510000Y-43250000D03*
X249410000Y-36750000D03*
X258910000Y-36750000D03*
%TD*%
D26*
%TO.C,X3*%
X136200000Y-65305000D03*
X138300000Y-65305000D03*
X138300000Y-66955000D03*
X136200000Y-66955000D03*
%TD*%
D27*
%TO.C,C337*%
X151760000Y-106710000D03*
X152720000Y-106710000D03*
%TD*%
D28*
%TO.C,R166*%
X139720000Y-103900000D03*
X139720000Y-102880000D03*
%TD*%
D29*
%TO.C,U1*%
X224240000Y-52910000D03*
X220887200Y-52910000D03*
%TD*%
D30*
%TO.C,C212*%
X149570000Y-79050000D03*
X149570000Y-80010000D03*
%TD*%
D28*
%TO.C,R67*%
X252360000Y-127370000D03*
X252360000Y-126350000D03*
%TD*%
D30*
%TO.C,C143*%
X181050000Y-113020000D03*
X181050000Y-113980000D03*
%TD*%
D27*
%TO.C,C247*%
X157820000Y-63090000D03*
X158780000Y-63090000D03*
%TD*%
%TO.C,C252*%
X156920000Y-73560000D03*
X157880000Y-73560000D03*
%TD*%
D31*
%TO.C,R91*%
X136368093Y-125930966D03*
X137089341Y-125209718D03*
%TD*%
D32*
%TO.C,C97*%
X133060589Y-90310589D03*
X133739411Y-90989411D03*
%TD*%
%TO.C,C76*%
X130860589Y-87360589D03*
X131539411Y-88039411D03*
%TD*%
D30*
%TO.C,C134*%
X255502150Y-116480000D03*
X255502150Y-117440000D03*
%TD*%
D27*
%TO.C,C264*%
X150770000Y-70040000D03*
X151730000Y-70040000D03*
%TD*%
D33*
%TO.C,C181*%
X263695000Y-90540000D03*
X266645000Y-90540000D03*
%TD*%
D34*
%TO.C,C351*%
X139720000Y-100740000D03*
X138760000Y-100740000D03*
%TD*%
D30*
%TO.C,C233*%
X154790000Y-73850000D03*
X154790000Y-74810000D03*
%TD*%
D35*
%TO.C,R18*%
X195750000Y-94200000D03*
X194730000Y-94200000D03*
%TD*%
%TO.C,R24*%
X197920000Y-99680000D03*
X196900000Y-99680000D03*
%TD*%
D30*
%TO.C,C227*%
X143655000Y-79180000D03*
X143655000Y-80140000D03*
%TD*%
D35*
%TO.C,R150*%
X251900000Y-89070000D03*
X250880000Y-89070000D03*
%TD*%
D36*
%TO.C,F1*%
X266290000Y-107570000D03*
X266290000Y-102340000D03*
%TD*%
D37*
%TO.C,C231*%
X141600000Y-75480000D03*
X141600000Y-74520000D03*
%TD*%
D34*
%TO.C,C315*%
X144150000Y-106640000D03*
X143190000Y-106640000D03*
%TD*%
D38*
%TO.C,C218*%
X145815000Y-55250000D03*
X142865000Y-55250000D03*
%TD*%
D35*
%TO.C,R106*%
X196810000Y-100700000D03*
X195790000Y-100700000D03*
%TD*%
D39*
%TO.C,C3*%
X216370000Y-54130000D03*
X216370000Y-55680000D03*
%TD*%
D27*
%TO.C,C242*%
X154680000Y-65320000D03*
X155640000Y-65320000D03*
%TD*%
D40*
%TO.C,C83*%
X127260589Y-82339411D03*
X127939411Y-81660589D03*
%TD*%
D34*
%TO.C,C61*%
X164110000Y-114850000D03*
X163150000Y-114850000D03*
%TD*%
D27*
%TO.C,C293*%
X147680000Y-109360000D03*
X148640000Y-109360000D03*
%TD*%
D41*
%TO.C,C110*%
X136939411Y-115249411D03*
X136260589Y-114570589D03*
%TD*%
D38*
%TO.C,C220*%
X145815000Y-57630000D03*
X142865000Y-57630000D03*
%TD*%
D28*
%TO.C,R17*%
X191200000Y-113620000D03*
X191200000Y-112600000D03*
%TD*%
D37*
%TO.C,C301*%
X148994286Y-98400000D03*
X148994286Y-97440000D03*
%TD*%
D30*
%TO.C,C209*%
X146640000Y-67630000D03*
X146640000Y-68590000D03*
%TD*%
D34*
%TO.C,C277*%
X146930000Y-108390000D03*
X145970000Y-108390000D03*
%TD*%
D42*
%TO.C,R15*%
X194440000Y-106750000D03*
X195460000Y-106750000D03*
%TD*%
D34*
%TO.C,C281*%
X146500000Y-105620000D03*
X145540000Y-105620000D03*
%TD*%
D37*
%TO.C,C138*%
X181660000Y-93580000D03*
X181660000Y-92620000D03*
%TD*%
D42*
%TO.C,R11*%
X174660000Y-107910000D03*
X175680000Y-107910000D03*
%TD*%
D43*
%TO.C,R144*%
X257625000Y-87700000D03*
X255975000Y-87700000D03*
%TD*%
D31*
%TO.C,R90*%
X138558093Y-117960966D03*
X139279341Y-117239718D03*
%TD*%
D30*
%TO.C,C326*%
X151810000Y-109560000D03*
X151810000Y-110520000D03*
%TD*%
D32*
%TO.C,C120*%
X132319306Y-124640931D03*
X132998128Y-125319753D03*
%TD*%
D33*
%TO.C,C282*%
X156765000Y-105870000D03*
X159715000Y-105870000D03*
%TD*%
D26*
%TO.C,X4*%
X135880000Y-102235000D03*
X137980000Y-102235000D03*
X137980000Y-103885000D03*
X135880000Y-103885000D03*
%TD*%
D35*
%TO.C,R132*%
X212335000Y-92925000D03*
X211315000Y-92925000D03*
%TD*%
D37*
%TO.C,C313*%
X141420000Y-111580000D03*
X141420000Y-110620000D03*
%TD*%
D43*
%TO.C,R145*%
X257605000Y-89720000D03*
X255955000Y-89720000D03*
%TD*%
D44*
%TO.C,J4*%
X106312500Y-106700000D03*
X106312500Y-105700000D03*
X106312500Y-104700000D03*
X106312500Y-103700000D03*
X106312500Y-102700000D03*
X106312500Y-101700000D03*
X106312500Y-100700000D03*
X106312500Y-99700000D03*
X106312500Y-98700000D03*
X106312500Y-97700000D03*
X106312500Y-96700000D03*
X106312500Y-93700000D03*
X106312500Y-92700000D03*
X106312500Y-91700000D03*
X106312500Y-90700000D03*
X106312500Y-89700000D03*
X106312500Y-88700000D03*
X106312500Y-87700000D03*
X106312500Y-86700000D03*
X106312500Y-85700000D03*
X106312500Y-84700000D03*
X106312500Y-83700000D03*
X106312500Y-82700000D03*
X106312500Y-81700000D03*
X106312500Y-80700000D03*
X106312500Y-79700000D03*
X106312500Y-78700000D03*
X106312500Y-77700000D03*
X106312500Y-76700000D03*
X106312500Y-75700000D03*
X106312500Y-74700000D03*
X106312500Y-73700000D03*
X106312500Y-72700000D03*
X106312500Y-71700000D03*
X106312500Y-70700000D03*
X106312500Y-69700000D03*
X106312500Y-68700000D03*
X106312500Y-67700000D03*
X106312500Y-66700000D03*
X106312500Y-65700000D03*
X106312500Y-64700000D03*
X106312500Y-63700000D03*
X106312500Y-62700000D03*
X106312500Y-61700000D03*
X106312500Y-60700000D03*
X106312500Y-59700000D03*
X106312500Y-58700000D03*
X106312500Y-57700000D03*
X106312500Y-56700000D03*
%TD*%
D37*
%TO.C,C274*%
X148110000Y-103550000D03*
X148110000Y-102590000D03*
%TD*%
D28*
%TO.C,R19*%
X192250000Y-113560000D03*
X192250000Y-112540000D03*
%TD*%
D30*
%TO.C,C213*%
X151680000Y-79020000D03*
X151680000Y-79980000D03*
%TD*%
D37*
%TO.C,C292*%
X152350000Y-98400000D03*
X152350000Y-97440000D03*
%TD*%
D30*
%TO.C,C243*%
X153270000Y-67970000D03*
X153270000Y-68930000D03*
%TD*%
D35*
%TO.C,R55*%
X165110000Y-104100000D03*
X164090000Y-104100000D03*
%TD*%
D37*
%TO.C,C224*%
X150400000Y-61260000D03*
X150400000Y-60300000D03*
%TD*%
D45*
%TO.C,C128*%
X178025000Y-114200000D03*
X179575000Y-114200000D03*
%TD*%
D46*
%TO.C,IC3*%
X138416800Y-49644740D03*
X139366800Y-49644740D03*
X140316800Y-49644740D03*
X140316800Y-52144740D03*
X139366800Y-52144740D03*
X138416800Y-52144740D03*
%TD*%
D37*
%TO.C,C135*%
X180640000Y-93590000D03*
X180640000Y-92630000D03*
%TD*%
D47*
%TO.C,D4*%
X223665000Y-66890000D03*
X232405000Y-66890000D03*
X223665000Y-61690000D03*
X232405000Y-61690000D03*
%TD*%
D27*
%TO.C,C262*%
X150370000Y-68420000D03*
X151330000Y-68420000D03*
%TD*%
D48*
%TO.C,R82*%
X245750000Y-78030000D03*
X245750000Y-79050000D03*
%TD*%
D37*
%TO.C,C284*%
X149950000Y-108720000D03*
X149950000Y-107760000D03*
%TD*%
D49*
%TO.C,C139*%
X182585000Y-87480000D03*
X181035000Y-87480000D03*
%TD*%
D35*
%TO.C,R32*%
X238700000Y-51580000D03*
X237680000Y-51580000D03*
%TD*%
D37*
%TO.C,C307*%
X151244286Y-98400000D03*
X151244286Y-97440000D03*
%TD*%
D34*
%TO.C,C273*%
X146760000Y-103890000D03*
X145800000Y-103890000D03*
%TD*%
D38*
%TO.C,C219*%
X145815000Y-60130001D03*
X142865000Y-60130001D03*
%TD*%
D27*
%TO.C,C339*%
X151610000Y-100410000D03*
X152570000Y-100410000D03*
%TD*%
D37*
%TO.C,C348*%
X142380000Y-100470000D03*
X142380000Y-99510000D03*
%TD*%
D30*
%TO.C,C197*%
X147850000Y-67670000D03*
X147850000Y-68630000D03*
%TD*%
D27*
%TO.C,C246*%
X157800000Y-62000000D03*
X158760000Y-62000000D03*
%TD*%
D32*
%TO.C,C101*%
X133619306Y-125940931D03*
X134298128Y-126619753D03*
%TD*%
D30*
%TO.C,C316*%
X145510000Y-109840000D03*
X145510000Y-110800000D03*
%TD*%
D50*
%TO.C,R87*%
X137898752Y-82068752D03*
X138620000Y-82790000D03*
%TD*%
D28*
%TO.C,R72*%
X134210000Y-100570000D03*
X134210000Y-99550000D03*
%TD*%
D38*
%TO.C,C226*%
X139909999Y-71430000D03*
X136959999Y-71430000D03*
%TD*%
%TO.C,C74*%
X268025000Y-64525000D03*
X265075000Y-64525000D03*
%TD*%
D34*
%TO.C,C207*%
X149830000Y-69750000D03*
X148870000Y-69750000D03*
%TD*%
D30*
%TO.C,C137*%
X175760000Y-96940000D03*
X175760000Y-97900000D03*
%TD*%
%TO.C,C124*%
X244900000Y-39270000D03*
X244900000Y-40230000D03*
%TD*%
D51*
%TO.C,R143*%
X252910000Y-87730000D03*
X254560000Y-87730000D03*
%TD*%
D27*
%TO.C,C287*%
X149860000Y-106710000D03*
X150820000Y-106710000D03*
%TD*%
D52*
%TO.C,R26*%
X221690000Y-55310000D03*
X223515000Y-55310000D03*
%TD*%
D34*
%TO.C,C336*%
X152780000Y-104770000D03*
X151820000Y-104770000D03*
%TD*%
D53*
%TO.C,Y1*%
X182550000Y-90200000D03*
X186250000Y-90200000D03*
%TD*%
D37*
%TO.C,C33*%
X209280000Y-48480000D03*
X209280000Y-47520000D03*
%TD*%
D54*
%TO.C,C257*%
X154500000Y-71210000D03*
X153821178Y-71888822D03*
%TD*%
D42*
%TO.C,R21*%
X240050000Y-127070000D03*
X241070000Y-127070000D03*
%TD*%
D39*
%TO.C,C160*%
X235675000Y-113380000D03*
X235675000Y-114930000D03*
%TD*%
D54*
%TO.C,C109*%
X129070000Y-121050000D03*
X128391178Y-121728822D03*
%TD*%
D27*
%TO.C,C251*%
X157945000Y-65500000D03*
X158905000Y-65500000D03*
%TD*%
D37*
%TO.C,C299*%
X147888572Y-98400000D03*
X147888572Y-97440000D03*
%TD*%
D34*
%TO.C,C289*%
X146490000Y-106620000D03*
X145530000Y-106620000D03*
%TD*%
D31*
%TO.C,R85*%
X137109376Y-91600624D03*
X137830624Y-90879376D03*
%TD*%
D35*
%TO.C,R9*%
X171910000Y-101150000D03*
X170890000Y-101150000D03*
%TD*%
D27*
%TO.C,C333*%
X156400000Y-101950000D03*
X157360000Y-101950000D03*
%TD*%
D37*
%TO.C,C206*%
X152600000Y-60880000D03*
X152600000Y-59920000D03*
%TD*%
D31*
%TO.C,R84*%
X139299376Y-83630624D03*
X140020624Y-82909376D03*
%TD*%
D30*
%TO.C,C327*%
X154970000Y-107940000D03*
X154970000Y-108900000D03*
%TD*%
D27*
%TO.C,C200*%
X146070000Y-65170000D03*
X147030000Y-65170000D03*
%TD*%
D40*
%TO.C,C113*%
X133669306Y-112969753D03*
X134348128Y-112290931D03*
%TD*%
D37*
%TO.C,C96*%
X133550000Y-82610000D03*
X133550000Y-81650000D03*
%TD*%
D55*
%TO.C,Q1*%
X250937500Y-101972500D03*
X250937500Y-100072500D03*
X252812500Y-101022500D03*
%TD*%
D33*
%TO.C,C332*%
X156795000Y-100180000D03*
X159745000Y-100180000D03*
%TD*%
D30*
%TO.C,C285*%
X148110000Y-104470000D03*
X148110000Y-105430000D03*
%TD*%
D38*
%TO.C,C23*%
X140725000Y-43850000D03*
X137775000Y-43850000D03*
%TD*%
D37*
%TO.C,C297*%
X146782858Y-98400000D03*
X146782858Y-97440000D03*
%TD*%
%TO.C,C217*%
X149350000Y-61260000D03*
X149350000Y-60300000D03*
%TD*%
D28*
%TO.C,R122*%
X239590000Y-111720000D03*
X239590000Y-110700000D03*
%TD*%
D48*
%TO.C,R125*%
X250800000Y-124820000D03*
X250800000Y-125840000D03*
%TD*%
D27*
%TO.C,C317*%
X147600000Y-113430000D03*
X148560000Y-113430000D03*
%TD*%
D56*
%TO.C,R81*%
X254920000Y-69725000D03*
X254920000Y-68075000D03*
%TD*%
D57*
%TO.C,C187*%
X156100000Y-97600000D03*
X156100000Y-95700002D03*
%TD*%
D58*
%TO.C,IC5*%
X166775000Y-65227500D03*
X168045000Y-65227500D03*
X169315000Y-65227500D03*
X170585000Y-65227500D03*
X170585000Y-72577500D03*
X169315000Y-72577500D03*
X168045000Y-72577500D03*
X166775000Y-72577500D03*
%TD*%
D27*
%TO.C,C230*%
X147720000Y-76700000D03*
X148680000Y-76700000D03*
%TD*%
D59*
%TO.C,C305*%
X157470001Y-108140000D03*
X159369999Y-108140000D03*
%TD*%
D32*
%TO.C,C253*%
X151390000Y-64710000D03*
X152068822Y-65388822D03*
%TD*%
D30*
%TO.C,C211*%
X150610000Y-79020000D03*
X150610000Y-79980000D03*
%TD*%
D27*
%TO.C,C34*%
X136120000Y-52800000D03*
X137080000Y-52800000D03*
%TD*%
D35*
%TO.C,R75*%
X195710000Y-95600000D03*
X194690000Y-95600000D03*
%TD*%
D40*
%TO.C,C106*%
X126519306Y-116669753D03*
X127198128Y-115990931D03*
%TD*%
D60*
%TO.C,D12*%
X166180000Y-100010000D03*
X165230000Y-100010000D03*
X164280000Y-100010000D03*
X164280000Y-97410000D03*
X165230000Y-97410000D03*
X166180000Y-97410000D03*
%TD*%
D61*
%TO.C,U6*%
X261515000Y-114880000D03*
X261515000Y-115380000D03*
X261515000Y-115880000D03*
X261515000Y-116380000D03*
X261515000Y-116880000D03*
X257215000Y-116880000D03*
X257215000Y-116380000D03*
X257215000Y-115880000D03*
X257215000Y-115380000D03*
X257215000Y-114880000D03*
D62*
X259365000Y-115880000D03*
%TD*%
D32*
%TO.C,C89*%
X129810589Y-84860589D03*
X130489411Y-85539411D03*
%TD*%
D42*
%TO.C,R102*%
X185230000Y-92970000D03*
X186250000Y-92970000D03*
%TD*%
D38*
%TO.C,C26*%
X140725000Y-46300000D03*
X137775000Y-46300000D03*
%TD*%
D28*
%TO.C,R158*%
X139930000Y-66950000D03*
X139930000Y-65930000D03*
%TD*%
D30*
%TO.C,C136*%
X254500000Y-116480000D03*
X254500000Y-117440000D03*
%TD*%
D28*
%TO.C,R105*%
X175800000Y-100260000D03*
X175800000Y-99240000D03*
%TD*%
D34*
%TO.C,C239*%
X150380000Y-74600000D03*
X149420000Y-74600000D03*
%TD*%
D27*
%TO.C,C2*%
X235990000Y-103740000D03*
X236950000Y-103740000D03*
%TD*%
D63*
%TO.C,R78*%
X251750000Y-68075000D03*
X251750000Y-69725000D03*
%TD*%
D37*
%TO.C,C193*%
X146600000Y-71480000D03*
X146600000Y-70520000D03*
%TD*%
D34*
%TO.C,C201*%
X149260000Y-66750000D03*
X148300000Y-66750000D03*
%TD*%
D27*
%TO.C,C329*%
X156410000Y-111780000D03*
X157370000Y-111780000D03*
%TD*%
D32*
%TO.C,C238*%
X129069306Y-119190931D03*
X129748128Y-119869753D03*
%TD*%
D33*
%TO.C,C183*%
X263715000Y-87680000D03*
X266665000Y-87680000D03*
%TD*%
D35*
%TO.C,R53*%
X167260000Y-63422500D03*
X166240000Y-63422500D03*
%TD*%
D48*
%TO.C,R14*%
X196850000Y-105990000D03*
X196850000Y-107010000D03*
%TD*%
D37*
%TO.C,C294*%
X153455714Y-98400000D03*
X153455714Y-97440000D03*
%TD*%
%TO.C,C215*%
X147300000Y-61260000D03*
X147300000Y-60300000D03*
%TD*%
D27*
%TO.C,C280*%
X150260000Y-105730000D03*
X151220000Y-105730000D03*
%TD*%
%TO.C,C10*%
X235720000Y-51600000D03*
X236680000Y-51600000D03*
%TD*%
D30*
%TO.C,C59*%
X166800000Y-74520000D03*
X166800000Y-75480000D03*
%TD*%
D27*
%TO.C,C331*%
X156410000Y-110730000D03*
X157370000Y-110730000D03*
%TD*%
D64*
%TO.C,U2*%
X219548900Y-58124999D03*
X219548900Y-60025001D03*
X217516901Y-59075000D03*
%TD*%
D28*
%TO.C,R47*%
X141400000Y-54585000D03*
X141400000Y-53565000D03*
%TD*%
D60*
%TO.C,D11*%
X147880000Y-48510000D03*
X148830000Y-48510000D03*
X149780000Y-48510000D03*
X149780000Y-51110000D03*
X148830000Y-51110000D03*
X147880000Y-51110000D03*
%TD*%
D30*
%TO.C,C306*%
X148110000Y-110840000D03*
X148110000Y-111800000D03*
%TD*%
D27*
%TO.C,C255*%
X150970000Y-76220000D03*
X151930000Y-76220000D03*
%TD*%
D65*
%TO.C,C188*%
X160100000Y-60300000D03*
X158200000Y-60300000D03*
%TD*%
D35*
%TO.C,R151*%
X253480000Y-90170000D03*
X252460000Y-90170000D03*
%TD*%
D37*
%TO.C,C298*%
X150100000Y-98400000D03*
X150100000Y-97440000D03*
%TD*%
D59*
%TO.C,C221*%
X157260000Y-71930000D03*
X159159998Y-71930000D03*
%TD*%
D30*
%TO.C,C328*%
X154270000Y-110420000D03*
X154270000Y-111380000D03*
%TD*%
D38*
%TO.C,C304*%
X145355000Y-97690000D03*
X142405000Y-97690000D03*
%TD*%
D48*
%TO.C,R13*%
X198200000Y-106040000D03*
X198200000Y-107060000D03*
%TD*%
D37*
%TO.C,C308*%
X149500000Y-100550000D03*
X149500000Y-99590000D03*
%TD*%
D30*
%TO.C,C312*%
X144770000Y-115320000D03*
X144770000Y-116280000D03*
%TD*%
D42*
%TO.C,R127*%
X252230000Y-124980000D03*
X253250000Y-124980000D03*
%TD*%
D30*
%TO.C,C229*%
X143910000Y-76040000D03*
X143910000Y-77000000D03*
%TD*%
D37*
%TO.C,C210*%
X154600000Y-60880000D03*
X154600000Y-59920000D03*
%TD*%
D30*
%TO.C,C196*%
X144920000Y-67820000D03*
X144920000Y-68780000D03*
%TD*%
D37*
%TO.C,C346*%
X140925000Y-104105000D03*
X140925000Y-103145000D03*
%TD*%
D35*
%TO.C,R137*%
X207230000Y-93260000D03*
X206210000Y-93260000D03*
%TD*%
D48*
%TO.C,R83*%
X246920000Y-78030000D03*
X246920000Y-79050000D03*
%TD*%
D30*
%TO.C,C141*%
X195650000Y-108620000D03*
X195650000Y-109580000D03*
%TD*%
D34*
%TO.C,C75*%
X144460000Y-70000000D03*
X143500000Y-70000000D03*
%TD*%
D40*
%TO.C,C90*%
X134410589Y-78639411D03*
X135089411Y-77960589D03*
%TD*%
D30*
%TO.C,C191*%
X148910000Y-63810000D03*
X148910000Y-64770000D03*
%TD*%
D37*
%TO.C,C267*%
X140490000Y-60760000D03*
X140490000Y-59800000D03*
%TD*%
D66*
%TO.C,C199*%
X139380000Y-98165000D03*
X139380000Y-95215000D03*
%TD*%
D34*
%TO.C,C350*%
X139710000Y-99720000D03*
X138750000Y-99720000D03*
%TD*%
D32*
%TO.C,C85*%
X135021178Y-79421178D03*
X135700000Y-80100000D03*
%TD*%
D34*
%TO.C,C194*%
X149830000Y-70700000D03*
X148870000Y-70700000D03*
%TD*%
D30*
%TO.C,C222*%
X148375000Y-74770000D03*
X148375000Y-75730000D03*
%TD*%
D67*
%TO.C,C47*%
X136450000Y-51375000D03*
X136450000Y-49825000D03*
%TD*%
D30*
%TO.C,C311*%
X143700000Y-115320000D03*
X143700000Y-116280000D03*
%TD*%
D28*
%TO.C,R92*%
X132818717Y-119480342D03*
X132818717Y-118460342D03*
%TD*%
D50*
%TO.C,R93*%
X137157469Y-116399094D03*
X137878717Y-117120342D03*
%TD*%
D27*
%TO.C,C189*%
X146570000Y-72450000D03*
X147530000Y-72450000D03*
%TD*%
D37*
%TO.C,C208*%
X153600000Y-60880000D03*
X153600000Y-59920000D03*
%TD*%
%TO.C,C347*%
X144230000Y-102050000D03*
X144230000Y-101090000D03*
%TD*%
D56*
%TO.C,R80*%
X253300000Y-69725000D03*
X253300000Y-68075000D03*
%TD*%
D68*
%TO.C,R25*%
X218436000Y-55847500D03*
X218436000Y-52922500D03*
%TD*%
D38*
%TO.C,C310*%
X139555000Y-107740000D03*
X136605000Y-107740000D03*
%TD*%
D30*
%TO.C,C296*%
X150000000Y-115320000D03*
X150000000Y-116280000D03*
%TD*%
D27*
%TO.C,C258*%
X136020000Y-68400000D03*
X136980000Y-68400000D03*
%TD*%
D30*
%TO.C,C228*%
X144725000Y-79180000D03*
X144725000Y-80140000D03*
%TD*%
D41*
%TO.C,C263*%
X151300000Y-72500000D03*
X150621178Y-71821178D03*
%TD*%
D35*
%TO.C,R101*%
X257760000Y-118240000D03*
X256740000Y-118240000D03*
%TD*%
D30*
%TO.C,C300*%
X148960000Y-115320000D03*
X148960000Y-116280000D03*
%TD*%
D27*
%TO.C,C241*%
X157820000Y-64120000D03*
X158780000Y-64120000D03*
%TD*%
D38*
%TO.C,C303*%
X145355000Y-95280000D03*
X142405000Y-95280000D03*
%TD*%
D54*
%TO.C,C81*%
X132739411Y-89010589D03*
X132060589Y-89689411D03*
%TD*%
D48*
%TO.C,R96*%
X233630000Y-122800000D03*
X233630000Y-123820000D03*
%TD*%
D32*
%TO.C,C114*%
X126069306Y-118240931D03*
X126748128Y-118919753D03*
%TD*%
D42*
%TO.C,R48*%
X141674999Y-52550000D03*
X142694999Y-52550000D03*
%TD*%
D30*
%TO.C,C214*%
X152700000Y-79020000D03*
X152700000Y-79980000D03*
%TD*%
D42*
%TO.C,R157*%
X137780000Y-63790000D03*
X138800000Y-63790000D03*
%TD*%
D69*
%TO.C,C73*%
X262475000Y-69725000D03*
X267575000Y-69725000D03*
%TD*%
D27*
%TO.C,C245*%
X147595000Y-73725000D03*
X148555000Y-73725000D03*
%TD*%
D37*
%TO.C,C335*%
X154320000Y-101910000D03*
X154320000Y-100950000D03*
%TD*%
D30*
%TO.C,C234*%
X155080000Y-68030000D03*
X155080000Y-68990000D03*
%TD*%
%TO.C,C182*%
X141510000Y-66720000D03*
X141510000Y-67680000D03*
%TD*%
D33*
%TO.C,C195*%
X156805000Y-113580000D03*
X159755000Y-113580000D03*
%TD*%
D45*
%TO.C,C127*%
X178025000Y-112600000D03*
X179575000Y-112600000D03*
%TD*%
D54*
%TO.C,C79*%
X128339411Y-85110589D03*
X127660589Y-85789411D03*
%TD*%
D27*
%TO.C,C249*%
X157945000Y-66530000D03*
X158905000Y-66530000D03*
%TD*%
D58*
%TO.C,IC7*%
X164075000Y-105757500D03*
X165345000Y-105757500D03*
X166615000Y-105757500D03*
X167885000Y-105757500D03*
X167885000Y-113107500D03*
X166615000Y-113107500D03*
X165345000Y-113107500D03*
X164075000Y-113107500D03*
%TD*%
D27*
%TO.C,C275*%
X150990000Y-103570000D03*
X151950000Y-103570000D03*
%TD*%
D30*
%TO.C,C338*%
X154420000Y-105230000D03*
X154420000Y-106190000D03*
%TD*%
D70*
%TO.C,D6*%
X251224998Y-106525000D03*
X255525000Y-106525000D03*
%TD*%
D30*
%TO.C,C261*%
X150430000Y-66480000D03*
X150430000Y-67440000D03*
%TD*%
D34*
%TO.C,C235*%
X155140000Y-62900000D03*
X154180000Y-62900000D03*
%TD*%
D27*
%TO.C,C167*%
X252260000Y-123840000D03*
X253220000Y-123840000D03*
%TD*%
D32*
%TO.C,C91*%
X126810589Y-83910589D03*
X127489411Y-84589411D03*
%TD*%
D71*
%TO.C,U8*%
X234380000Y-106070000D03*
X235650000Y-106070000D03*
X236920000Y-106070000D03*
X238190000Y-106070000D03*
X238190000Y-111320000D03*
X236920000Y-111320000D03*
X235650000Y-111320000D03*
X234380000Y-111320000D03*
%TD*%
D37*
%TO.C,C290*%
X154561430Y-98400000D03*
X154561430Y-97440000D03*
%TD*%
D34*
%TO.C,C291*%
X148770000Y-106400000D03*
X147810000Y-106400000D03*
%TD*%
%TO.C,C122*%
X235318000Y-40075000D03*
X234358000Y-40075000D03*
%TD*%
D37*
%TO.C,C266*%
X141500000Y-60760000D03*
X141500000Y-59800000D03*
%TD*%
D30*
%TO.C,C353*%
X237025000Y-113105000D03*
X237025000Y-114065000D03*
%TD*%
D38*
%TO.C,C302*%
X145335000Y-92850000D03*
X142385000Y-92850000D03*
%TD*%
D32*
%TO.C,C78*%
X134360589Y-91610589D03*
X135039411Y-92289411D03*
%TD*%
D28*
%TO.C,R86*%
X133560000Y-85150000D03*
X133560000Y-84130000D03*
%TD*%
D30*
%TO.C,C123*%
X244850000Y-46570000D03*
X244850000Y-47530000D03*
%TD*%
D47*
%TO.C,D5*%
X223785000Y-77320000D03*
X232525000Y-77320000D03*
X223785000Y-72120000D03*
X232525000Y-72120000D03*
%TD*%
D32*
%TO.C,C108*%
X134279895Y-113751520D03*
X134958717Y-114430342D03*
%TD*%
D37*
%TO.C,C162*%
X239525000Y-109605000D03*
X239525000Y-108645000D03*
%TD*%
D32*
%TO.C,C232*%
X145860589Y-73590589D03*
X146539411Y-74269411D03*
%TD*%
D37*
%TO.C,C129*%
X194450000Y-109980000D03*
X194450000Y-109020000D03*
%TD*%
D30*
%TO.C,C190*%
X149500000Y-72300000D03*
X149500000Y-73260000D03*
%TD*%
D54*
%TO.C,C104*%
X131880000Y-123280000D03*
X131201178Y-123958822D03*
%TD*%
D30*
%TO.C,C362*%
X206560000Y-85020000D03*
X206560000Y-85980000D03*
%TD*%
D27*
%TO.C,C1*%
X238040000Y-127060000D03*
X239000000Y-127060000D03*
%TD*%
D54*
%TO.C,C102*%
X127598128Y-119440931D03*
X126919306Y-120119753D03*
%TD*%
D34*
%TO.C,C236*%
X153390000Y-77260000D03*
X152430000Y-77260000D03*
%TD*%
D67*
%TO.C,C44*%
X134800000Y-51375000D03*
X134800000Y-49825000D03*
%TD*%
D35*
%TO.C,R20*%
X197920000Y-96880000D03*
X196900000Y-96880000D03*
%TD*%
D27*
%TO.C,C185*%
X146420000Y-69600000D03*
X147380000Y-69600000D03*
%TD*%
D32*
%TO.C,C99*%
X130119306Y-121690931D03*
X130798128Y-122369753D03*
%TD*%
D37*
%TO.C,C119*%
X132808717Y-116940342D03*
X132808717Y-115980342D03*
%TD*%
D30*
%TO.C,C330*%
X155000000Y-115000000D03*
X155000000Y-115960000D03*
%TD*%
D27*
%TO.C,C334*%
X156400000Y-103040000D03*
X157360000Y-103040000D03*
%TD*%
D34*
%TO.C,C132*%
X189200000Y-93400000D03*
X188240000Y-93400000D03*
%TD*%
D63*
%TO.C,R79*%
X250170000Y-68075000D03*
X250170000Y-69725000D03*
%TD*%
D37*
%TO.C,C205*%
X148470000Y-72580000D03*
X148470000Y-71620000D03*
%TD*%
D30*
%TO.C,C39*%
X133340100Y-50120000D03*
X133340100Y-51080000D03*
%TD*%
%TO.C,C295*%
X151060000Y-115320000D03*
X151060000Y-116280000D03*
%TD*%
D35*
%TO.C,R133*%
X207230000Y-91600000D03*
X206210000Y-91600000D03*
%TD*%
D48*
%TO.C,R126*%
X249690000Y-124820000D03*
X249690000Y-125840000D03*
%TD*%
D30*
%TO.C,C254*%
X152700000Y-70270000D03*
X152700000Y-71230000D03*
%TD*%
D27*
%TO.C,C342*%
X135300000Y-100570000D03*
X136260000Y-100570000D03*
%TD*%
D37*
%TO.C,C216*%
X148310000Y-61260000D03*
X148310000Y-60300000D03*
%TD*%
D35*
%TO.C,R23*%
X197920000Y-98470000D03*
X196900000Y-98470000D03*
%TD*%
D57*
%TO.C,C184*%
X156200000Y-60549999D03*
X156200000Y-58650001D03*
%TD*%
D37*
%TO.C,C278*%
X149570000Y-104630000D03*
X149570000Y-103670000D03*
%TD*%
D72*
%TO.C,FB1*%
X188055000Y-90910470D03*
X188855000Y-90910470D03*
%TD*%
D73*
%TO.C,IC12*%
X179160000Y-95192000D03*
X179660000Y-95192000D03*
X180160000Y-95192000D03*
X180660000Y-95192000D03*
X181160000Y-95192000D03*
X181660000Y-95192000D03*
X182160000Y-95192000D03*
X182660000Y-95192000D03*
X183160000Y-95192000D03*
X183660000Y-95192000D03*
X184160000Y-95192000D03*
X184660000Y-95192000D03*
X185160000Y-95192000D03*
X185660000Y-95192000D03*
X186160000Y-95192000D03*
X186660000Y-95192000D03*
X187160000Y-95192000D03*
X187660000Y-95192000D03*
X188160000Y-95192000D03*
X188660000Y-95192000D03*
X189160000Y-95192000D03*
X189660000Y-95192000D03*
X190160000Y-95192000D03*
X190660000Y-95192000D03*
X191160000Y-95192000D03*
D74*
X192898000Y-96930000D03*
X192898000Y-97430000D03*
X192898000Y-97930000D03*
X192898000Y-98430000D03*
X192898000Y-98930000D03*
X192898000Y-99430000D03*
X192898000Y-99930000D03*
X192898000Y-100430000D03*
X192898000Y-100930000D03*
X192898000Y-101430000D03*
X192898000Y-101930000D03*
X192898000Y-102430000D03*
X192898000Y-102930000D03*
X192898000Y-103430000D03*
X192898000Y-103930000D03*
X192898000Y-104430000D03*
X192898000Y-104930000D03*
X192898000Y-105430000D03*
X192898000Y-105930000D03*
X192898000Y-106430000D03*
X192898000Y-106930000D03*
X192898000Y-107430000D03*
X192898000Y-107930000D03*
X192898000Y-108430000D03*
X192898000Y-108930000D03*
D73*
X191160000Y-110668000D03*
X190660000Y-110668000D03*
X190160000Y-110668000D03*
X189660000Y-110668000D03*
X189160000Y-110668000D03*
X188660000Y-110668000D03*
X188160000Y-110668000D03*
X187660000Y-110668000D03*
X187160000Y-110668000D03*
X186660000Y-110668000D03*
X186160000Y-110668000D03*
X185660000Y-110668000D03*
X185160000Y-110668000D03*
X184660000Y-110668000D03*
X184160000Y-110668000D03*
X183660000Y-110668000D03*
X183160000Y-110668000D03*
X182660000Y-110668000D03*
X182160000Y-110668000D03*
X181660000Y-110668000D03*
X181160000Y-110668000D03*
X180660000Y-110668000D03*
X180160000Y-110668000D03*
X179660000Y-110668000D03*
X179160000Y-110668000D03*
D74*
X177422000Y-108930000D03*
X177422000Y-108430000D03*
X177422000Y-107930000D03*
X177422000Y-107430000D03*
X177422000Y-106930000D03*
X177422000Y-106430000D03*
X177422000Y-105930000D03*
X177422000Y-105430000D03*
X177422000Y-104930000D03*
X177422000Y-104430000D03*
X177422000Y-103930000D03*
X177422000Y-103430000D03*
X177422000Y-102930000D03*
X177422000Y-102430000D03*
X177422000Y-101930000D03*
X177422000Y-101430000D03*
X177422000Y-100930000D03*
X177422000Y-100430000D03*
X177422000Y-99930000D03*
X177422000Y-99430000D03*
X177422000Y-98930000D03*
X177422000Y-98430000D03*
X177422000Y-97930000D03*
X177422000Y-97430000D03*
X177422000Y-96930000D03*
%TD*%
D33*
%TO.C,C198*%
X158225000Y-68300000D03*
X161175000Y-68300000D03*
%TD*%
D75*
%TO.C,IC11*%
X237262000Y-46575000D03*
X237262000Y-45925000D03*
X237262000Y-45275000D03*
X237262000Y-44625000D03*
X237262000Y-43975000D03*
X237262000Y-43325000D03*
X237262000Y-42675000D03*
X237262000Y-42025000D03*
X237262000Y-41375000D03*
X237262000Y-40725000D03*
X237262000Y-40075000D03*
X237262000Y-39425000D03*
X243138000Y-39425000D03*
X243138000Y-40075000D03*
X243138000Y-40725000D03*
X243138000Y-41375000D03*
X243138000Y-42025000D03*
X243138000Y-42675000D03*
X243138000Y-43325000D03*
X243138000Y-43975000D03*
X243138000Y-44625000D03*
X243138000Y-45275000D03*
X243138000Y-45925000D03*
X243138000Y-46575000D03*
%TD*%
D34*
%TO.C,C203*%
X142260000Y-64270000D03*
X141300000Y-64270000D03*
%TD*%
D37*
%TO.C,C349*%
X144640000Y-104450000D03*
X144640000Y-103490000D03*
%TD*%
D48*
%TO.C,R113*%
X189650000Y-112580000D03*
X189650000Y-113600000D03*
%TD*%
D28*
%TO.C,R99*%
X266325000Y-116980000D03*
X266325000Y-115960000D03*
%TD*%
%TO.C,R100*%
X266325000Y-114980000D03*
X266325000Y-113960000D03*
%TD*%
D76*
%TO.C,C192*%
X139020000Y-56480001D03*
X139020000Y-58379999D03*
%TD*%
D35*
%TO.C,R10*%
X175110000Y-103850000D03*
X174090000Y-103850000D03*
%TD*%
D45*
%TO.C,C140*%
X186255000Y-87480000D03*
X187805000Y-87480000D03*
%TD*%
D42*
%TO.C,R68*%
X211365000Y-91450000D03*
X212385000Y-91450000D03*
%TD*%
D34*
%TO.C,C31*%
X141680000Y-48150000D03*
X140720000Y-48150000D03*
%TD*%
D37*
%TO.C,C133*%
X194720000Y-97600000D03*
X194720000Y-96640000D03*
%TD*%
%TO.C,C223*%
X151500000Y-61280000D03*
X151500000Y-60320000D03*
%TD*%
D34*
%TO.C,C130*%
X189200000Y-92300000D03*
X188240000Y-92300000D03*
%TD*%
D48*
%TO.C,R156*%
X174030000Y-80390000D03*
X174030000Y-81410000D03*
%TD*%
D37*
%TO.C,C269*%
X148070000Y-108360000D03*
X148070000Y-107400000D03*
%TD*%
D30*
%TO.C,C314*%
X143420000Y-112810000D03*
X143420000Y-113770000D03*
%TD*%
M02*
