%TF.GenerationSoftware,KiCad,Pcbnew,8.0.8*%
%TF.CreationDate,2025-02-03T01:07:07+01:00*%
%TF.ProjectId,RASBB,52415342-422e-46b6-9963-61645f706362,01*%
%TF.SameCoordinates,Original*%
%TF.FileFunction,Soldermask,Top*%
%TF.FilePolarity,Negative*%
%FSLAX46Y46*%
G04 Gerber Fmt 4.6, Leading zero omitted, Abs format (unit mm)*
G04 Created by KiCad (PCBNEW 8.0.8) date 2025-02-03 01:07:07*
%MOMM*%
%LPD*%
G01*
G04 APERTURE LIST*
G04 Aperture macros list*
%AMRoundRect*
0 Rectangle with rounded corners*
0 $1 Rounding radius*
0 $2 $3 $4 $5 $6 $7 $8 $9 X,Y pos of 4 corners*
0 Add a 4 corners polygon primitive as box body*
4,1,4,$2,$3,$4,$5,$6,$7,$8,$9,$2,$3,0*
0 Add four circle primitives for the rounded corners*
1,1,$1+$1,$2,$3*
1,1,$1+$1,$4,$5*
1,1,$1+$1,$6,$7*
1,1,$1+$1,$8,$9*
0 Add four rect primitives between the rounded corners*
20,1,$1+$1,$2,$3,$4,$5,0*
20,1,$1+$1,$4,$5,$6,$7,0*
20,1,$1+$1,$6,$7,$8,$9,0*
20,1,$1+$1,$8,$9,$2,$3,0*%
%AMFreePoly0*
4,1,17,0.922187,-3.271517,0.249087,-3.271517,0.249087,-2.755897,-0.909153,-2.755897,-0.909153,-2.247897,-0.187793,-2.247897,-0.187793,-1.503677,-0.909153,-1.503677,-0.909153,-0.995677,-0.187793,-0.995677,-0.187793,-0.253997,-0.909153,-0.253997,-0.909153,0.254003,0.617387,0.254003,0.617387,1.010923,0.922187,1.010923,0.922187,-3.271517,0.922187,-3.271517,$1*%
%AMFreePoly1*
4,1,7,1.009154,-0.126998,-0.784086,-0.126998,-0.784086,-0.939798,-1.393686,-0.939798,-1.393686,0.127002,1.009154,0.127002,1.009154,-0.126998,1.009154,-0.126998,$1*%
%AMFreePoly2*
4,1,24,-0.548640,0.127000,-0.406400,0.127000,0.406400,0.127000,0.406400,-0.127000,-0.299720,-0.127000,-0.299720,-0.373380,0.406400,-0.373380,0.406400,-0.627380,-0.299720,-0.627380,-0.299720,-0.873760,0.406400,-0.873760,0.406400,-1.127760,-0.299720,-1.127760,-0.299720,-1.374140,0.406400,-1.374140,0.406400,-1.628140,-0.299720,-1.628140,-0.299720,-1.871980,0.406400,-1.871980,0.406400,-2.125980,
-0.853440,-2.125980,-0.853440,0.886460,-0.548640,0.886460,-0.548640,0.127000,-0.548640,0.127000,$1*%
%AMFreePoly3*
4,1,15,-1.240280,0.393900,3.641600,0.393900,3.641600,-0.114100,2.884680,-0.114100,2.884680,-1.076760,3.641600,-1.076760,3.641600,-1.584760,0.839980,-1.584760,0.839980,-0.436680,-1.240280,-0.436680,-1.240280,-2.082600,-3.018280,-2.082600,-3.018280,1.422600,-1.240280,1.422600,-1.240280,0.393900,-1.240280,0.393900,$1*%
G04 Aperture macros list end*
%ADD10RoundRect,0.135000X-0.135000X-0.185000X0.135000X-0.185000X0.135000X0.185000X-0.135000X0.185000X0*%
%ADD11RoundRect,0.140000X-0.170000X0.140000X-0.170000X-0.140000X0.170000X-0.140000X0.170000X0.140000X0*%
%ADD12R,1.350000X1.350000*%
%ADD13O,1.350000X1.350000*%
%ADD14R,1.540600X1.853400*%
%ADD15RoundRect,0.140000X0.170000X-0.140000X0.170000X0.140000X-0.170000X0.140000X-0.170000X-0.140000X0*%
%ADD16RoundRect,0.140000X-0.140000X-0.170000X0.140000X-0.170000X0.140000X0.170000X-0.140000X0.170000X0*%
%ADD17RoundRect,0.140000X0.140000X0.170000X-0.140000X0.170000X-0.140000X-0.170000X0.140000X-0.170000X0*%
%ADD18RoundRect,0.135000X0.135000X0.185000X-0.135000X0.185000X-0.135000X-0.185000X0.135000X-0.185000X0*%
%ADD19R,3.429000X2.235200*%
%ADD20RoundRect,0.140000X0.219203X0.021213X0.021213X0.219203X-0.219203X-0.021213X-0.021213X-0.219203X0*%
%ADD21RoundRect,0.218750X0.218750X0.256250X-0.218750X0.256250X-0.218750X-0.256250X0.218750X-0.256250X0*%
%ADD22RoundRect,0.140000X0.021213X-0.219203X0.219203X-0.021213X-0.021213X0.219203X-0.219203X0.021213X0*%
%ADD23RoundRect,0.135000X-0.185000X0.135000X-0.185000X-0.135000X0.185000X-0.135000X0.185000X0.135000X0*%
%ADD24R,2.025000X2.025000*%
%ADD25C,2.025000*%
%ADD26R,3.200000X3.050000*%
%ADD27RoundRect,0.135000X0.185000X-0.135000X0.185000X0.135000X-0.185000X0.135000X-0.185000X-0.135000X0*%
%ADD28RoundRect,0.250000X0.650000X-0.325000X0.650000X0.325000X-0.650000X0.325000X-0.650000X-0.325000X0*%
%ADD29RoundRect,0.250000X0.275000X0.250000X-0.275000X0.250000X-0.275000X-0.250000X0.275000X-0.250000X0*%
%ADD30RoundRect,0.250000X0.850000X0.275000X-0.850000X0.275000X-0.850000X-0.275000X0.850000X-0.275000X0*%
%ADD31RoundRect,0.225000X0.225000X0.250000X-0.225000X0.250000X-0.225000X-0.250000X0.225000X-0.250000X0*%
%ADD32RoundRect,0.225000X-0.250000X0.225000X-0.250000X-0.225000X0.250000X-0.225000X0.250000X0.225000X0*%
%ADD33C,1.000000*%
%ADD34RoundRect,0.140000X-0.219203X-0.021213X-0.021213X-0.219203X0.219203X0.021213X0.021213X0.219203X0*%
%ADD35RoundRect,0.218750X0.256250X-0.218750X0.256250X0.218750X-0.256250X0.218750X-0.256250X-0.218750X0*%
%ADD36RoundRect,0.250000X-0.475000X0.250000X-0.475000X-0.250000X0.475000X-0.250000X0.475000X0.250000X0*%
%ADD37R,2.400000X0.740000*%
%ADD38R,0.740000X2.400000*%
%ADD39R,1.400000X1.200000*%
%ADD40RoundRect,0.225000X0.250000X-0.225000X0.250000X0.225000X-0.250000X0.225000X-0.250000X-0.225000X0*%
%ADD41R,0.500000X2.000000*%
%ADD42RoundRect,0.140000X-0.021213X0.219203X-0.219203X0.021213X0.021213X-0.219203X0.219203X-0.021213X0*%
%ADD43C,0.410000*%
%ADD44C,1.700000*%
%ADD45C,1.800000*%
%ADD46RoundRect,0.102000X1.400000X1.200000X-1.400000X1.200000X-1.400000X-1.200000X1.400000X-1.200000X0*%
%ADD47R,0.550000X0.400000*%
%ADD48RoundRect,0.150000X0.150000X-0.512500X0.150000X0.512500X-0.150000X0.512500X-0.150000X-0.512500X0*%
%ADD49RoundRect,0.250000X0.475000X-0.250000X0.475000X0.250000X-0.475000X0.250000X-0.475000X-0.250000X0*%
%ADD50RoundRect,0.225000X0.017678X-0.335876X0.335876X-0.017678X-0.017678X0.335876X-0.335876X0.017678X0*%
%ADD51R,1.853400X1.540600*%
%ADD52C,0.426000*%
%ADD53C,3.250000*%
%ADD54C,1.509000*%
%ADD55C,1.300000*%
%ADD56C,2.475000*%
%ADD57RoundRect,0.225000X-0.225000X-0.250000X0.225000X-0.250000X0.225000X0.250000X-0.225000X0.250000X0*%
%ADD58R,1.522000X0.700000*%
%ADD59R,2.500000X3.500000*%
%ADD60R,1.600000X1.400000*%
%ADD61RoundRect,0.250000X-0.250000X-0.475000X0.250000X-0.475000X0.250000X0.475000X-0.250000X0.475000X0*%
%ADD62RoundRect,0.135000X0.226274X0.035355X0.035355X0.226274X-0.226274X-0.035355X-0.035355X-0.226274X0*%
%ADD63RoundRect,0.250000X-0.650000X0.325000X-0.650000X-0.325000X0.650000X-0.325000X0.650000X0.325000X0*%
%ADD64R,0.650000X1.525000*%
%ADD65R,3.100000X2.400000*%
%ADD66R,0.800000X0.300000*%
%ADD67R,0.300000X0.800000*%
%ADD68R,2.700000X2.700000*%
%ADD69R,0.400000X0.500000*%
%ADD70R,3.350000X1.850000*%
%ADD71RoundRect,0.050000X0.890000X1.575000X-0.890000X1.575000X-0.890000X-1.575000X0.890000X-1.575000X0*%
%ADD72R,2.000000X4.100000*%
%ADD73RoundRect,0.147500X0.147500X0.172500X-0.147500X0.172500X-0.147500X-0.172500X0.147500X-0.172500X0*%
%ADD74RoundRect,0.225000X0.275000X0.225000X-0.275000X0.225000X-0.275000X-0.225000X0.275000X-0.225000X0*%
%ADD75RoundRect,0.135000X0.035355X-0.226274X0.226274X-0.035355X-0.035355X0.226274X-0.226274X0.035355X0*%
%ADD76R,1.528000X0.435000*%
%ADD77R,2.500000X1.700000*%
%ADD78R,1.400000X1.600000*%
%ADD79FreePoly0,270.000000*%
%ADD80R,0.254000X0.812800*%
%ADD81R,0.812800X0.254000*%
%ADD82FreePoly1,270.000000*%
%ADD83FreePoly2,270.000000*%
%ADD84FreePoly3,0.000000*%
%ADD85RoundRect,0.525000X0.625000X-0.525000X0.625000X0.525000X-0.625000X0.525000X-0.625000X-0.525000X0*%
%ADD86R,2.235200X3.429000*%
%ADD87RoundRect,0.150000X-0.150000X0.512500X-0.150000X-0.512500X0.150000X-0.512500X0.150000X0.512500X0*%
%ADD88R,0.500000X0.400000*%
%ADD89RoundRect,0.200000X0.275000X-0.200000X0.275000X0.200000X-0.275000X0.200000X-0.275000X-0.200000X0*%
%ADD90RoundRect,0.250000X-0.325000X-0.650000X0.325000X-0.650000X0.325000X0.650000X-0.325000X0.650000X0*%
%ADD91C,0.600000*%
%ADD92R,1.160000X0.600000*%
%ADD93R,1.160000X0.300000*%
%ADD94O,2.000000X0.900000*%
%ADD95O,1.700000X0.900000*%
%ADD96R,1.100000X1.300000*%
%ADD97R,0.812800X0.203200*%
%ADD98R,0.203200X0.812800*%
%ADD99R,4.648200X4.648200*%
%ADD100R,0.800000X1.150000*%
%ADD101R,0.600000X1.150000*%
%ADD102R,1.450000X1.490000*%
%ADD103RoundRect,0.250000X0.700000X-0.275000X0.700000X0.275000X-0.700000X0.275000X-0.700000X-0.275000X0*%
%ADD104RoundRect,0.200000X-0.275000X0.200000X-0.275000X-0.200000X0.275000X-0.200000X0.275000X0.200000X0*%
%ADD105C,1.600000*%
%ADD106RoundRect,0.102000X0.550000X0.875000X-0.550000X0.875000X-0.550000X-0.875000X0.550000X-0.875000X0*%
%ADD107RoundRect,0.050000X1.175000X1.750000X-1.175000X1.750000X-1.175000X-1.750000X1.175000X-1.750000X0*%
%ADD108C,0.800000*%
%ADD109O,3.200000X1.400000*%
%ADD110RoundRect,0.102000X2.100000X-0.350000X2.100000X0.350000X-2.100000X0.350000X-2.100000X-0.350000X0*%
G04 APERTURE END LIST*
%TO.C,J11*%
G36*
X203875000Y-115780000D02*
G01*
X201785000Y-115780000D01*
X201785000Y-113900000D01*
X203875000Y-113900000D01*
X203875000Y-115780000D01*
G37*
%TD*%
D10*
%TO.C,R110*%
X195190000Y-102950000D03*
X196210000Y-102950000D03*
%TD*%
D11*
%TO.C,C41*%
X190465000Y-45640192D03*
X190465000Y-46600192D03*
%TD*%
D12*
%TO.C,J18*%
X121550000Y-95410000D03*
D13*
X121550000Y-93410000D03*
%TD*%
D14*
%TO.C,L8*%
X201324200Y-87080000D03*
X197065800Y-87080000D03*
%TD*%
D15*
%TO.C,C65*%
X215710000Y-86955000D03*
X215710000Y-85995000D03*
%TD*%
D11*
%TO.C,C55*%
X180875000Y-57370000D03*
X180875000Y-58330000D03*
%TD*%
D16*
%TO.C,C35*%
X190800000Y-56200000D03*
X191760000Y-56200000D03*
%TD*%
D10*
%TO.C,R167*%
X135290000Y-99000000D03*
X136310000Y-99000000D03*
%TD*%
D17*
%TO.C,C363*%
X206900000Y-75660000D03*
X205940000Y-75660000D03*
%TD*%
D11*
%TO.C,C151*%
X212950000Y-119400000D03*
X212950000Y-120360000D03*
%TD*%
%TO.C,C149*%
X215450000Y-119720000D03*
X215450000Y-120680000D03*
%TD*%
D16*
%TO.C,C361*%
X212770000Y-80580000D03*
X213730000Y-80580000D03*
%TD*%
D18*
%TO.C,R154*%
X148780000Y-45350000D03*
X147760000Y-45350000D03*
%TD*%
D19*
%TO.C,L6*%
X202600000Y-67934300D03*
X202600000Y-62625700D03*
%TD*%
D20*
%TO.C,C105*%
X128048128Y-120569753D03*
X127369306Y-119890931D03*
%TD*%
D11*
%TO.C,C145*%
X219725000Y-119345000D03*
X219725000Y-120305000D03*
%TD*%
D21*
%TO.C,D8*%
X199575000Y-105600000D03*
X198000000Y-105600000D03*
%TD*%
D10*
%TO.C,R56*%
X124640000Y-99925000D03*
X125660000Y-99925000D03*
%TD*%
D22*
%TO.C,C84*%
X141360589Y-81389411D03*
X142039411Y-80710589D03*
%TD*%
D23*
%TO.C,R41*%
X187275000Y-45590192D03*
X187275000Y-46610192D03*
%TD*%
D16*
%TO.C,C357*%
X212730000Y-82220000D03*
X213690000Y-82220000D03*
%TD*%
D24*
%TO.C,J9*%
X259580000Y-103160000D03*
D25*
X259580000Y-106660000D03*
%TD*%
D26*
%TO.C,L3*%
X166200000Y-49800000D03*
X166200000Y-59000000D03*
%TD*%
D20*
%TO.C,C103*%
X133298128Y-112269753D03*
X132619306Y-111590931D03*
%TD*%
D11*
%TO.C,C150*%
X213970000Y-119400000D03*
X213970000Y-120360000D03*
%TD*%
D16*
%TO.C,C159*%
X206850000Y-114840000D03*
X207810000Y-114840000D03*
%TD*%
D27*
%TO.C,R44*%
X160200000Y-40810000D03*
X160200000Y-39790000D03*
%TD*%
D28*
%TO.C,C5*%
X228101250Y-53505000D03*
X228101250Y-50555000D03*
%TD*%
D29*
%TO.C,J11*%
X204410000Y-114840000D03*
D30*
X202885000Y-116315000D03*
X202885000Y-113365000D03*
%TD*%
D31*
%TO.C,C45*%
X207675000Y-38890000D03*
X206125000Y-38890000D03*
%TD*%
%TO.C,C54*%
X193350000Y-63430000D03*
X191800000Y-63430000D03*
%TD*%
D27*
%TO.C,R30*%
X242210000Y-56120000D03*
X242210000Y-55100000D03*
%TD*%
D15*
%TO.C,C146*%
X209170000Y-119510000D03*
X209170000Y-118550000D03*
%TD*%
D16*
%TO.C,C8*%
X243270000Y-55040000D03*
X244230000Y-55040000D03*
%TD*%
D32*
%TO.C,C175*%
X208490000Y-100915000D03*
X208490000Y-102465000D03*
%TD*%
D11*
%TO.C,C30*%
X188285000Y-45640192D03*
X188285000Y-46600192D03*
%TD*%
D10*
%TO.C,R71*%
X249025000Y-99870000D03*
X250045000Y-99870000D03*
%TD*%
%TO.C,R5*%
X135755000Y-49900000D03*
X136775000Y-49900000D03*
%TD*%
D19*
%TO.C,L5*%
X186600000Y-62200000D03*
X186600000Y-56891400D03*
%TD*%
D33*
%TO.C,TP3*%
X202850000Y-99050000D03*
%TD*%
D34*
%TO.C,C88*%
X125710589Y-83210589D03*
X126389411Y-83889411D03*
%TD*%
D31*
%TO.C,C57*%
X193350000Y-61800000D03*
X191800000Y-61800000D03*
%TD*%
D35*
%TO.C,D16*%
X121865000Y-102882500D03*
X121865000Y-101307500D03*
%TD*%
D36*
%TO.C,C354*%
X169590000Y-43500000D03*
X169590000Y-45400000D03*
%TD*%
D37*
%TO.C,J8*%
X183500000Y-115410000D03*
X187400000Y-115410000D03*
X183500000Y-116680000D03*
X187400000Y-116680000D03*
X183500000Y-117950000D03*
X187400000Y-117950000D03*
X183500000Y-119220000D03*
X187400000Y-119220000D03*
X183500000Y-120490000D03*
X187400000Y-120490000D03*
%TD*%
D38*
%TO.C,J13*%
X150070000Y-47850000D03*
X150070000Y-51750000D03*
X148800000Y-47850000D03*
X148800000Y-51750000D03*
X147530000Y-47850000D03*
X147530000Y-51750000D03*
%TD*%
D18*
%TO.C,R46*%
X213640000Y-50947500D03*
X212620000Y-50947500D03*
%TD*%
D34*
%TO.C,C94*%
X140110589Y-83960589D03*
X140789411Y-84639411D03*
%TD*%
D39*
%TO.C,Y3*%
X218100000Y-95580000D03*
X215900000Y-95580000D03*
X215900000Y-97280000D03*
X218100000Y-97280000D03*
%TD*%
D40*
%TO.C,C125*%
X146140000Y-89215000D03*
X146140000Y-87665000D03*
%TD*%
D34*
%TO.C,C116*%
X140819306Y-119790931D03*
X141498128Y-120469753D03*
%TD*%
D41*
%TO.C,J5*%
X147980000Y-89820000D03*
X147980000Y-86520000D03*
X148980000Y-89820000D03*
X148980000Y-86520000D03*
X149980000Y-89820000D03*
X149980000Y-86520000D03*
X150980000Y-89820000D03*
X150980000Y-86520000D03*
X151980000Y-89820000D03*
X151980000Y-86520000D03*
X152980000Y-89820000D03*
X152980000Y-86520000D03*
X153980000Y-89820000D03*
X153980000Y-86520000D03*
X154980000Y-89820000D03*
X154980000Y-86520000D03*
X155980000Y-89820000D03*
X155980000Y-86520000D03*
X156980000Y-89820000D03*
X156980000Y-86520000D03*
%TD*%
D33*
%TO.C,TP13*%
X225400000Y-119350000D03*
%TD*%
D31*
%TO.C,C179*%
X232125000Y-100400000D03*
X230575000Y-100400000D03*
%TD*%
D15*
%TO.C,C71*%
X205900000Y-90280000D03*
X205900000Y-89320000D03*
%TD*%
D42*
%TO.C,C95*%
X142389411Y-83410589D03*
X141710589Y-84089411D03*
%TD*%
D23*
%TO.C,R28*%
X232072777Y-55130000D03*
X232072777Y-56150000D03*
%TD*%
D10*
%TO.C,R58*%
X208460000Y-71220000D03*
X209480000Y-71220000D03*
%TD*%
D11*
%TO.C,C204*%
X145600000Y-50940000D03*
X145600000Y-51900000D03*
%TD*%
D16*
%TO.C,C51*%
X207250000Y-65810000D03*
X208210000Y-65810000D03*
%TD*%
D23*
%TO.C,R118*%
X116510000Y-48430000D03*
X116510000Y-49450000D03*
%TD*%
D10*
%TO.C,R153*%
X150080000Y-54360000D03*
X151100000Y-54360000D03*
%TD*%
D43*
%TO.C,U10*%
X141750000Y-63080000D03*
X142550000Y-63080000D03*
X143350000Y-63080000D03*
X144150000Y-63080000D03*
X144950000Y-63080000D03*
X145750000Y-63080000D03*
X146550000Y-63080000D03*
X147350000Y-63080000D03*
X148150000Y-63080000D03*
X148950000Y-63080000D03*
X149750000Y-63080000D03*
X150550000Y-63080000D03*
X151350000Y-63080000D03*
X152150000Y-63080000D03*
X152950000Y-63080000D03*
X153750000Y-63080000D03*
X154550000Y-63080000D03*
X155350000Y-63080000D03*
X141750000Y-63880000D03*
X142550000Y-63880000D03*
X143350000Y-63880000D03*
X144150000Y-63880000D03*
X144950000Y-63880000D03*
X145750000Y-63880000D03*
X146550000Y-63880000D03*
X147350000Y-63880000D03*
X148150000Y-63880000D03*
X148950000Y-63880000D03*
X149750000Y-63880000D03*
X150550000Y-63880000D03*
X151350000Y-63880000D03*
X152150000Y-63880000D03*
X152950000Y-63880000D03*
X153750000Y-63880000D03*
X154550000Y-63880000D03*
X155350000Y-63880000D03*
X141750000Y-64680000D03*
X142550000Y-64680000D03*
X143350000Y-64680000D03*
X144150000Y-64680000D03*
X144950000Y-64680000D03*
X145750000Y-64680000D03*
X146550000Y-64680000D03*
X147350000Y-64680000D03*
X148150000Y-64680000D03*
X148950000Y-64680000D03*
X149750000Y-64680000D03*
X150550000Y-64680000D03*
X151350000Y-64680000D03*
X152150000Y-64680000D03*
X152950000Y-64680000D03*
X153750000Y-64680000D03*
X154550000Y-64680000D03*
X155350000Y-64680000D03*
X141750000Y-65480000D03*
X142550000Y-65480000D03*
X143350000Y-65480000D03*
X144150000Y-65480000D03*
X144950000Y-65480000D03*
X145750000Y-65480000D03*
X146550000Y-65480000D03*
X147350000Y-65480000D03*
X148150000Y-65480000D03*
X148950000Y-65480000D03*
X149750000Y-65480000D03*
X150550000Y-65480000D03*
X151350000Y-65480000D03*
X152150000Y-65480000D03*
X152950000Y-65480000D03*
X153750000Y-65480000D03*
X154550000Y-65480000D03*
X155350000Y-65480000D03*
X141750000Y-66280000D03*
X142550000Y-66280000D03*
X143350000Y-66280000D03*
X144150000Y-66280000D03*
X144950000Y-66280000D03*
X145750000Y-66280000D03*
X146550000Y-66280000D03*
X147350000Y-66280000D03*
X148150000Y-66280000D03*
X148950000Y-66280000D03*
X149750000Y-66280000D03*
X150550000Y-66280000D03*
X151350000Y-66280000D03*
X152150000Y-66280000D03*
X152950000Y-66280000D03*
X153750000Y-66280000D03*
X154550000Y-66280000D03*
X155350000Y-66280000D03*
X141750000Y-67080000D03*
X142550000Y-67080000D03*
X143350000Y-67080000D03*
X144150000Y-67080000D03*
X144950000Y-67080000D03*
X145750000Y-67080000D03*
X146550000Y-67080000D03*
X147350000Y-67080000D03*
X148150000Y-67080000D03*
X148950000Y-67080000D03*
X149750000Y-67080000D03*
X150550000Y-67080000D03*
X151350000Y-67080000D03*
X152150000Y-67080000D03*
X152950000Y-67080000D03*
X153750000Y-67080000D03*
X154550000Y-67080000D03*
X155350000Y-67080000D03*
X141750000Y-67880000D03*
X142550000Y-67880000D03*
X143350000Y-67880000D03*
X144150000Y-67880000D03*
X144950000Y-67880000D03*
X145750000Y-67880000D03*
X146550000Y-67880000D03*
X147350000Y-67880000D03*
X148150000Y-67880000D03*
X148950000Y-67880000D03*
X149750000Y-67880000D03*
X150550000Y-67880000D03*
X151350000Y-67880000D03*
X152150000Y-67880000D03*
X152950000Y-67880000D03*
X153750000Y-67880000D03*
X154550000Y-67880000D03*
X155350000Y-67880000D03*
X141750000Y-68680000D03*
X142550000Y-68680000D03*
X143350000Y-68680000D03*
X144150000Y-68680000D03*
X144950000Y-68680000D03*
X145750000Y-68680000D03*
X146550000Y-68680000D03*
X147350000Y-68680000D03*
X148150000Y-68680000D03*
X148950000Y-68680000D03*
X149750000Y-68680000D03*
X150550000Y-68680000D03*
X151350000Y-68680000D03*
X152150000Y-68680000D03*
X152950000Y-68680000D03*
X153750000Y-68680000D03*
X154550000Y-68680000D03*
X155350000Y-68680000D03*
X141750000Y-69480000D03*
X142550000Y-69480000D03*
X143350000Y-69480000D03*
X144150000Y-69480000D03*
X144950000Y-69480000D03*
X145750000Y-69480000D03*
X146550000Y-69480000D03*
X147350000Y-69480000D03*
X148150000Y-69480000D03*
X148950000Y-69480000D03*
X149750000Y-69480000D03*
X150550000Y-69480000D03*
X151350000Y-69480000D03*
X152150000Y-69480000D03*
X152950000Y-69480000D03*
X153750000Y-69480000D03*
X154550000Y-69480000D03*
X155350000Y-69480000D03*
X141750000Y-70280000D03*
X142550000Y-70280000D03*
X143350000Y-70280000D03*
X144150000Y-70280000D03*
X144950000Y-70280000D03*
X145750000Y-70280000D03*
X146550000Y-70280000D03*
X147350000Y-70280000D03*
X148150000Y-70280000D03*
X148950000Y-70280000D03*
X149750000Y-70280000D03*
X150550000Y-70280000D03*
X151350000Y-70280000D03*
X152150000Y-70280000D03*
X152950000Y-70280000D03*
X153750000Y-70280000D03*
X154550000Y-70280000D03*
X155350000Y-70280000D03*
X141750000Y-71080000D03*
X142550000Y-71080000D03*
X143350000Y-71080000D03*
X144150000Y-71080000D03*
X144950000Y-71080000D03*
X145750000Y-71080000D03*
X146550000Y-71080000D03*
X147350000Y-71080000D03*
X148150000Y-71080000D03*
X148950000Y-71080000D03*
X149750000Y-71080000D03*
X150550000Y-71080000D03*
X151350000Y-71080000D03*
X152150000Y-71080000D03*
X152950000Y-71080000D03*
X153750000Y-71080000D03*
X154550000Y-71080000D03*
X155350000Y-71080000D03*
X141750000Y-71880000D03*
X142550000Y-71880000D03*
X143350000Y-71880000D03*
X144150000Y-71880000D03*
X144950000Y-71880000D03*
X145750000Y-71880000D03*
X146550000Y-71880000D03*
X147350000Y-71880000D03*
X148150000Y-71880000D03*
X148950000Y-71880000D03*
X149750000Y-71880000D03*
X150550000Y-71880000D03*
X151350000Y-71880000D03*
X152150000Y-71880000D03*
X152950000Y-71880000D03*
X153750000Y-71880000D03*
X154550000Y-71880000D03*
X155350000Y-71880000D03*
X141750000Y-72680000D03*
X142550000Y-72680000D03*
X143350000Y-72680000D03*
X144150000Y-72680000D03*
X144950000Y-72680000D03*
X145750000Y-72680000D03*
X146550000Y-72680000D03*
X147350000Y-72680000D03*
X148150000Y-72680000D03*
X148950000Y-72680000D03*
X149750000Y-72680000D03*
X150550000Y-72680000D03*
X151350000Y-72680000D03*
X152150000Y-72680000D03*
X152950000Y-72680000D03*
X153750000Y-72680000D03*
X154550000Y-72680000D03*
X155350000Y-72680000D03*
X141750000Y-73480000D03*
X142550000Y-73480000D03*
X143350000Y-73480000D03*
X144150000Y-73480000D03*
X144950000Y-73480000D03*
X145750000Y-73480000D03*
X146550000Y-73480000D03*
X147350000Y-73480000D03*
X148150000Y-73480000D03*
X148950000Y-73480000D03*
X149750000Y-73480000D03*
X150550000Y-73480000D03*
X151350000Y-73480000D03*
X152150000Y-73480000D03*
X152950000Y-73480000D03*
X153750000Y-73480000D03*
X154550000Y-73480000D03*
X155350000Y-73480000D03*
X141750000Y-74280000D03*
X142550000Y-74280000D03*
X143350000Y-74280000D03*
X144150000Y-74280000D03*
X144950000Y-74280000D03*
X145750000Y-74280000D03*
X146550000Y-74280000D03*
X147350000Y-74280000D03*
X148150000Y-74280000D03*
X148950000Y-74280000D03*
X149750000Y-74280000D03*
X150550000Y-74280000D03*
X151350000Y-74280000D03*
X152150000Y-74280000D03*
X152950000Y-74280000D03*
X153750000Y-74280000D03*
X154550000Y-74280000D03*
X155350000Y-74280000D03*
X141750000Y-75080000D03*
X142550000Y-75080000D03*
X143350000Y-75080000D03*
X144150000Y-75080000D03*
X144950000Y-75080000D03*
X145750000Y-75080000D03*
X146550000Y-75080000D03*
X147350000Y-75080000D03*
X148150000Y-75080000D03*
X148950000Y-75080000D03*
X149750000Y-75080000D03*
X150550000Y-75080000D03*
X151350000Y-75080000D03*
X152150000Y-75080000D03*
X152950000Y-75080000D03*
X153750000Y-75080000D03*
X154550000Y-75080000D03*
X155350000Y-75080000D03*
X141750000Y-75880000D03*
X142550000Y-75880000D03*
X143350000Y-75880000D03*
X144150000Y-75880000D03*
X144950000Y-75880000D03*
X145750000Y-75880000D03*
X146550000Y-75880000D03*
X147350000Y-75880000D03*
X148150000Y-75880000D03*
X148950000Y-75880000D03*
X149750000Y-75880000D03*
X150550000Y-75880000D03*
X151350000Y-75880000D03*
X152150000Y-75880000D03*
X152950000Y-75880000D03*
X153750000Y-75880000D03*
X154550000Y-75880000D03*
X155350000Y-75880000D03*
X141750000Y-76680000D03*
X142550000Y-76680000D03*
X143350000Y-76680000D03*
X144150000Y-76680000D03*
X144950000Y-76680000D03*
X145750000Y-76680000D03*
X146550000Y-76680000D03*
X147350000Y-76680000D03*
X148150000Y-76680000D03*
X148950000Y-76680000D03*
X149750000Y-76680000D03*
X150550000Y-76680000D03*
X151350000Y-76680000D03*
X152150000Y-76680000D03*
X152950000Y-76680000D03*
X153750000Y-76680000D03*
X154550000Y-76680000D03*
X155350000Y-76680000D03*
%TD*%
D23*
%TO.C,R111*%
X181230000Y-106490000D03*
X181230000Y-107510000D03*
%TD*%
D15*
%TO.C,C147*%
X210330000Y-119510000D03*
X210330000Y-118550000D03*
%TD*%
D33*
%TO.C,TP7*%
X212550000Y-111550000D03*
%TD*%
D44*
%TO.C,J1*%
X265945000Y-51410000D03*
D45*
X261445000Y-51410000D03*
D46*
X259845000Y-57110000D03*
X265945000Y-57110000D03*
X265945000Y-45710000D03*
X259845000Y-45710000D03*
%TD*%
D27*
%TO.C,R29*%
X233119721Y-56150000D03*
X233119721Y-55130000D03*
%TD*%
D11*
%TO.C,C352*%
X209375000Y-84770000D03*
X209375000Y-85730000D03*
%TD*%
D23*
%TO.C,R77*%
X199495000Y-78495000D03*
X199495000Y-79515000D03*
%TD*%
D38*
%TO.C,J10*%
X185020000Y-105310000D03*
X185020000Y-101410000D03*
X186290000Y-105310000D03*
X186290000Y-101410000D03*
X187560000Y-105310000D03*
X187560000Y-101410000D03*
X188830000Y-105310000D03*
X188830000Y-101410000D03*
X190100000Y-105310000D03*
X190100000Y-101410000D03*
%TD*%
D34*
%TO.C,C111*%
X124969306Y-117540931D03*
X125648128Y-118219753D03*
%TD*%
D33*
%TO.C,TP16*%
X161500000Y-105500000D03*
%TD*%
D23*
%TO.C,R65*%
X206585000Y-72300000D03*
X206585000Y-73320000D03*
%TD*%
D10*
%TO.C,R1*%
X159060000Y-70170000D03*
X160080000Y-70170000D03*
%TD*%
D31*
%TO.C,C166*%
X246050000Y-121550000D03*
X244500000Y-121550000D03*
%TD*%
D47*
%TO.C,U7*%
X114500000Y-44800000D03*
X114500000Y-45800000D03*
X114500000Y-46800000D03*
X116500000Y-46800000D03*
X116500000Y-45800000D03*
X116500000Y-44800000D03*
%TD*%
D23*
%TO.C,R52*%
X207700000Y-51690000D03*
X207700000Y-52710000D03*
%TD*%
D10*
%TO.C,R39*%
X153000000Y-45260000D03*
X154020000Y-45260000D03*
%TD*%
D31*
%TO.C,C56*%
X209075000Y-69000000D03*
X207525000Y-69000000D03*
%TD*%
D11*
%TO.C,C72*%
X210450000Y-84995000D03*
X210450000Y-85955000D03*
%TD*%
D35*
%TO.C,D13*%
X136275000Y-52775000D03*
X136275000Y-51199998D03*
%TD*%
D10*
%TO.C,R69*%
X206210000Y-92200000D03*
X207230000Y-92200000D03*
%TD*%
%TO.C,R152*%
X149830000Y-45320000D03*
X150850000Y-45320000D03*
%TD*%
D15*
%TO.C,C66*%
X213780000Y-93780000D03*
X213780000Y-92820000D03*
%TD*%
D23*
%TO.C,R115*%
X188820000Y-108610000D03*
X188820000Y-109630000D03*
%TD*%
D48*
%TO.C,U4*%
X210960000Y-49297500D03*
X211910000Y-49297500D03*
X212860000Y-49297500D03*
X212860000Y-47022500D03*
X211910000Y-47022500D03*
X210960000Y-47022500D03*
%TD*%
D27*
%TO.C,R51*%
X205690000Y-52710000D03*
X205690000Y-51690000D03*
%TD*%
D18*
%TO.C,R62*%
X205070000Y-71220000D03*
X204050000Y-71220000D03*
%TD*%
D49*
%TO.C,C170*%
X203250000Y-103430000D03*
X203250000Y-101530000D03*
%TD*%
D16*
%TO.C,C244*%
X157160000Y-76620000D03*
X158120000Y-76620000D03*
%TD*%
D17*
%TO.C,C157*%
X209860000Y-113760000D03*
X208900000Y-113760000D03*
%TD*%
D21*
%TO.C,D9*%
X199387501Y-103400000D03*
X197812499Y-103400000D03*
%TD*%
D18*
%TO.C,R45*%
X211420000Y-50957500D03*
X210400000Y-50957500D03*
%TD*%
D15*
%TO.C,C173*%
X211370000Y-94000000D03*
X211370000Y-93040000D03*
%TD*%
D33*
%TO.C,TP14*%
X214750000Y-123950000D03*
%TD*%
D10*
%TO.C,R38*%
X153000000Y-46550000D03*
X154020000Y-46550000D03*
%TD*%
D50*
%TO.C,C121*%
X124460709Y-116128350D03*
X125556725Y-115032334D03*
%TD*%
D18*
%TO.C,R6*%
X159410000Y-110700000D03*
X158390000Y-110700000D03*
%TD*%
D17*
%TO.C,C265*%
X140070000Y-69360000D03*
X139110000Y-69360000D03*
%TD*%
D23*
%TO.C,R107*%
X200550000Y-78490001D03*
X200550000Y-79509999D03*
%TD*%
D11*
%TO.C,C364*%
X204660000Y-84550000D03*
X204660000Y-85510000D03*
%TD*%
%TO.C,C19*%
X157600000Y-49120000D03*
X157600000Y-50080000D03*
%TD*%
D23*
%TO.C,R112*%
X182660000Y-106480000D03*
X182660000Y-107500000D03*
%TD*%
%TO.C,R116*%
X186280000Y-108610000D03*
X186280000Y-109630000D03*
%TD*%
D20*
%TO.C,C80*%
X134039411Y-77939411D03*
X133360589Y-77260589D03*
%TD*%
D27*
%TO.C,R8*%
X170300000Y-109090000D03*
X170300000Y-108070000D03*
%TD*%
D49*
%TO.C,C46*%
X177000000Y-58800000D03*
X177000000Y-56900000D03*
%TD*%
D11*
%TO.C,C158*%
X208920000Y-116090000D03*
X208920000Y-117050000D03*
%TD*%
D33*
%TO.C,TP23*%
X211075000Y-90150000D03*
%TD*%
D23*
%TO.C,R42*%
X213800000Y-44290000D03*
X213800000Y-45310000D03*
%TD*%
D10*
%TO.C,R142*%
X233490000Y-101800000D03*
X234510000Y-101800000D03*
%TD*%
D11*
%TO.C,C58*%
X165140000Y-72470000D03*
X165140000Y-73430000D03*
%TD*%
D10*
%TO.C,R74*%
X197540000Y-81830000D03*
X198560000Y-81830000D03*
%TD*%
D51*
%TO.C,L11*%
X205920000Y-98592101D03*
X205920000Y-102850501D03*
%TD*%
D52*
%TO.C,IC10*%
X126532330Y-116894291D03*
X127098015Y-116328606D03*
X127663700Y-115762920D03*
X129926442Y-113500178D03*
X130492128Y-112934493D03*
X131057813Y-112368808D03*
X127098015Y-117459976D03*
X127663700Y-116894291D03*
X128229386Y-116328606D03*
X130492128Y-114065864D03*
X131057813Y-113500178D03*
X131623498Y-112934493D03*
X127663700Y-118025662D03*
X128229386Y-117459976D03*
X128795071Y-116894291D03*
X131057813Y-114631549D03*
X131623498Y-114065864D03*
X132189184Y-113500178D03*
X128229386Y-118591347D03*
X128795071Y-118025662D03*
X129360757Y-117459976D03*
X131623498Y-115197235D03*
X132189184Y-114631549D03*
X132754869Y-114065864D03*
X128795071Y-119157033D03*
X129360757Y-118591347D03*
X129926442Y-118025662D03*
X132189184Y-115762920D03*
X132754869Y-115197235D03*
X133320555Y-114631549D03*
X129360757Y-119722718D03*
X129926442Y-119157033D03*
X130492128Y-118591347D03*
X132754869Y-116328606D03*
X133320555Y-115762920D03*
X133886240Y-115197235D03*
X129926442Y-120288404D03*
X130492128Y-119722718D03*
X131057813Y-119157033D03*
X133320555Y-116894291D03*
X133886240Y-116328606D03*
X134451926Y-115762920D03*
X130492128Y-120854089D03*
X131057813Y-120288404D03*
X131623498Y-119722718D03*
X133886240Y-117459976D03*
X134451926Y-116894291D03*
X135017611Y-116328606D03*
X131057813Y-121419774D03*
X131623498Y-120854089D03*
X132189184Y-120288404D03*
X134451926Y-118025662D03*
X135017611Y-117459976D03*
X135583296Y-116894291D03*
X131623498Y-121985460D03*
X132189184Y-121419774D03*
X132754869Y-120854089D03*
X135017611Y-118591347D03*
X135583296Y-118025662D03*
X136148982Y-117459976D03*
X132189184Y-122551145D03*
X132754869Y-121985460D03*
X133320555Y-121419774D03*
X135583296Y-119157033D03*
X136148982Y-118591347D03*
X136714667Y-118025662D03*
X132754869Y-123116831D03*
X133320555Y-122551145D03*
X133886240Y-121985460D03*
X136148982Y-119722718D03*
X136714667Y-119157033D03*
X137280353Y-118591347D03*
X133320555Y-123682516D03*
X133886240Y-123116831D03*
X134451926Y-122551145D03*
X136714667Y-120288404D03*
X137280353Y-119722718D03*
X137846038Y-119157033D03*
X133886240Y-124248202D03*
X134451926Y-123682516D03*
X135017611Y-123116831D03*
X137280353Y-120854089D03*
X137846038Y-120288404D03*
X138411724Y-119722718D03*
X134451926Y-124813887D03*
X135017611Y-124248202D03*
X135583296Y-123682516D03*
X137846038Y-121419774D03*
X138411724Y-120854089D03*
X138977409Y-120288404D03*
X135017611Y-125379572D03*
X135583296Y-124813887D03*
X136148982Y-124248202D03*
X138411724Y-121985460D03*
X138977409Y-121419774D03*
X139543094Y-120854089D03*
%TD*%
D10*
%TO.C,R103*%
X121365000Y-99925000D03*
X122385000Y-99925000D03*
%TD*%
D53*
%TO.C,J14*%
X259505000Y-95355000D03*
X259505000Y-82655000D03*
D54*
X244265000Y-83930000D03*
X244265000Y-85960000D03*
X244265000Y-87990001D03*
X244265000Y-90020000D03*
X244265000Y-92050000D03*
X244265000Y-94080000D03*
X241725000Y-82910000D03*
X241725000Y-84930000D03*
X241725000Y-86970000D03*
X241725000Y-91050000D03*
X241725000Y-93090000D03*
X241725000Y-95100000D03*
X239185000Y-82910001D03*
X239185000Y-85450000D03*
X239185000Y-92560000D03*
X239185000Y-95100000D03*
D55*
X251375000Y-82908000D03*
X251375000Y-95102000D03*
X252845000Y-82908000D03*
X252845000Y-95102000D03*
D56*
X262685000Y-97070000D03*
X262685000Y-80940000D03*
%TD*%
D10*
%TO.C,R121*%
X234105000Y-108135000D03*
X235125000Y-108135000D03*
%TD*%
D15*
%TO.C,C38*%
X182032500Y-58330000D03*
X182032500Y-57370000D03*
%TD*%
D20*
%TO.C,C87*%
X136689411Y-80639411D03*
X136010589Y-79960589D03*
%TD*%
D22*
%TO.C,C107*%
X140619306Y-115719753D03*
X141298128Y-115040931D03*
%TD*%
D57*
%TO.C,C178*%
X229625000Y-95400000D03*
X231175000Y-95400000D03*
%TD*%
D18*
%TO.C,R70*%
X207230000Y-93400000D03*
X206210000Y-93400000D03*
%TD*%
D16*
%TO.C,C152*%
X218920000Y-114900000D03*
X219880000Y-114900000D03*
%TD*%
%TO.C,C168*%
X215920000Y-98800000D03*
X216880000Y-98800000D03*
%TD*%
D15*
%TO.C,C154*%
X215960000Y-112630000D03*
X215960000Y-111670000D03*
%TD*%
D17*
%TO.C,C16*%
X233000000Y-39200000D03*
X232040000Y-39200000D03*
%TD*%
D58*
%TO.C,IC1*%
X235086000Y-53135000D03*
X235086000Y-54405000D03*
X235086000Y-55675000D03*
X235086000Y-56945000D03*
X240514000Y-56945000D03*
X240514000Y-55675000D03*
X240514000Y-54405000D03*
X240514000Y-53135000D03*
D59*
X237800000Y-55040000D03*
%TD*%
D18*
%TO.C,R135*%
X210010000Y-93000000D03*
X208990000Y-93000000D03*
%TD*%
D15*
%TO.C,C142*%
X112340000Y-45750000D03*
X112340000Y-44790000D03*
%TD*%
D60*
%TO.C,S2*%
X164600000Y-78300000D03*
X172600000Y-78300000D03*
X164600000Y-82800000D03*
X172600000Y-82800000D03*
%TD*%
D27*
%TO.C,R37*%
X155120000Y-49430000D03*
X155120000Y-48410000D03*
%TD*%
D33*
%TO.C,TP22*%
X173400000Y-72200000D03*
%TD*%
D31*
%TO.C,C177*%
X227325000Y-95400000D03*
X225775000Y-95400000D03*
%TD*%
D10*
%TO.C,R2*%
X157130000Y-69160000D03*
X158150000Y-69160000D03*
%TD*%
D61*
%TO.C,C62*%
X196445001Y-84405000D03*
X198344999Y-84405000D03*
%TD*%
D17*
%TO.C,C359*%
X203225000Y-82970000D03*
X202265000Y-82970000D03*
%TD*%
D27*
%TO.C,R98*%
X261475000Y-113980000D03*
X261475000Y-112960000D03*
%TD*%
D62*
%TO.C,R94*%
X140619341Y-117190966D03*
X139898093Y-116469718D03*
%TD*%
D11*
%TO.C,C156*%
X210890000Y-116090000D03*
X210890000Y-117050000D03*
%TD*%
D10*
%TO.C,R140*%
X229340000Y-97160000D03*
X230360000Y-97160000D03*
%TD*%
D50*
%TO.C,C366*%
X124151992Y-80748008D03*
X125248008Y-79651992D03*
%TD*%
D18*
%TO.C,R104*%
X250045000Y-100980000D03*
X249025000Y-100980000D03*
%TD*%
D63*
%TO.C,C21*%
X194605000Y-56135192D03*
X194605000Y-59085192D03*
%TD*%
D10*
%TO.C,R108*%
X195140000Y-105075000D03*
X196160000Y-105075000D03*
%TD*%
D33*
%TO.C,TP18*%
X175600000Y-110350000D03*
%TD*%
D10*
%TO.C,R33*%
X242840000Y-58730000D03*
X243860000Y-58730000D03*
%TD*%
D33*
%TO.C,TP10*%
X221950000Y-111800000D03*
%TD*%
D18*
%TO.C,R12*%
X196210000Y-101750000D03*
X195190000Y-101750000D03*
%TD*%
D53*
%TO.C,J2*%
X259505000Y-75555500D03*
X259505000Y-62855500D03*
D54*
X244265000Y-64130500D03*
X244265000Y-66160500D03*
X244265000Y-68190500D03*
X244265000Y-70220500D03*
X244265000Y-72250500D03*
X244265000Y-74280500D03*
X241725000Y-63110500D03*
X241725000Y-65130500D03*
X241725000Y-67170500D03*
X241725000Y-71250500D03*
X241725000Y-73290500D03*
X241725000Y-75300500D03*
X239185000Y-63110500D03*
X239185000Y-65650500D03*
X239185000Y-72760500D03*
X239185000Y-75300500D03*
D55*
X251375000Y-63108500D03*
X251375000Y-75302500D03*
X252845000Y-63108500D03*
X252845000Y-75302500D03*
D56*
X262685000Y-77270500D03*
X262685000Y-61140500D03*
%TD*%
D21*
%TO.C,D7*%
X199575000Y-107540000D03*
X198000000Y-107540000D03*
%TD*%
D23*
%TO.C,R3*%
X112150000Y-111290000D03*
X112150000Y-112310000D03*
%TD*%
D52*
%TO.C,IC9*%
X127273613Y-82563949D03*
X127839298Y-81998264D03*
X128404983Y-81432578D03*
X130667725Y-79169836D03*
X131233411Y-78604151D03*
X131799096Y-78038466D03*
X127839298Y-83129634D03*
X128404983Y-82563949D03*
X128970669Y-81998264D03*
X131233411Y-79735522D03*
X131799096Y-79169836D03*
X132364781Y-78604151D03*
X128404983Y-83695320D03*
X128970669Y-83129634D03*
X129536354Y-82563949D03*
X131799096Y-80301207D03*
X132364781Y-79735522D03*
X132930467Y-79169836D03*
X128970669Y-84261005D03*
X129536354Y-83695320D03*
X130102040Y-83129634D03*
X132364781Y-80866893D03*
X132930467Y-80301207D03*
X133496152Y-79735522D03*
X129536354Y-84826691D03*
X130102040Y-84261005D03*
X130667725Y-83695320D03*
X132930467Y-81432578D03*
X133496152Y-80866893D03*
X134061838Y-80301207D03*
X130102040Y-85392376D03*
X130667725Y-84826691D03*
X131233411Y-84261005D03*
X133496152Y-81998264D03*
X134061838Y-81432578D03*
X134627523Y-80866893D03*
X130667725Y-85958062D03*
X131233411Y-85392376D03*
X131799096Y-84826691D03*
X134061838Y-82563949D03*
X134627523Y-81998264D03*
X135193209Y-81432578D03*
X131233411Y-86523747D03*
X131799096Y-85958062D03*
X132364781Y-85392376D03*
X134627523Y-83129634D03*
X135193209Y-82563949D03*
X135758894Y-81998264D03*
X131799096Y-87089432D03*
X132364781Y-86523747D03*
X132930467Y-85958062D03*
X135193209Y-83695320D03*
X135758894Y-83129634D03*
X136324579Y-82563949D03*
X132364781Y-87655118D03*
X132930467Y-87089432D03*
X133496152Y-86523747D03*
X135758894Y-84261005D03*
X136324579Y-83695320D03*
X136890265Y-83129634D03*
X132930467Y-88220803D03*
X133496152Y-87655118D03*
X134061838Y-87089432D03*
X136324579Y-84826691D03*
X136890265Y-84261005D03*
X137455950Y-83695320D03*
X133496152Y-88786489D03*
X134061838Y-88220803D03*
X134627523Y-87655118D03*
X136890265Y-85392376D03*
X137455950Y-84826691D03*
X138021636Y-84261005D03*
X134061838Y-89352174D03*
X134627523Y-88786489D03*
X135193209Y-88220803D03*
X137455950Y-85958062D03*
X138021636Y-85392376D03*
X138587321Y-84826691D03*
X134627523Y-89917860D03*
X135193209Y-89352174D03*
X135758894Y-88786489D03*
X138021636Y-86523747D03*
X138587321Y-85958062D03*
X139153007Y-85392376D03*
X135193209Y-90483545D03*
X135758894Y-89917860D03*
X136324579Y-89352174D03*
X138587321Y-87089432D03*
X139153007Y-86523747D03*
X139718692Y-85958062D03*
X135758894Y-91049230D03*
X136324579Y-90483545D03*
X136890265Y-89917860D03*
X139153007Y-87655118D03*
X139718692Y-87089432D03*
X140284377Y-86523747D03*
%TD*%
D38*
%TO.C,J15*%
X163880000Y-100700000D03*
X163880000Y-96800000D03*
X165150000Y-100700000D03*
X165150000Y-96800000D03*
X166420000Y-100700000D03*
X166420000Y-96800000D03*
%TD*%
D33*
%TO.C,TP9*%
X206240000Y-110950000D03*
%TD*%
D10*
%TO.C,R109*%
X195340000Y-103975000D03*
X196360000Y-103975000D03*
%TD*%
D23*
%TO.C,R22*%
X214900000Y-110790000D03*
X214900000Y-111810000D03*
%TD*%
D18*
%TO.C,R136*%
X207230000Y-94580000D03*
X206210000Y-94580000D03*
%TD*%
D64*
%TO.C,IC4*%
X208145000Y-54368486D03*
X206875000Y-54368486D03*
X205605000Y-54368486D03*
X204335000Y-54368486D03*
X204335000Y-59792486D03*
X205605000Y-59792486D03*
X206875000Y-59792486D03*
X208145000Y-59792486D03*
D65*
X206240000Y-57080486D03*
%TD*%
D33*
%TO.C,TP19*%
X178550000Y-77380000D03*
%TD*%
D10*
%TO.C,R76*%
X200450000Y-82030000D03*
X201470000Y-82030000D03*
%TD*%
D34*
%TO.C,C93*%
X141560589Y-85460589D03*
X142239411Y-86139411D03*
%TD*%
D33*
%TO.C,TP8*%
X207600000Y-108550000D03*
%TD*%
D10*
%TO.C,R35*%
X153000000Y-42680000D03*
X154020000Y-42680000D03*
%TD*%
D33*
%TO.C,TP2*%
X198400000Y-92000000D03*
%TD*%
D10*
%TO.C,R16*%
X187690000Y-92800000D03*
X188710000Y-92800000D03*
%TD*%
D66*
%TO.C,IC14*%
X213140000Y-98530000D03*
X213140000Y-98030000D03*
X213140000Y-97530000D03*
X213140000Y-97030000D03*
X213140000Y-96530000D03*
X213140000Y-96030000D03*
D67*
X212390000Y-95280000D03*
X211890000Y-95280000D03*
X211390000Y-95280000D03*
X210890000Y-95280000D03*
X210390000Y-95280000D03*
X209890000Y-95280000D03*
D66*
X209140000Y-96030000D03*
X209140000Y-96530000D03*
X209140000Y-97030000D03*
X209140000Y-97530000D03*
X209140000Y-98030000D03*
X209140000Y-98530000D03*
D67*
X209890000Y-99280000D03*
X210390000Y-99280000D03*
X210890000Y-99280000D03*
X211390000Y-99280000D03*
X211890000Y-99280000D03*
X212390000Y-99280000D03*
D68*
X211140000Y-97280000D03*
%TD*%
D23*
%TO.C,R43*%
X203450000Y-51490000D03*
X203450000Y-52510000D03*
%TD*%
D64*
%TO.C,IC2*%
X192430000Y-48528192D03*
X191160000Y-48528192D03*
X189890000Y-48528192D03*
X188620000Y-48528192D03*
X188620000Y-53952192D03*
X189890000Y-53952192D03*
X191160000Y-53952192D03*
X192430000Y-53952192D03*
D65*
X190525000Y-51240192D03*
%TD*%
D69*
%TO.C,FB3*%
X206980000Y-118530000D03*
X207780000Y-118530000D03*
%TD*%
D11*
%TO.C,C27*%
X192745000Y-55740192D03*
X192745000Y-56700192D03*
%TD*%
D70*
%TO.C,C165*%
X241900000Y-109550000D03*
X247800000Y-109550000D03*
%TD*%
D23*
%TO.C,R50*%
X189375000Y-45590192D03*
X189375000Y-46610192D03*
%TD*%
%TO.C,R64*%
X208130000Y-72300000D03*
X208130000Y-73320000D03*
%TD*%
D11*
%TO.C,C28*%
X208460000Y-61530000D03*
X208460000Y-62490000D03*
%TD*%
%TO.C,C60*%
X161580000Y-111610000D03*
X161580000Y-112570000D03*
%TD*%
D71*
%TO.C,F2*%
X249010000Y-49200000D03*
X254240000Y-49200000D03*
%TD*%
D15*
%TO.C,C144*%
X111330000Y-45760000D03*
X111330000Y-44800000D03*
%TD*%
%TO.C,C225*%
X145400000Y-61630000D03*
X145400000Y-60670000D03*
%TD*%
D31*
%TO.C,C53*%
X209075000Y-67190000D03*
X207525000Y-67190000D03*
%TD*%
D18*
%TO.C,R139*%
X227610000Y-97160000D03*
X226590000Y-97160000D03*
%TD*%
D11*
%TO.C,C18*%
X165330000Y-43970000D03*
X165330000Y-44930000D03*
%TD*%
D15*
%TO.C,C67*%
X216810000Y-86955000D03*
X216810000Y-85995000D03*
%TD*%
D18*
%TO.C,R7*%
X158380000Y-108590000D03*
X157360000Y-108590000D03*
%TD*%
D33*
%TO.C,TP12*%
X228350000Y-114500000D03*
%TD*%
D72*
%TO.C,C17*%
X178100000Y-43000000D03*
X178100000Y-51700000D03*
%TD*%
D20*
%TO.C,C100*%
X138798128Y-117419753D03*
X138119306Y-116740931D03*
%TD*%
D28*
%TO.C,C4*%
X225430000Y-53505000D03*
X225430000Y-50555000D03*
%TD*%
D49*
%TO.C,C49*%
X172605000Y-58800000D03*
X172605000Y-56900000D03*
%TD*%
D43*
%TO.C,U11*%
X141280000Y-99820000D03*
X142080000Y-99820000D03*
X142880000Y-99820000D03*
X143680000Y-99820000D03*
X144480000Y-99820000D03*
X145280000Y-99820000D03*
X146080000Y-99820000D03*
X146880000Y-99820000D03*
X147680000Y-99820000D03*
X148480000Y-99820000D03*
X149280000Y-99820000D03*
X150080000Y-99820000D03*
X150880000Y-99820000D03*
X151680000Y-99820000D03*
X152480000Y-99820000D03*
X153280000Y-99820000D03*
X154080000Y-99820000D03*
X154880000Y-99820000D03*
X141280000Y-100620000D03*
X142080000Y-100620000D03*
X142880000Y-100620000D03*
X143680000Y-100620000D03*
X144480000Y-100620000D03*
X145280000Y-100620000D03*
X146080000Y-100620000D03*
X146880000Y-100620000D03*
X147680000Y-100620000D03*
X148480000Y-100620000D03*
X149280000Y-100620000D03*
X150080000Y-100620000D03*
X150880000Y-100620000D03*
X151680000Y-100620000D03*
X152480000Y-100620000D03*
X153280000Y-100620000D03*
X154080000Y-100620000D03*
X154880000Y-100620000D03*
X141280000Y-101420000D03*
X142080000Y-101420000D03*
X142880000Y-101420000D03*
X143680000Y-101420000D03*
X144480000Y-101420000D03*
X145280000Y-101420000D03*
X146080000Y-101420000D03*
X146880000Y-101420000D03*
X147680000Y-101420000D03*
X148480000Y-101420000D03*
X149280000Y-101420000D03*
X150080000Y-101420000D03*
X150880000Y-101420000D03*
X151680000Y-101420000D03*
X152480000Y-101420000D03*
X153280000Y-101420000D03*
X154080000Y-101420000D03*
X154880000Y-101420000D03*
X141280000Y-102220000D03*
X142080000Y-102220000D03*
X142880000Y-102220000D03*
X143680000Y-102220000D03*
X144480000Y-102220000D03*
X145280000Y-102220000D03*
X146080000Y-102220000D03*
X146880000Y-102220000D03*
X147680000Y-102220000D03*
X148480000Y-102220000D03*
X149280000Y-102220000D03*
X150080000Y-102220000D03*
X150880000Y-102220000D03*
X151680000Y-102220000D03*
X152480000Y-102220000D03*
X153280000Y-102220000D03*
X154080000Y-102220000D03*
X154880000Y-102220000D03*
X141280000Y-103020000D03*
X142080000Y-103020000D03*
X142880000Y-103020000D03*
X143680000Y-103020000D03*
X144480000Y-103020000D03*
X145280000Y-103020000D03*
X146080000Y-103020000D03*
X146880000Y-103020000D03*
X147680000Y-103020000D03*
X148480000Y-103020000D03*
X149280000Y-103020000D03*
X150080000Y-103020000D03*
X150880000Y-103020000D03*
X151680000Y-103020000D03*
X152480000Y-103020000D03*
X153280000Y-103020000D03*
X154080000Y-103020000D03*
X154880000Y-103020000D03*
X141280000Y-103820000D03*
X142080000Y-103820000D03*
X142880000Y-103820000D03*
X143680000Y-103820000D03*
X144480000Y-103820000D03*
X145280000Y-103820000D03*
X146080000Y-103820000D03*
X146880000Y-103820000D03*
X147680000Y-103820000D03*
X148480000Y-103820000D03*
X149280000Y-103820000D03*
X150080000Y-103820000D03*
X150880000Y-103820000D03*
X151680000Y-103820000D03*
X152480000Y-103820000D03*
X153280000Y-103820000D03*
X154080000Y-103820000D03*
X154880000Y-103820000D03*
X141280000Y-104620000D03*
X142080000Y-104620000D03*
X142880000Y-104620000D03*
X143680000Y-104620000D03*
X144480000Y-104620000D03*
X145280000Y-104620000D03*
X146080000Y-104620000D03*
X146880000Y-104620000D03*
X147680000Y-104620000D03*
X148480000Y-104620000D03*
X149280000Y-104620000D03*
X150080000Y-104620000D03*
X150880000Y-104620000D03*
X151680000Y-104620000D03*
X152480000Y-104620000D03*
X153280000Y-104620000D03*
X154080000Y-104620000D03*
X154880000Y-104620000D03*
X141280000Y-105420000D03*
X142080000Y-105420000D03*
X142880000Y-105420000D03*
X143680000Y-105420000D03*
X144480000Y-105420000D03*
X145280000Y-105420000D03*
X146080000Y-105420000D03*
X146880000Y-105420000D03*
X147680000Y-105420000D03*
X148480000Y-105420000D03*
X149280000Y-105420000D03*
X150080000Y-105420000D03*
X150880000Y-105420000D03*
X151680000Y-105420000D03*
X152480000Y-105420000D03*
X153280000Y-105420000D03*
X154080000Y-105420000D03*
X154880000Y-105420000D03*
X141280000Y-106220000D03*
X142080000Y-106220000D03*
X142880000Y-106220000D03*
X143680000Y-106220000D03*
X144480000Y-106220000D03*
X145280000Y-106220000D03*
X146080000Y-106220000D03*
X146880000Y-106220000D03*
X147680000Y-106220000D03*
X148480000Y-106220000D03*
X149280000Y-106220000D03*
X150080000Y-106220000D03*
X150880000Y-106220000D03*
X151680000Y-106220000D03*
X152480000Y-106220000D03*
X153280000Y-106220000D03*
X154080000Y-106220000D03*
X154880000Y-106220000D03*
X141280000Y-107020000D03*
X142080000Y-107020000D03*
X142880000Y-107020000D03*
X143680000Y-107020000D03*
X144480000Y-107020000D03*
X145280000Y-107020000D03*
X146080000Y-107020000D03*
X146880000Y-107020000D03*
X147680000Y-107020000D03*
X148480000Y-107020000D03*
X149280000Y-107020000D03*
X150080000Y-107020000D03*
X150880000Y-107020000D03*
X151680000Y-107020000D03*
X152480000Y-107020000D03*
X153280000Y-107020000D03*
X154080000Y-107020000D03*
X154880000Y-107020000D03*
X141280000Y-107820000D03*
X142080000Y-107820000D03*
X142880000Y-107820000D03*
X143680000Y-107820000D03*
X144480000Y-107820000D03*
X145280000Y-107820000D03*
X146080000Y-107820000D03*
X146880000Y-107820000D03*
X147680000Y-107820000D03*
X148480000Y-107820000D03*
X149280000Y-107820000D03*
X150080000Y-107820000D03*
X150880000Y-107820000D03*
X151680000Y-107820000D03*
X152480000Y-107820000D03*
X153280000Y-107820000D03*
X154080000Y-107820000D03*
X154880000Y-107820000D03*
X141280000Y-108620000D03*
X142080000Y-108620000D03*
X142880000Y-108620000D03*
X143680000Y-108620000D03*
X144480000Y-108620000D03*
X145280000Y-108620000D03*
X146080000Y-108620000D03*
X146880000Y-108620000D03*
X147680000Y-108620000D03*
X148480000Y-108620000D03*
X149280000Y-108620000D03*
X150080000Y-108620000D03*
X150880000Y-108620000D03*
X151680000Y-108620000D03*
X152480000Y-108620000D03*
X153280000Y-108620000D03*
X154080000Y-108620000D03*
X154880000Y-108620000D03*
X141280000Y-109420000D03*
X142080000Y-109420000D03*
X142880000Y-109420000D03*
X143680000Y-109420000D03*
X144480000Y-109420000D03*
X145280000Y-109420000D03*
X146080000Y-109420000D03*
X146880000Y-109420000D03*
X147680000Y-109420000D03*
X148480000Y-109420000D03*
X149280000Y-109420000D03*
X150080000Y-109420000D03*
X150880000Y-109420000D03*
X151680000Y-109420000D03*
X152480000Y-109420000D03*
X153280000Y-109420000D03*
X154080000Y-109420000D03*
X154880000Y-109420000D03*
X141280000Y-110220000D03*
X142080000Y-110220000D03*
X142880000Y-110220000D03*
X143680000Y-110220000D03*
X144480000Y-110220000D03*
X145280000Y-110220000D03*
X146080000Y-110220000D03*
X146880000Y-110220000D03*
X147680000Y-110220000D03*
X148480000Y-110220000D03*
X149280000Y-110220000D03*
X150080000Y-110220000D03*
X150880000Y-110220000D03*
X151680000Y-110220000D03*
X152480000Y-110220000D03*
X153280000Y-110220000D03*
X154080000Y-110220000D03*
X154880000Y-110220000D03*
X141280000Y-111020000D03*
X142080000Y-111020000D03*
X142880000Y-111020000D03*
X143680000Y-111020000D03*
X144480000Y-111020000D03*
X145280000Y-111020000D03*
X146080000Y-111020000D03*
X146880000Y-111020000D03*
X147680000Y-111020000D03*
X148480000Y-111020000D03*
X149280000Y-111020000D03*
X150080000Y-111020000D03*
X150880000Y-111020000D03*
X151680000Y-111020000D03*
X152480000Y-111020000D03*
X153280000Y-111020000D03*
X154080000Y-111020000D03*
X154880000Y-111020000D03*
X141280000Y-111820000D03*
X142080000Y-111820000D03*
X142880000Y-111820000D03*
X143680000Y-111820000D03*
X144480000Y-111820000D03*
X145280000Y-111820000D03*
X146080000Y-111820000D03*
X146880000Y-111820000D03*
X147680000Y-111820000D03*
X148480000Y-111820000D03*
X149280000Y-111820000D03*
X150080000Y-111820000D03*
X150880000Y-111820000D03*
X151680000Y-111820000D03*
X152480000Y-111820000D03*
X153280000Y-111820000D03*
X154080000Y-111820000D03*
X154880000Y-111820000D03*
X141280000Y-112620000D03*
X142080000Y-112620000D03*
X142880000Y-112620000D03*
X143680000Y-112620000D03*
X144480000Y-112620000D03*
X145280000Y-112620000D03*
X146080000Y-112620000D03*
X146880000Y-112620000D03*
X147680000Y-112620000D03*
X148480000Y-112620000D03*
X149280000Y-112620000D03*
X150080000Y-112620000D03*
X150880000Y-112620000D03*
X151680000Y-112620000D03*
X152480000Y-112620000D03*
X153280000Y-112620000D03*
X154080000Y-112620000D03*
X154880000Y-112620000D03*
X141280000Y-113420000D03*
X142080000Y-113420000D03*
X142880000Y-113420000D03*
X143680000Y-113420000D03*
X144480000Y-113420000D03*
X145280000Y-113420000D03*
X146080000Y-113420000D03*
X146880000Y-113420000D03*
X147680000Y-113420000D03*
X148480000Y-113420000D03*
X149280000Y-113420000D03*
X150080000Y-113420000D03*
X150880000Y-113420000D03*
X151680000Y-113420000D03*
X152480000Y-113420000D03*
X153280000Y-113420000D03*
X154080000Y-113420000D03*
X154880000Y-113420000D03*
%TD*%
D11*
%TO.C,C32*%
X204500000Y-51520000D03*
X204500000Y-52480000D03*
%TD*%
D73*
%TO.C,L10*%
X209865000Y-114850000D03*
X208895000Y-114850000D03*
%TD*%
D18*
%TO.C,R163*%
X166150000Y-94590000D03*
X165130000Y-94590000D03*
%TD*%
D50*
%TO.C,C186*%
X123410709Y-115078350D03*
X124506725Y-113982334D03*
%TD*%
D11*
%TO.C,C20*%
X160200000Y-48720000D03*
X160200000Y-49680000D03*
%TD*%
D41*
%TO.C,J6*%
X161710000Y-89900000D03*
X161710000Y-86600000D03*
X162710000Y-89900000D03*
X162710000Y-86600000D03*
X163710000Y-89900000D03*
X163710000Y-86600000D03*
X164710000Y-89900000D03*
X164710000Y-86600000D03*
X165710000Y-89900000D03*
X165710000Y-86600000D03*
X166710000Y-89900000D03*
X166710000Y-86600000D03*
X167710000Y-89900000D03*
X167710000Y-86600000D03*
X168710000Y-89900000D03*
X168710000Y-86600000D03*
X169710000Y-89900000D03*
X169710000Y-86600000D03*
X170710000Y-89900000D03*
X170710000Y-86600000D03*
%TD*%
D33*
%TO.C,TP11*%
X226150000Y-111800000D03*
%TD*%
D12*
%TO.C,J16*%
X121550000Y-50550000D03*
D13*
X121550000Y-48550000D03*
%TD*%
D17*
%TO.C,C358*%
X203060000Y-79050000D03*
X202100000Y-79050000D03*
%TD*%
D23*
%TO.C,R63*%
X211320000Y-74795000D03*
X211320000Y-75815000D03*
%TD*%
D74*
%TO.C,Y2*%
X218475000Y-119275000D03*
X217075000Y-119275000D03*
X217075000Y-120375000D03*
X218475000Y-120375000D03*
%TD*%
D15*
%TO.C,C37*%
X159100000Y-40780000D03*
X159100000Y-39820000D03*
%TD*%
D20*
%TO.C,C86*%
X130139411Y-87589411D03*
X129460589Y-86910589D03*
%TD*%
D33*
%TO.C,TP21*%
X173800000Y-114200000D03*
%TD*%
D16*
%TO.C,C40*%
X205850000Y-37600000D03*
X206810000Y-37600000D03*
%TD*%
D63*
%TO.C,C14*%
X226200000Y-44050000D03*
X226200000Y-47000000D03*
%TD*%
D75*
%TO.C,R95*%
X141298093Y-116490966D03*
X142019341Y-115769718D03*
%TD*%
D76*
%TO.C,IC6*%
X170651000Y-71394500D03*
X170651000Y-70760500D03*
X170651000Y-70124500D03*
X170651000Y-69490500D03*
X170651000Y-68854500D03*
X170651000Y-68220500D03*
X170651000Y-67584500D03*
X170651000Y-66950500D03*
X165229000Y-66950500D03*
X165229000Y-67584500D03*
X165229000Y-68220500D03*
X165229000Y-68854500D03*
X165229000Y-69490500D03*
X165229000Y-70124500D03*
X165229000Y-70760500D03*
X165229000Y-71394500D03*
%TD*%
D35*
%TO.C,D14*%
X125155000Y-102882500D03*
X125155000Y-101307500D03*
%TD*%
D34*
%TO.C,C117*%
X139369306Y-118290931D03*
X140048128Y-118969753D03*
%TD*%
D18*
%TO.C,R124*%
X245304999Y-120259998D03*
X244284999Y-120259998D03*
%TD*%
D63*
%TO.C,C24*%
X197095000Y-56135192D03*
X197095000Y-59085192D03*
%TD*%
D11*
%TO.C,C356*%
X159200000Y-48720000D03*
X159200000Y-49680000D03*
%TD*%
D16*
%TO.C,C169*%
X213970000Y-100420000D03*
X214930000Y-100420000D03*
%TD*%
D33*
%TO.C,TP20*%
X168775000Y-115200000D03*
%TD*%
D10*
%TO.C,R59*%
X197570000Y-80740000D03*
X198590000Y-80740000D03*
%TD*%
%TO.C,R34*%
X242840000Y-57650000D03*
X243860000Y-57650000D03*
%TD*%
D77*
%TO.C,D1*%
X240600000Y-49800000D03*
X244600000Y-49800000D03*
%TD*%
D60*
%TO.C,S3*%
X171780000Y-122150000D03*
X163780000Y-122150000D03*
X171780000Y-117650000D03*
X163780000Y-117650000D03*
%TD*%
D67*
%TO.C,IC13*%
X214450000Y-117860000D03*
X214950000Y-117860000D03*
X215450000Y-117860000D03*
X215950000Y-117860000D03*
X216450000Y-117860000D03*
X216950000Y-117860000D03*
D66*
X217700000Y-117110000D03*
X217700000Y-116610000D03*
X217700000Y-116110000D03*
X217700000Y-115610000D03*
X217700000Y-115110000D03*
X217700000Y-114610000D03*
D67*
X216950000Y-113860000D03*
X216450000Y-113860000D03*
X215950000Y-113860000D03*
X215450000Y-113860000D03*
X214950000Y-113860000D03*
X214450000Y-113860000D03*
D66*
X213700000Y-114610000D03*
X213700000Y-115110000D03*
X213700000Y-115610000D03*
X213700000Y-116110000D03*
X213700000Y-116610000D03*
X213700000Y-117110000D03*
D68*
X215700000Y-115860000D03*
%TD*%
D11*
%TO.C,C64*%
X203630000Y-84550000D03*
X203630000Y-85510000D03*
%TD*%
D18*
%TO.C,R161*%
X163860000Y-94590000D03*
X162840000Y-94590000D03*
%TD*%
D11*
%TO.C,C174*%
X209860000Y-100640000D03*
X209860000Y-101600000D03*
%TD*%
D18*
%TO.C,R120*%
X189870000Y-97580000D03*
X188850000Y-97580000D03*
%TD*%
D40*
%TO.C,C126*%
X159900000Y-89055000D03*
X159900000Y-87505000D03*
%TD*%
D10*
%TO.C,R40*%
X153000000Y-43970000D03*
X154020000Y-43970000D03*
%TD*%
D23*
%TO.C,R49*%
X191515000Y-45590192D03*
X191515000Y-46610192D03*
%TD*%
D78*
%TO.C,S1*%
X232960000Y-126910000D03*
X232960000Y-118910000D03*
X237460000Y-126910000D03*
X237460000Y-118910000D03*
%TD*%
D79*
%TO.C,U3*%
X163140677Y-42590853D03*
D80*
X160019020Y-42088100D03*
X159521180Y-42088100D03*
X159020800Y-42088100D03*
X158520420Y-42088100D03*
X158020040Y-42088100D03*
X157519660Y-42088100D03*
D81*
X156734800Y-42591020D03*
X156734800Y-43088860D03*
X156734800Y-43589240D03*
X156734800Y-44089620D03*
X156734800Y-44590000D03*
X156734800Y-45090380D03*
X156734800Y-45590760D03*
X156734800Y-46091140D03*
X156734800Y-46588980D03*
D80*
X157519660Y-47091900D03*
X158020040Y-47091900D03*
X158520420Y-47091900D03*
X159020800Y-47091900D03*
X159521180Y-47091900D03*
X160019020Y-47091900D03*
D82*
X160519398Y-46489146D03*
D83*
X163265140Y-47091900D03*
D84*
X160510000Y-44260000D03*
%TD*%
D15*
%TO.C,C172*%
X201520000Y-103750000D03*
X201520000Y-102790000D03*
%TD*%
D85*
%TO.C,L2*%
X206400000Y-47600000D03*
X206400000Y-42600000D03*
%TD*%
D62*
%TO.C,R88*%
X141360624Y-82860624D03*
X140639376Y-82139376D03*
%TD*%
D86*
%TO.C,L4*%
X134584400Y-44800000D03*
X129275800Y-44800000D03*
%TD*%
D22*
%TO.C,C92*%
X130310589Y-77239411D03*
X130989411Y-76560589D03*
%TD*%
D87*
%TO.C,U9*%
X248120000Y-123542500D03*
X247170000Y-123542500D03*
X246220000Y-123542500D03*
X246220000Y-125817500D03*
X248120000Y-125817500D03*
%TD*%
D88*
%TO.C,FB2*%
X109770000Y-44980000D03*
X109770000Y-45780000D03*
%TD*%
D17*
%TO.C,C131*%
X184280000Y-97200000D03*
X183320000Y-97200000D03*
%TD*%
D10*
%TO.C,R159*%
X135430000Y-58450000D03*
X136450000Y-58450000D03*
%TD*%
D89*
%TO.C,R27*%
X223425000Y-52035000D03*
X223425000Y-50385000D03*
%TD*%
D11*
%TO.C,C11*%
X233950000Y-44895000D03*
X233950000Y-45855000D03*
%TD*%
D18*
%TO.C,R162*%
X165530000Y-103060000D03*
X164510000Y-103060000D03*
%TD*%
D11*
%TO.C,C360*%
X205700000Y-84550000D03*
X205700000Y-85510000D03*
%TD*%
D15*
%TO.C,C176*%
X218400000Y-94080000D03*
X218400000Y-93120000D03*
%TD*%
D49*
%TO.C,C52*%
X174802500Y-58800000D03*
X174802500Y-56900000D03*
%TD*%
D15*
%TO.C,C171*%
X212780000Y-93790000D03*
X212780000Y-92830000D03*
%TD*%
%TO.C,C202*%
X168600000Y-97800000D03*
X168600000Y-96840000D03*
%TD*%
%TO.C,C148*%
X211470000Y-119510000D03*
X211470000Y-118550000D03*
%TD*%
D23*
%TO.C,R36*%
X153910000Y-48420000D03*
X153910000Y-49440000D03*
%TD*%
%TO.C,R73*%
X207320000Y-84540000D03*
X207320000Y-85560000D03*
%TD*%
D15*
%TO.C,C164*%
X249690000Y-125810000D03*
X249690000Y-124850000D03*
%TD*%
D27*
%TO.C,R134*%
X213000000Y-101820000D03*
X213000000Y-100800000D03*
%TD*%
D49*
%TO.C,C42*%
X179197500Y-58800000D03*
X179197500Y-56900000D03*
%TD*%
D11*
%TO.C,C43*%
X206690000Y-51720000D03*
X206690000Y-52680000D03*
%TD*%
D16*
%TO.C,C69*%
X212320000Y-78700000D03*
X213280000Y-78700000D03*
%TD*%
D22*
%TO.C,C112*%
X129530589Y-111639411D03*
X130209411Y-110960589D03*
%TD*%
D90*
%TO.C,C248*%
X159275000Y-62950000D03*
X162225000Y-62950000D03*
%TD*%
D18*
%TO.C,R155*%
X148810000Y-54470000D03*
X147790000Y-54470000D03*
%TD*%
D15*
%TO.C,C63*%
X214610000Y-86955000D03*
X214610000Y-85995000D03*
%TD*%
D91*
%TO.C,J7*%
X264220000Y-118610000D03*
X264220000Y-112830000D03*
D92*
X263160000Y-118920000D03*
X263160000Y-118120000D03*
D93*
X263160000Y-116970000D03*
X263160000Y-115970000D03*
X263160000Y-115470000D03*
X263160000Y-114470000D03*
D92*
X263160000Y-113320000D03*
X263160000Y-112520000D03*
X263160000Y-112520000D03*
X263160000Y-113320000D03*
D93*
X263160000Y-113970000D03*
X263160000Y-114970000D03*
X263160000Y-116470000D03*
X263160000Y-117470000D03*
D92*
X263160000Y-118120000D03*
X263160000Y-118920000D03*
D94*
X263740000Y-120040000D03*
D95*
X267910000Y-120040000D03*
D94*
X263740000Y-111400000D03*
D95*
X267910000Y-111400000D03*
%TD*%
D11*
%TO.C,C163*%
X243060000Y-124070000D03*
X243060000Y-125030000D03*
%TD*%
D96*
%TO.C,X1*%
X208970000Y-89805000D03*
X208970000Y-87705000D03*
X207320000Y-87705000D03*
X207320000Y-89805000D03*
%TD*%
D63*
%TO.C,C25*%
X212810000Y-61945000D03*
X212810000Y-64895000D03*
%TD*%
D31*
%TO.C,C115*%
X138755000Y-109330000D03*
X137205000Y-109330000D03*
%TD*%
D42*
%TO.C,C118*%
X141648128Y-117740931D03*
X140969306Y-118419753D03*
%TD*%
D16*
%TO.C,C153*%
X218870000Y-113350000D03*
X219830000Y-113350000D03*
%TD*%
D73*
%TO.C,L9*%
X211935000Y-114850000D03*
X210965000Y-114850000D03*
%TD*%
D23*
%TO.C,R117*%
X114500000Y-48470000D03*
X114500000Y-49490000D03*
%TD*%
D33*
%TO.C,TP15*%
X172500000Y-105900000D03*
%TD*%
D23*
%TO.C,R66*%
X205460000Y-72300000D03*
X205460000Y-73320000D03*
%TD*%
D63*
%TO.C,C13*%
X229210000Y-43900000D03*
X229210000Y-46850000D03*
%TD*%
D97*
%TO.C,U12*%
X210565600Y-82430001D03*
X210565600Y-82029999D03*
X210565600Y-81630000D03*
X210565600Y-81230001D03*
X210565600Y-80829999D03*
X210565600Y-80430000D03*
X210565600Y-80030000D03*
X210565600Y-79630001D03*
X210565600Y-79229999D03*
X210565600Y-78830000D03*
X210565600Y-78430001D03*
X210565600Y-78029999D03*
D98*
X209870001Y-77334400D03*
X209469999Y-77334400D03*
X209070000Y-77334400D03*
X208670001Y-77334400D03*
X208269999Y-77334400D03*
X207870000Y-77334400D03*
X207470000Y-77334400D03*
X207070001Y-77334400D03*
X206669999Y-77334400D03*
X206270000Y-77334400D03*
X205870001Y-77334400D03*
X205469999Y-77334400D03*
D97*
X204774400Y-78029999D03*
X204774400Y-78430001D03*
X204774400Y-78830000D03*
X204774400Y-79229999D03*
X204774400Y-79630001D03*
X204774400Y-80030000D03*
X204774400Y-80430000D03*
X204774400Y-80829999D03*
X204774400Y-81230001D03*
X204774400Y-81630000D03*
X204774400Y-82029999D03*
X204774400Y-82430001D03*
D98*
X205469999Y-83125600D03*
X205870001Y-83125600D03*
X206270000Y-83125600D03*
X206669999Y-83125600D03*
X207070001Y-83125600D03*
X207470000Y-83125600D03*
X207870000Y-83125600D03*
X208269999Y-83125600D03*
X208670001Y-83125600D03*
X209070000Y-83125600D03*
X209469999Y-83125600D03*
X209870001Y-83125600D03*
D99*
X207670000Y-80230000D03*
%TD*%
D16*
%TO.C,C250*%
X157160000Y-77780000D03*
X158120000Y-77780000D03*
%TD*%
D20*
%TO.C,C77*%
X139539411Y-83089411D03*
X138860589Y-82410589D03*
%TD*%
D100*
%TO.C,Z1*%
X220700000Y-55800000D03*
X220700000Y-52300000D03*
%TD*%
D101*
%TO.C,D10*%
X235350000Y-92500000D03*
X234400000Y-92500000D03*
X233450000Y-92500000D03*
X233450000Y-95100000D03*
X234400000Y-95100000D03*
X235350000Y-95100000D03*
%TD*%
D33*
%TO.C,TP6*%
X217550000Y-109900000D03*
%TD*%
D102*
%TO.C,D3*%
X249450000Y-53000000D03*
X253800000Y-53000000D03*
%TD*%
D23*
%TO.C,R114*%
X187530000Y-108610000D03*
X187530000Y-109630000D03*
%TD*%
D15*
%TO.C,C68*%
X209270000Y-75770000D03*
X209270000Y-74810000D03*
%TD*%
D63*
%TO.C,C22*%
X210320000Y-61925000D03*
X210320000Y-64875000D03*
%TD*%
D31*
%TO.C,C98*%
X138705000Y-72840000D03*
X137155000Y-72840000D03*
%TD*%
D75*
%TO.C,R89*%
X142039376Y-82160624D03*
X142760624Y-81439376D03*
%TD*%
D10*
%TO.C,R54*%
X138555000Y-49900000D03*
X139575000Y-49900000D03*
%TD*%
D18*
%TO.C,R141*%
X232410000Y-101800000D03*
X231390000Y-101800000D03*
%TD*%
D36*
%TO.C,C355*%
X167200000Y-43500000D03*
X167200000Y-45400000D03*
%TD*%
D57*
%TO.C,C161*%
X234390000Y-109505000D03*
X235940000Y-109505000D03*
%TD*%
D18*
%TO.C,R57*%
X211380000Y-73755000D03*
X210360000Y-73755000D03*
%TD*%
D33*
%TO.C,TP5*%
X193200000Y-73500000D03*
%TD*%
D15*
%TO.C,C36*%
X207000000Y-62510000D03*
X207000000Y-61550000D03*
%TD*%
D35*
%TO.C,D15*%
X139125000Y-52775000D03*
X139125000Y-51199998D03*
%TD*%
D31*
%TO.C,C48*%
X207675000Y-40570000D03*
X206125000Y-40570000D03*
%TD*%
D33*
%TO.C,TP1*%
X178100000Y-92000000D03*
%TD*%
D50*
%TO.C,C365*%
X125201992Y-81798008D03*
X126298008Y-80701992D03*
%TD*%
D18*
%TO.C,R119*%
X187760000Y-97610000D03*
X186740000Y-97610000D03*
%TD*%
D40*
%TO.C,C29*%
X211800000Y-45000000D03*
X211800000Y-43450000D03*
%TD*%
D103*
%TO.C,L7*%
X212820000Y-87945000D03*
X212820000Y-84795000D03*
%TD*%
D76*
%TO.C,IC8*%
X168621000Y-111624500D03*
X168621000Y-110990500D03*
X168621000Y-110354500D03*
X168621000Y-109720500D03*
X168621000Y-109084500D03*
X168621000Y-108450500D03*
X168621000Y-107814500D03*
X168621000Y-107180500D03*
X163199000Y-107180500D03*
X163199000Y-107814500D03*
X163199000Y-108450500D03*
X163199000Y-109084500D03*
X163199000Y-109720500D03*
X163199000Y-110354500D03*
X163199000Y-110990500D03*
X163199000Y-111624500D03*
%TD*%
D28*
%TO.C,C6*%
X230772500Y-53505000D03*
X230772500Y-50555000D03*
%TD*%
D23*
%TO.C,R60*%
X212645000Y-74795000D03*
X212645000Y-75815000D03*
%TD*%
D104*
%TO.C,R123*%
X244440000Y-123765000D03*
X244440000Y-125415000D03*
%TD*%
D55*
%TO.C,J12*%
X258870000Y-125625000D03*
D105*
X268020000Y-125625000D03*
D106*
X258170000Y-122250000D03*
X258170000Y-129000000D03*
X261370000Y-122250000D03*
X261370000Y-129000000D03*
X264570000Y-122250000D03*
X264570000Y-129000000D03*
X268070000Y-122250000D03*
X268070000Y-129000000D03*
%TD*%
D40*
%TO.C,C7*%
X233023750Y-53615000D03*
X233023750Y-52065000D03*
%TD*%
D63*
%TO.C,C15*%
X223190000Y-44010000D03*
X223190000Y-46960000D03*
%TD*%
D23*
%TO.C,R97*%
X261475000Y-116970000D03*
X261475000Y-117990000D03*
%TD*%
D11*
%TO.C,C70*%
X208325000Y-84770000D03*
X208325000Y-85730000D03*
%TD*%
D20*
%TO.C,C82*%
X128789411Y-86239411D03*
X128110589Y-85560589D03*
%TD*%
D23*
%TO.C,R4*%
X173080000Y-67820000D03*
X173080000Y-68840000D03*
%TD*%
D57*
%TO.C,C180*%
X233825000Y-100400000D03*
X235375000Y-100400000D03*
%TD*%
D10*
%TO.C,R61*%
X206255000Y-71220000D03*
X207275000Y-71220000D03*
%TD*%
D18*
%TO.C,R160*%
X163390000Y-103060000D03*
X162370000Y-103060000D03*
%TD*%
D16*
%TO.C,C50*%
X191525000Y-60340000D03*
X192485000Y-60340000D03*
%TD*%
D33*
%TO.C,TP4*%
X200550000Y-73500000D03*
%TD*%
D27*
%TO.C,R164*%
X173950000Y-118660000D03*
X173950000Y-117640000D03*
%TD*%
D102*
%TO.C,D2*%
X232535000Y-41325000D03*
X228185000Y-41325000D03*
%TD*%
D16*
%TO.C,C9*%
X243270000Y-56150000D03*
X244230000Y-56150000D03*
%TD*%
D107*
%TO.C,L1*%
X242000000Y-43800000D03*
X235950000Y-43800000D03*
%TD*%
D33*
%TO.C,TP17*%
X160950000Y-109450000D03*
%TD*%
D44*
%TO.C,J3*%
X249410000Y-42000000D03*
X262660000Y-38500000D03*
D108*
X260760000Y-39500000D03*
X260180000Y-40500000D03*
X259600000Y-39500000D03*
X259020000Y-40500000D03*
X258440000Y-39500000D03*
X257860000Y-40500000D03*
X257280000Y-39500000D03*
X256700000Y-40500000D03*
X256120000Y-39500000D03*
X255540000Y-40500000D03*
X254960000Y-39500000D03*
X254380000Y-40500000D03*
X253800000Y-39500000D03*
X253220000Y-40500000D03*
X252640000Y-39500000D03*
X252060000Y-40500000D03*
X251480000Y-39500000D03*
X250900000Y-40500000D03*
X250320000Y-39500000D03*
D109*
X252510000Y-43250000D03*
X261510000Y-43250000D03*
X249410000Y-36750000D03*
X258910000Y-36750000D03*
%TD*%
D63*
%TO.C,C12*%
X232220000Y-43900000D03*
X232220000Y-46850000D03*
%TD*%
D10*
%TO.C,R31*%
X232090000Y-57200000D03*
X233110000Y-57200000D03*
%TD*%
D11*
%TO.C,C155*%
X211890000Y-116080000D03*
X211890000Y-117040000D03*
%TD*%
D110*
%TO.C,J4*%
X106312500Y-106700000D03*
X106312500Y-105700000D03*
X106312500Y-104700000D03*
X106312500Y-103700000D03*
X106312500Y-102700000D03*
X106312500Y-101700000D03*
X106312500Y-100700000D03*
X106312500Y-99700000D03*
X106312500Y-98700000D03*
X106312500Y-97700000D03*
X106312500Y-96700000D03*
X106312500Y-93700000D03*
X106312500Y-92700000D03*
X106312500Y-91700000D03*
X106312500Y-90700000D03*
X106312500Y-89700000D03*
X106312500Y-88700000D03*
X106312500Y-87700000D03*
X106312500Y-86700000D03*
X106312500Y-85700000D03*
X106312500Y-84700000D03*
X106312500Y-83700000D03*
X106312500Y-82700000D03*
X106312500Y-81700000D03*
X106312500Y-80700000D03*
X106312500Y-79700000D03*
X106312500Y-78700000D03*
X106312500Y-77700000D03*
X106312500Y-76700000D03*
X106312500Y-75700000D03*
X106312500Y-74700000D03*
X106312500Y-73700000D03*
X106312500Y-72700000D03*
X106312500Y-71700000D03*
X106312500Y-70700000D03*
X106312500Y-69700000D03*
X106312500Y-68700000D03*
X106312500Y-67700000D03*
X106312500Y-66700000D03*
X106312500Y-65700000D03*
X106312500Y-64700000D03*
X106312500Y-63700000D03*
X106312500Y-62700000D03*
X106312500Y-61700000D03*
X106312500Y-60700000D03*
X106312500Y-59700000D03*
X106312500Y-58700000D03*
X106312500Y-57700000D03*
X106312500Y-56700000D03*
%TD*%
G36*
X208643039Y-114119685D02*
G01*
X208688794Y-114172489D01*
X208700000Y-114224000D01*
X208700000Y-115176000D01*
X208680315Y-115243039D01*
X208627511Y-115288794D01*
X208576000Y-115300000D01*
X203524000Y-115300000D01*
X203456961Y-115280315D01*
X203411206Y-115227511D01*
X203400000Y-115176000D01*
X203400000Y-114224000D01*
X203419685Y-114156961D01*
X203472489Y-114111206D01*
X203524000Y-114100000D01*
X208576000Y-114100000D01*
X208643039Y-114119685D01*
G37*
M02*
