M48
; DRILL file {KiCad 8.0.8} date 2025-02-03T01:07:12+0100
; FORMAT={-:-/ absolute / inch / decimal}
; #@! TF.CreationDate,2025-02-03T01:07:12+01:00
; #@! TF.GenerationSoftware,Kicad,Pcbnew,8.0.8
; #@! TF.FileFunction,Plated,1,8,PTH
FMAT,2
INCH
; #@! TA.AperFunction,Plated,PTH,ViaDrill
T1C0.0059
; #@! TA.AperFunction,Plated,PTH,ViaDrill
T2C0.0079
; #@! TA.AperFunction,Plated,PTH,ViaDrill
T3C0.0118
; #@! TA.AperFunction,Plated,PTH,ViaDrill
T4C0.0157
; #@! TA.AperFunction,Plated,PTH,ComponentDrill
T5C0.0217
; #@! TA.AperFunction,Plated,PTH,ComponentDrill
T6C0.0236
; #@! TA.AperFunction,Plated,PTH,ComponentDrill
T7C0.0315
; #@! TA.AperFunction,Plated,PTH,ComponentDrill
T8C0.0354
; #@! TA.AperFunction,Plated,PTH,ComponentDrill
T9C0.0382
; #@! TA.AperFunction,Plated,PTH,ComponentDrill
T10C0.0531
; #@! TA.AperFunction,Plated,PTH,ComponentDrill
T11C0.0650
%
G90
G05
T1
X4.9593Y-4.6021
X4.9638Y-4.4591
X4.9795Y-4.5543
X4.9816Y-4.6244
X5.0039Y-4.6021
X5.0039Y-4.6467
X5.0127Y-4.6733
X5.0197Y-4.4882
X5.0197Y-4.5315
X5.0261Y-4.5799
X5.0268Y-3.1843
X5.033Y-3.2505
X5.033Y-3.2951
X5.039Y-3.1665
X5.0484Y-4.6467
X5.0484Y-4.6912
X5.0484Y-4.6032
X5.0553Y-3.2283
X5.0553Y-3.3174
X5.0697Y-4.5788
X5.0707Y-4.6244
X5.0707Y-4.669
X5.0707Y-4.7135
X5.0776Y-3.2951
X5.0808Y-3.3483
X5.0816Y-3.25
X5.0843Y-4.7319
X5.0945Y-4.4685
X5.0961Y-4.7909
X5.0999Y-3.2295
X5.0999Y-3.2728
X5.0999Y-3.3174
X5.1146Y-4.4858
X5.1154Y-4.6709
X5.1221Y-3.3842
X5.126Y-4.2717
X5.1374Y-4.6937
X5.1375Y-4.7358
X5.1375Y-4.4685
X5.139Y-4.4126
X5.1414Y-4.6339
X5.1441Y-3.3185
X5.1449Y-3.0988
X5.1457Y-2.6602
X5.1457Y-4.2717
X5.1535Y-4.6528
X5.1571Y-4.4935
X5.1591Y-2.6736
X5.1594Y-3.0709
X5.1598Y-4.4017
X5.1598Y-4.4462
X5.161Y-4.9063
X5.1618Y-3.2776
X5.1661Y-3.3398
X5.1664Y-3.1172
X5.1667Y-3.3842
X5.1673Y-3.4252
X5.1747Y-4.6754
X5.1811Y-3.2992
X5.1819Y-4.7362
X5.182Y-4.424
X5.182Y-4.4685
X5.182Y-4.5131
X5.182Y-4.7803
X5.1889Y-3.3619
X5.1889Y-3.0961
X5.1889Y-3.1392
X5.189Y-3.0453
X5.189Y-4.6575
X5.2008Y-4.6378
X5.202Y-3.3276
X5.202Y-4.5767
X5.2043Y-4.4462
X5.2043Y-4.4908
X5.2043Y-4.758
X5.2043Y-4.8026
X5.2043Y-4.6646
X5.2112Y-3.1169
X5.2112Y-3.1615
X5.2112Y-3.4287
X5.2126Y-3.0531
X5.2242Y-4.8718
X5.2264Y-4.735
X5.2266Y-4.5131
X5.2266Y-4.8248
X5.2283Y-4.4668
X5.2319Y-3.3114
X5.2327Y-3.2283
X5.2335Y-3.1392
X5.2335Y-3.4064
X5.2335Y-3.451
X5.239Y-4.9063
X5.2488Y-4.4908
X5.2488Y-4.5353
X5.2488Y-4.5799
X5.2488Y-4.8026
X5.2488Y-4.8471
X5.252Y-3.5138
X5.2558Y-3.1169
X5.2558Y-3.1615
X5.2558Y-3.4733
X5.2583Y-3.3807
X5.2598Y-4.2717
X5.2701Y-2.5504
X5.2701Y-2.5693
X5.2711Y-4.5131
X5.2711Y-4.5576
X5.2711Y-4.6021
X5.2711Y-4.8248
X5.2711Y-4.8694
X5.2711Y-4.9139
X5.276Y-2.9614
X5.278Y-3.1392
X5.278Y-3.1837
X5.278Y-3.2283
X5.278Y-3.4508
X5.278Y-3.5401
X5.2934Y-4.5353
X5.2934Y-4.5799
X5.2934Y-4.8471
X5.2934Y-4.8917
X5.2934Y-4.9362
X5.2953Y-4.2717
X5.2996Y-3.422
X5.2996Y-3.4728
X5.3003Y-3.1615
X5.3003Y-3.206
X5.3003Y-3.2505
X5.3003Y-3.5178
X5.3003Y-3.5623
X5.3154Y-4.6039
X5.3157Y-4.6467
X5.3157Y-4.8694
X5.3157Y-4.9139
X5.3157Y-4.9585
X5.3185Y-4.5409
X5.3199Y-2.5144
X5.3226Y-3.2283
X5.3226Y-3.4955
X5.3226Y-3.5846
X5.3333Y-2.501
X5.3378Y-4.6283
X5.3379Y-4.669
X5.3379Y-4.8917
X5.3379Y-4.9362
X5.3398Y-4.5776
X5.341Y-3.0851
X5.3413Y-4.5445
X5.3448Y-3.2951
X5.3448Y-3.5623
X5.3448Y-3.6069
X5.3449Y-3.5177
X5.3484Y-3.2067
X5.3602Y-4.6912
X5.3602Y-4.9139
X5.3671Y-3.2728
X5.3671Y-3.3174
X5.3671Y-3.5401
X5.3671Y-3.5846
X5.3677Y-3.4949
X5.3742Y-2.503
X5.3773Y-3.4531
X5.3821Y-4.8061
X5.3825Y-4.669
X5.3876Y-2.4896
X5.3894Y-3.2951
X5.3894Y-3.3396
X5.4024Y-2.9744
X5.4039Y-4.6472
X5.4059Y-3.898
X5.4063Y-3.5287
X5.4117Y-3.3174
X5.4177Y-2.2874
X5.4184Y-2.9667
X5.4209Y-3.4287
X5.4213Y-2.6821
X5.4217Y-4.8335
X5.4262Y-2.2088
X5.427Y-4.7135
X5.4409Y-3.2972
X5.4493Y-4.7358
X5.4512Y-4.8752
X5.452Y-4.2579
X5.452Y-4.6847
X5.4521Y-2.4837
X5.4559Y-2.7079
X5.4562Y-3.3619
X5.4606Y-2.2681
X5.461Y-4.1417
X5.4656Y-2.4703
X5.4661Y-4.5906
X5.4716Y-4.758
X5.4744Y-4.7173
X5.4785Y-3.3842
X5.4785Y-3.4287
X5.4803Y-3.3307
X5.4876Y-4.3559
X5.4921Y-2.5709
X5.4933Y-2.2677
X5.4938Y-4.7358
X5.4938Y-4.7803
X5.498Y-4.1331
X5.4984Y-2.6961
X5.4988Y-3.2343
X5.4996Y-2.5244
X5.5Y-2.4965
X5.5007Y-3.4064
X5.5008Y-2.9114
X5.5051Y-4.3673
X5.5087Y-2.3748
X5.5128Y-2.2088
X5.5161Y-4.758
X5.5173Y-3.3516
X5.5177Y-4.3291
X5.5177Y-4.4626
X5.5202Y-2.6747
X5.5205Y-2.9144
X5.5244Y-2.2819
X5.5252Y-4.4354
X5.5276Y-3.3842
X5.5311Y-2.5705
X5.5315Y-4.0244
X5.5335Y-3.9252
X5.5335Y-3.9488
X5.5339Y-2.7146
X5.5382Y-2.6669
X5.5402Y-2.2909
X5.5406Y-2.8899
X5.543Y-2.9452
X5.5433Y-4.1504
X5.5433Y-4.1909
X5.5453Y-2.972
X5.5453Y-4.3425
X5.5465Y-4.4181
X5.5465Y-4.4496
X5.5465Y-4.4846
X5.5476Y-4.3102
X5.5508Y-2.8154
X5.552Y-3.4064
X5.561Y-3.0189
X5.5622Y-3.8976
X5.565Y-2.8967
X5.5659Y-3.1703
X5.5705Y-4.6858
X5.5709Y-2.4157
X5.5732Y-3.472
X5.5776Y-2.3028
X5.578Y-3.9142
X5.578Y-3.9457
X5.578Y-4.0717
X5.578Y-4.1031
X5.578Y-4.1346
X5.578Y-4.2606
X5.578Y-4.4181
X5.578Y-4.4496
X5.578Y-4.4811
X5.5796Y-3.0582
X5.585Y-3.1055
X5.5889Y-4.513
X5.5921Y-3.8957
X5.5965Y-2.6252
X5.5965Y-2.7197
X5.5965Y-2.8142
X5.5965Y-2.8772
X5.5965Y-2.9717
X5.6008Y-3.0554
X5.6079Y-2.4634
X5.6094Y-3.9772
X5.6094Y-4.0087
X5.6094Y-4.0402
X5.6094Y-4.1346
X5.6094Y-4.1976
X5.6094Y-4.2606
X5.6094Y-4.2921
X5.6094Y-4.3236
X5.6094Y-4.3551
X5.6094Y-4.3866
X5.6094Y-4.4181
X5.6094Y-4.4496
X5.6094Y-4.4811
X5.6185Y-4.5051
X5.6191Y-2.1004
X5.621Y-4.5684
X5.6248Y-3.0697
X5.628Y-2.5307
X5.628Y-2.5622
X5.628Y-2.5937
X5.628Y-2.6252
X5.628Y-2.6567
X5.628Y-2.7197
X5.628Y-2.7512
X5.628Y-2.8142
X5.628Y-2.8457
X5.628Y-2.8772
X5.628Y-2.9087
X5.628Y-2.9402
X5.628Y-2.9717
X5.6331Y-4.5555
X5.6374Y-3.1846
X5.6409Y-4.0402
X5.6409Y-4.0717
X5.6409Y-4.2291
X5.6409Y-4.2606
X5.6409Y-4.2921
X5.6409Y-4.3236
X5.6409Y-4.3551
X5.6409Y-4.3866
X5.6409Y-4.4181
X5.6427Y-3.0364
X5.6437Y-3.2177
X5.6458Y-4.5001
X5.6557Y-3.067
X5.6594Y-2.4992
X5.6594Y-2.5307
X5.6594Y-2.5622
X5.6594Y-2.5937
X5.6594Y-2.6252
X5.6594Y-2.6567
X5.6594Y-2.7197
X5.6594Y-2.7827
X5.6594Y-2.8142
X5.6594Y-2.8457
X5.6594Y-2.8772
X5.6594Y-2.9087
X5.6594Y-2.9402
X5.6594Y-2.9717
X5.6609Y-4.5094
X5.6683Y-3.0522
X5.6724Y-3.9457
X5.6724Y-4.1031
X5.6724Y-4.2291
X5.6724Y-4.2921
X5.6724Y-4.3236
X5.6724Y-4.3551
X5.6724Y-4.3866
X5.6724Y-4.4496
X5.6791Y-4.5185
X5.6799Y-3.1815
X5.6803Y-3.0925
X5.6815Y-3.064
X5.6882Y-3.6535
X5.6894Y-3.748
X5.6909Y-2.4992
X5.6909Y-2.5307
X5.6909Y-2.5622
X5.6909Y-2.5937
X5.6909Y-2.6567
X5.6909Y-2.7827
X5.6909Y-2.8457
X5.6909Y-2.8772
X5.6909Y-2.9087
X5.6909Y-2.9402
X5.6909Y-3.0031
X5.7029Y-4.501
X5.7039Y-4.0087
X5.7039Y-4.1661
X5.7039Y-4.2291
X5.7039Y-4.2606
X5.7039Y-4.2921
X5.7039Y-4.3236
X5.7039Y-4.3551
X5.7039Y-4.3866
X5.7039Y-4.4181
X5.7193Y-3.0346
X5.7197Y-4.5886
X5.7224Y-2.5307
X5.7224Y-2.5622
X5.7224Y-2.5937
X5.7224Y-2.7197
X5.7224Y-2.7827
X5.7224Y-2.8142
X5.7224Y-2.8457
X5.7224Y-2.8772
X5.7224Y-2.9087
X5.7224Y-2.9402
X5.7224Y-2.9717
X5.7319Y-4.5311
X5.7354Y-4.0717
X5.7354Y-4.1346
X5.7354Y-4.2291
X5.7354Y-4.2921
X5.7354Y-4.3866
X5.7354Y-4.4181
X5.7385Y-3.9151
X5.7401Y-4.5153
X5.7524Y-3.6535
X5.7539Y-2.6252
X5.7539Y-2.6567
X5.7539Y-2.6882
X5.7539Y-2.7197
X5.7539Y-2.7827
X5.7539Y-2.8142
X5.7539Y-2.8772
X5.7539Y-2.9402
X5.7539Y-2.9717
X5.7539Y-3.0677
X5.7547Y-3.0894
X5.7598Y-3.7488
X5.7669Y-3.9772
X5.7669Y-4.0402
X5.7669Y-4.0717
X5.7669Y-4.1346
X5.7669Y-4.2291
X5.7669Y-4.2921
X5.7669Y-4.3236
X5.7669Y-4.3551
X5.7669Y-4.3866
X5.7669Y-4.4181
X5.7669Y-4.4496
X5.7701Y-3.0602
X5.7738Y-4.5572
X5.7791Y-3.898
X5.7795Y-3.8189
X5.7846Y-4.4835
X5.7854Y-2.5307
X5.7854Y-2.6252
X5.7854Y-2.7197
X5.7854Y-2.8772
X5.7854Y-2.9087
X5.7854Y-2.9402
X5.7956Y-4.5174
X5.7984Y-4.0402
X5.7984Y-4.0717
X5.7984Y-4.1031
X5.7984Y-4.1346
X5.7984Y-4.1661
X5.7984Y-4.2291
X5.7984Y-4.3236
X5.7984Y-4.3551
X5.7984Y-4.3866
X5.8012Y-3.035
X5.8028Y-3.0598
X5.8051Y-3.7657
X5.813Y-4.5138
X5.815Y-2.3228
X5.8169Y-2.5937
X5.8169Y-2.6252
X5.8169Y-2.7827
X5.8169Y-2.8142
X5.8169Y-2.8772
X5.8169Y-2.9402
X5.8169Y-2.9717
X5.8224Y-3.898
X5.8228Y-3.8189
X5.8327Y-3.0591
X5.8406Y-3.0776
X5.8484Y-2.6567
X5.8484Y-2.6882
X5.8484Y-2.7197
X5.8614Y-3.9457
X5.8614Y-4.0402
X5.8614Y-4.0717
X5.8614Y-4.1031
X5.8614Y-4.1661
X5.8614Y-4.2291
X5.8614Y-4.2606
X5.8614Y-4.3236
X5.8614Y-4.3551
X5.8614Y-4.4496
X5.8657Y-3.8933
X5.8661Y-3.8209
X5.8705Y-3.0594
X5.8799Y-2.4992
X5.8799Y-2.5622
X5.8799Y-2.5937
X5.8799Y-2.6567
X5.8799Y-2.6882
X5.8799Y-2.7197
X5.8799Y-2.8142
X5.8799Y-2.9087
X5.8799Y-2.9717
X5.8799Y-3.0031
X5.8819Y-2.2992
X5.8929Y-4.0087
X5.8929Y-4.0402
X5.8929Y-4.1031
X5.8929Y-4.1661
X5.8929Y-4.2291
X5.8929Y-4.3236
X5.8929Y-4.3551
X5.8947Y-3.0413
X5.9055Y-3.9154
X5.9091Y-3.8933
X5.9094Y-3.8209
X5.9114Y-2.5622
X5.9114Y-2.5937
X5.9114Y-2.7197
X5.9114Y-2.8142
X5.9114Y-2.8457
X5.9114Y-2.8772
X5.9114Y-2.9087
X5.9114Y-2.9717
X5.9173Y-2.3386
X5.9181Y-2.4673
X5.9244Y-3.9772
X5.9244Y-4.0087
X5.9244Y-4.0402
X5.9244Y-4.0717
X5.9244Y-4.1031
X5.9244Y-4.1346
X5.9244Y-4.2291
X5.9244Y-4.2606
X5.9244Y-4.2921
X5.9244Y-4.3236
X5.9244Y-4.3551
X5.9244Y-4.4181
X5.9429Y-2.5937
X5.9429Y-2.6252
X5.9429Y-2.6567
X5.9429Y-2.7197
X5.9429Y-2.7827
X5.9429Y-2.8142
X5.9429Y-2.8457
X5.9429Y-2.9087
X5.9429Y-2.9402
X5.9429Y-2.9717
X5.9559Y-3.9772
X5.9559Y-4.0087
X5.9559Y-4.0402
X5.9559Y-4.1346
X5.9559Y-4.2606
X5.9559Y-4.3236
X5.9559Y-4.3551
X5.9567Y-4.4807
X5.9587Y-3.0354
X5.9606Y-2.3071
X5.9606Y-2.3465
X5.9744Y-2.5307
X5.9744Y-2.5937
X5.9744Y-2.6882
X5.9744Y-2.8142
X5.9744Y-2.9087
X5.9744Y-2.9402
X5.9744Y-2.9717
X5.9874Y-3.9772
X5.9874Y-4.0087
X5.9874Y-4.0402
X5.9874Y-4.2291
X5.9874Y-4.3866
X5.9874Y-4.4496
X6.0059Y-2.5937
X6.0059Y-2.7827
X6.0059Y-2.8457
X6.0059Y-2.8772
X6.0059Y-2.9087
X6.0059Y-2.9402
X6.0059Y-2.9717
X6.0189Y-3.9457
X6.0189Y-3.9772
X6.0189Y-4.0087
X6.0189Y-4.0402
X6.0189Y-4.0717
X6.0189Y-4.1031
X6.0189Y-4.2921
X6.0189Y-4.3551
X6.0189Y-4.3866
X6.0189Y-4.4181
X6.0189Y-4.4496
X6.0189Y-4.4811
X6.0197Y-3.9154
X6.0374Y-2.4992
X6.0374Y-2.5307
X6.0374Y-2.5622
X6.0374Y-2.5937
X6.0374Y-2.6567
X6.0374Y-2.8457
X6.0374Y-2.9717
X6.0374Y-3.0031
X6.0504Y-3.9772
X6.0504Y-4.0087
X6.0504Y-4.0402
X6.0504Y-4.0717
X6.0504Y-4.1031
X6.0504Y-4.1346
X6.0504Y-4.1661
X6.0504Y-4.3551
X6.0504Y-4.4181
X6.0504Y-4.4496
X6.0504Y-4.4811
X6.0508Y-4.3866
X6.065Y-3.8228
X6.065Y-3.8917
X6.0665Y-3.9114
X6.0689Y-2.4992
X6.0689Y-2.5622
X6.0689Y-2.5937
X6.0689Y-2.7197
X6.0689Y-2.9087
X6.0689Y-2.9402
X6.0819Y-4.2291
X6.0819Y-4.2606
X6.0819Y-4.4181
X6.0819Y-4.4811
X6.1004Y-2.4992
X6.1004Y-2.6252
X6.1004Y-2.8142
X6.1004Y-2.9717
X6.1071Y-3.7776
X6.1106Y-3.9929
X6.1126Y-2.4543
X6.1134Y-4.1346
X6.1134Y-4.3236
X6.1137Y-3.9614
X6.1201Y-3.8937
X6.1331Y-2.5461
X6.1339Y-2.7031
X6.1362Y-2.8594
X6.1407Y-2.4833
X6.1417Y-3.9409
X6.1437Y-3.9606
X6.1565Y-2.8848
X6.1575Y-3.9902
X6.1713Y-3.878
X6.1732Y-3.9016
X6.189Y-3.8933
X6.1909Y-3.4764
X6.2047Y-3.4862
X6.2047Y-3.8819
X6.2213Y-2.5433
X6.2228Y-4.0008
X6.2547Y-4.0106
X6.2748Y-4.0051
X6.3213Y-3.9949
X6.35Y-3.9748
X6.3685Y-3.9839
X6.7484Y-3.5035
X6.8461Y-3.2661
X8.1146Y-3.0035
X8.1831Y-3.3031
X8.2333Y-3.31
X8.2972Y-3.7077
X8.3071Y-3.4409
T2
X4.189Y-2.187
X4.2894Y-2.6083
X4.2913Y-2.685
X4.2913Y-3.315
X4.2913Y-3.4528
X4.2913Y-4.0984
X4.292Y-4.0624
X4.2933Y-2.4508
X4.2933Y-2.5
X4.2933Y-2.7638
X4.2933Y-3.1594
X4.2933Y-3.3642
X4.2933Y-3.9508
X4.2953Y-3.2697
X4.2972Y-2.9409
X4.3012Y-2.4055
X4.3012Y-4.0118
X4.3031Y-2.3268
X4.3031Y-3.0394
X4.3051Y-3.8937
X4.3071Y-4.0386
X4.3248Y-3.9961
X4.3307Y-3.9291
X4.3346Y-2.5669
X4.3504Y-2.9016
X4.3701Y-2.5315
X4.3898Y-2.4016
X4.3898Y-2.4921
X4.3898Y-2.8661
X4.4094Y-2.3701
X4.4291Y-2.7992
X4.4449Y-2.3307
X4.4764Y-2.3819
X4.4921Y-2.7992
X4.4921Y-2.8346
X4.5154Y-2.0866
X4.548Y-2.0079
X4.5945Y-2.3228
X4.7087Y-2.3228
X4.7126Y-2.7638
X4.7441Y-2.7283
X4.7441Y-3.9252
X4.752Y-2.3819
X4.7677Y-2.4803
X4.7795Y-2.8228
X4.8307Y-2.3819
X4.8346Y-2.7677
X4.8406Y-4.0994
X4.8425Y-4.4882
X4.8622Y-2.4803
X4.8661Y-2.3189
X4.8677Y-4.6024
X4.873Y-3.9311
X4.8937Y-4.4409
X4.8976Y-3.1063
X4.9252Y-3.2992
X4.9331Y-3.3425
X4.9567Y-3.0984
X4.9646Y-2.4803
X4.9657Y-3.3437
X4.9685Y-1.7244
X4.9685Y-1.811
X4.9823Y-4.0856
X4.9882Y-2.3819
X4.9961Y-3.3543
X5.0079Y-4.7559
X5.0118Y-3.4004
X5.0236Y-1.7244
X5.0236Y-1.811
X5.0236Y-4.7776
X5.0496Y-2.1555
X5.0504Y-2.1094
X5.0512Y-2.5709
X5.0531Y-3.4134
X5.0728Y-3.439
X5.0866Y-2.5276
X5.0945Y-3.4646
X5.1142Y-2.5866
X5.1394Y-2.115
X5.1705Y-2.1618
X5.1772Y-2.5
X5.2126Y-2.0787
X5.2169Y-3.9791
X5.2205Y-2.5
X5.2244Y-1.9252
X5.2362Y-2.0433
X5.2386Y-3.9587
X5.2437Y-4.0783
X5.2587Y-4.0106
X5.2618Y-2.0433
X5.2677Y-1.9252
X5.2811Y-2.3091
X5.2874Y-2.0531
X5.2902Y-4.0409
X5.315Y-1.9252
X5.3419Y-2.8341
X5.3531Y-2.8043
X5.3543Y-1.7087
X5.3543Y-1.748
X5.3543Y-1.7874
X5.3543Y-1.8268
X5.3543Y-1.8661
X5.3661Y-2.1348
X5.3701Y-1.9252
X5.4075Y-2.1565
X5.4114Y-1.6142
X5.4114Y-1.6673
X5.4134Y-1.9213
X5.4287Y-2.8075
X5.4409Y-1.878
X5.4409Y-1.9055
X5.4479Y-1.6142
X5.4479Y-1.6673
X5.4563Y-2.8244
X5.4606Y-1.7283
X5.4606Y-1.7736
X5.4606Y-1.8248
X5.4685Y-2.8031
X5.4715Y-2.123
X5.4862Y-1.8819
X5.4862Y-1.9075
X5.5177Y-1.8947
X5.5236Y-2.5197
X5.5394Y-3.2835
X5.5906Y-4.6
X5.5945Y-1.6909
X5.5945Y-1.7747
X5.5945Y-1.8584
X5.5945Y-1.9422
X5.6325Y-3.1285
X5.6486Y-2.0709
X5.6575Y-1.6917
X5.6575Y-1.7754
X5.6575Y-1.8592
X5.6575Y-1.9429
X5.6811Y-2.3976
X5.6827Y-3.5142
X5.6969Y-2.1772
X5.7008Y-2.1457
X5.7008Y-2.2441
X5.7008Y-2.2717
X5.7008Y-2.3669
X5.7094Y-3.8925
X5.7126Y-3.4724
X5.7165Y-3.5984
X5.7323Y-1.9744
X5.7429Y-3.8937
X5.752Y-1.8839
X5.7559Y-3.5984
X5.7618Y-2.4291
X5.7717Y-2.3228
X5.7835Y-3.4134
X5.7854Y-2.1752
X5.7874Y-2.2677
X5.7874Y-2.2992
X5.7874Y-2.3425
X5.8169Y-2.4439
X5.8219Y-1.9744
X5.8323Y-3.4728
X5.8386Y-1.5551
X5.8386Y-1.5906
X5.8386Y-1.626
X5.839Y-2.4445
X5.8524Y-1.9508
X5.8587Y-3.4697
X5.8687Y-1.5551
X5.8687Y-1.5906
X5.8687Y-1.626
X5.876Y-3.3453
X5.8803Y-2.4386
X5.8826Y-3.0886
X5.8953Y-3.474
X5.8976Y-1.9478
X5.8988Y-1.5551
X5.8988Y-1.5906
X5.8988Y-1.626
X5.9016Y-4.5118
X5.9085Y-1.9754
X5.9169Y-2.4386
X5.9193Y-3.3465
X5.929Y-1.5551
X5.929Y-1.5906
X5.929Y-1.626
X5.9309Y-5.045
X5.9421Y-3.4748
X5.9437Y-5.0224
X5.9449Y-4.5118
X5.9543Y-3.0898
X5.9579Y-3.3067
X5.9587Y-2.4354
X5.9591Y-1.5551
X5.9591Y-1.5906
X5.9591Y-1.626
X5.9724Y-4.5413
X5.9764Y-4.5079
X5.9827Y-3.474
X5.9892Y-1.5551
X5.9892Y-1.5906
X5.9892Y-1.626
X5.9921Y-1.6811
X5.9941Y-3.0878
X5.9951Y-1.7815
X5.9961Y-1.7313
X6.0Y-1.8622
X6.0028Y-3.3476
X6.0063Y-2.4232
X6.0122Y-2.461
X6.0194Y-1.5551
X6.0194Y-1.5906
X6.0194Y-1.626
X6.0217Y-3.4756
X6.0226Y-1.8622
X6.0236Y-2.063
X6.0409Y-3.3484
X6.0421Y-3.1346
X6.0441Y-2.461
X6.0445Y-3.1126
X6.0504Y-2.4181
X6.0512Y-2.0906
X6.0642Y-3.474
X6.0669Y-2.4425
X6.0748Y-1.563
X6.0748Y-2.1142
X6.085Y-3.3327
X6.0866Y-1.6299
X6.0913Y-1.5984
X6.0933Y-2.4256
X6.1067Y-3.4728
X6.1102Y-1.9685
X6.1189Y-2.4165
X6.1209Y-1.7965
X6.1299Y-2.3547
X6.1319Y-4.4752
X6.1329Y-4.1467
X6.1335Y-4.1874
X6.1339Y-4.3563
X6.135Y-4.4059
X6.1367Y-3.8801
X6.1417Y-1.9449
X6.1457Y-4.5295
X6.1465Y-3.474
X6.1526Y-4.4252
X6.1535Y-2.1969
X6.1551Y-2.8291
X6.1555Y-2.4262
X6.1575Y-2.0394
X6.1575Y-2.0748
X6.1575Y-2.1102
X6.1622Y-3.0512
X6.1624Y-2.4764
X6.1654Y-1.9291
X6.1683Y-4.3337
X6.1713Y-2.3551
X6.172Y-2.7728
X6.172Y-3.3378
X6.1762Y-2.6693
X6.1815Y-2.5077
X6.1841Y-2.4747
X6.185Y-2.2283
X6.1874Y-2.9925
X6.1876Y-2.0394
X6.1876Y-2.0748
X6.1876Y-2.1102
X6.1906Y-2.4243
X6.1972Y-2.7685
X6.1976Y-2.5433
X6.2087Y-3.4291
X6.2106Y-3.376
X6.2134Y-2.3268
X6.2175Y-4.44
X6.2177Y-2.0394
X6.2177Y-2.0748
X6.2177Y-2.1102
X6.2193Y-2.4177
X6.2205Y-1.7087
X6.2205Y-1.752
X6.2205Y-1.7953
X6.2264Y-4.4616
X6.2343Y-1.9232
X6.2362Y-1.9488
X6.247Y-2.3321
X6.2479Y-2.0394
X6.2479Y-2.0748
X6.2479Y-2.1102
X6.2559Y-1.7087
X6.2559Y-1.752
X6.2559Y-1.7953
X6.2587Y-3.0165
X6.2614Y-3.0622
X6.2697Y-3.4035
X6.2711Y-4.3146
X6.2752Y-2.6886
X6.278Y-2.0394
X6.278Y-2.0748
X6.278Y-2.1102
X6.2785Y-2.4222
X6.2953Y-3.3937
X6.3071Y-1.9843
X6.3071Y-2.0118
X6.3146Y-2.8284
X6.3268Y-1.6969
X6.3307Y-1.7402
X6.3376Y-4.4006
X6.3396Y-4.376
X6.3591Y-4.0575
X6.3618Y-4.4547
X6.3701Y-1.6969
X6.3701Y-4.8071
X6.3711Y-4.374
X6.3734Y-3.8424
X6.374Y-1.7402
X6.374Y-1.7913
X6.378Y-3.4843
X6.3907Y-2.5591
X6.3912Y-2.6403
X6.4032Y-3.8476
X6.4059Y-3.4807
X6.4124Y-2.623
X6.4134Y-1.6969
X6.4173Y-1.7402
X6.4173Y-1.7913
X6.4244Y-3.3476
X6.4331Y-3.8819
X6.44Y-2.5554
X6.4453Y-3.4807
X6.4567Y-2.5787
X6.461Y-4.5482
X6.4626Y-3.3508
X6.4665Y-3.8947
X6.4685Y-1.7677
X6.4744Y-4.2579
X6.4774Y-4.0315
X6.4803Y-1.7874
X6.4803Y-4.3189
X6.4815Y-4.3496
X6.485Y-3.4807
X6.4877Y-4.5389
X6.4916Y-4.5133
X6.5024Y-3.3531
X6.5084Y-3.8853
X6.5129Y-4.2332
X6.526Y-3.4811
X6.5276Y-1.7953
X6.5276Y-1.8327
X6.5362Y-2.9339
X6.5394Y-3.8967
X6.5425Y-3.3547
X6.5453Y-2.9134
X6.5472Y-4.3484
X6.5492Y-4.0571
X6.5571Y-2.6398
X6.5626Y-3.4819
X6.5669Y-2.7108
X6.5748Y-1.8346
X6.5748Y-4.3583
X6.5774Y-2.7425
X6.5787Y-2.622
X6.5843Y-3.3567
X6.5906Y-4.0039
X6.5915Y-4.2362
X6.5935Y-2.9114
X6.5984Y-4.0827
X6.6012Y-3.4815
X6.6102Y-2.9281
X6.6113Y-1.8346
X6.6181Y-3.9291
X6.6228Y-3.3457
X6.6378Y-3.8819
X6.6447Y-2.7611
X6.6467Y-2.8144
X6.6478Y-1.8346
X6.6516Y-2.6358
X6.6657Y-4.4677
X6.6663Y-2.6614
X6.685Y-2.5157
X6.689Y-1.8346
X6.689Y-1.8701
X6.7071Y-3.35
X6.7283Y-1.8346
X6.7283Y-1.8701
X6.7362Y-1.7795
X6.7362Y-1.8071
X6.7402Y-3.9409
X6.7402Y-4.1969
X6.7484Y-4.2217
X6.7528Y-3.3744
X6.7567Y-3.4004
X6.7657Y-4.3701
X6.7677Y-1.8366
X6.7677Y-1.872
X6.7756Y-2.686
X6.7783Y-2.7931
X6.7972Y-4.2933
X6.815Y-2.7736
X6.8268Y-4.313
X6.8406Y-1.8327
X6.8406Y-1.8858
X6.8752Y-3.9299
X6.877Y-1.8327
X6.877Y-1.8858
X6.8858Y-3.8425
X6.8976Y-2.685
X6.9104Y-4.1909
X6.9114Y-4.3996
X6.9135Y-1.8327
X6.9135Y-1.8858
X6.9197Y-3.7894
X6.9341Y-4.0226
X6.935Y-4.1315
X6.9417Y-3.7969
X6.95Y-1.8327
X6.95Y-1.8858
X6.9596Y-4.3691
X6.9843Y-4.315
X6.9865Y-1.8327
X6.9865Y-1.8858
X7.0Y-3.7244
X7.0197Y-4.8256
X7.022Y-4.8689
X7.023Y-1.8327
X7.023Y-1.8858
X7.037Y-4.2356
X7.037Y-4.1708
X7.0429Y-3.6988
X7.0531Y-4.4646
X7.0543Y-3.8457
X7.0555Y-3.9626
X7.0595Y-1.8327
X7.0595Y-1.8858
X7.063Y-4.0315
X7.0736Y-3.6984
X7.0748Y-4.6299
X7.0787Y-4.1969
X7.0811Y-3.6724
X7.0921Y-3.8059
X7.0945Y-4.1102
X7.096Y-1.8327
X7.096Y-1.8858
X7.0984Y-4.5079
X7.1169Y-3.8902
X7.1173Y-4.5209
X7.1181Y-4.0551
X7.1181Y-4.1489
X7.1201Y-4.3109
X7.1323Y-3.8008
X7.1325Y-1.8327
X7.1325Y-1.8858
X7.135Y-4.2622
X7.169Y-1.8327
X7.169Y-1.8858
X7.1717Y-3.802
X7.1791Y-4.4508
X7.1807Y-3.6724
X7.1913Y-4.2622
X7.1969Y-3.8268
X7.1969Y-4.0236
X7.2055Y-3.6563
X7.2067Y-3.8504
X7.2106Y-4.4567
X7.2126Y-4.4291
X7.2205Y-4.2047
X7.2283Y-4.126
X7.2287Y-3.6909
X7.2326Y-4.4074
X7.2449Y-4.5106
X7.25Y-2.1535
X7.2539Y-3.8012
X7.2795Y-2.124
X7.2835Y-3.9213
X7.2839Y-3.8217
X7.3012Y-2.0157
X7.3035Y-4.4287
X7.3051Y-2.0965
X7.3071Y-4.3031
X7.3071Y-4.6378
X7.3098Y-4.5394
X7.312Y-4.5778
X7.3209Y-3.7016
X7.3228Y-1.7402
X7.3228Y-1.7851
X7.3228Y-1.8301
X7.3228Y-1.875
X7.3228Y-1.9199
X7.3228Y-1.9649
X7.328Y-4.4146
X7.3445Y-2.0965
X7.3445Y-2.1496
X7.3469Y-3.6969
X7.3543Y-3.815
X7.3563Y-2.0413
X7.3622Y-4.2441
X7.3701Y-1.8996
X7.3701Y-1.9337
X7.3701Y-1.9678
X7.3701Y-2.002
X7.381Y-2.0965
X7.381Y-2.1496
X7.3831Y-3.6831
X7.3878Y-3.6201
X7.3898Y-3.5551
X7.4094Y-4.4016
X7.4134Y-3.5551
X7.4213Y-1.8661
X7.4488Y-4.6772
X7.4488Y-4.7437
X7.4606Y-4.3071
X7.4695Y-1.9829
X7.4695Y-2.0518
X7.4724Y-4.5197
X7.4803Y-3.9291
X7.4921Y-1.6201
X7.4921Y-1.6604
X7.4921Y-1.7008
X7.501Y-1.9829
X7.501Y-2.0518
X7.5118Y-3.937
X7.5217Y-1.6201
X7.5217Y-1.6575
X7.5217Y-1.6949
X7.5217Y-1.7323
X7.5295Y-4.2539
X7.5325Y-1.9829
X7.5325Y-2.0518
X7.5492Y-3.8555
X7.5492Y-3.8949
X7.6063Y-1.8346
X7.624Y-1.9665
X7.624Y-2.0197
X7.6358Y-4.1529
X7.6417Y-4.1139
X7.6476Y-4.063
X7.6516Y-4.02
X7.6555Y-4.2697
X7.6614Y-2.0925
X7.6791Y-4.3031
X7.6925Y-3.8047
X7.7008Y-3.8425
X7.7312Y-1.9665
X7.7312Y-2.0197
X7.7323Y-3.2205
X7.7343Y-3.7544
X7.7515Y-4.1516
X7.7677Y-1.9665
X7.7677Y-2.0197
X7.7736Y-4.1161
X7.7921Y-3.7516
X7.8063Y-3.1295
X7.8071Y-3.2756
X7.811Y-3.6772
X7.8228Y-2.2126
X7.8346Y-3.3622
X7.8465Y-3.3228
X7.8535Y-3.261
X7.8543Y-3.0551
X7.8575Y-3.8409
X7.8622Y-3.2283
X7.863Y-3.8047
X7.8996Y-2.0689
X7.8996Y-2.1043
X7.9011Y-4.4513
X7.9071Y-4.1402
X7.9094Y-4.2244
X7.9114Y-4.0846
X7.9272Y-3.0846
X7.9291Y-2.0354
X7.9291Y-3.1152
X7.935Y-3.1417
X7.9354Y-3.0587
X7.937Y-2.1043
X7.9409Y-4.1102
X7.9469Y-3.6988
X7.9547Y-2.0669
X7.9665Y-1.9823
X7.9665Y-3.0807
X7.9724Y-4.1102
X7.9764Y-3.2972
X7.9839Y-2.8327
X7.9843Y-3.1594
X7.987Y-3.0457
X7.9882Y-3.3228
X7.9909Y-3.226
X7.9921Y-3.3976
X7.9961Y-1.9409
X8.0Y-4.1102
X8.0Y-4.1437
X8.0059Y-2.3504
X8.0059Y-2.3839
X8.0138Y-3.0453
X8.0169Y-3.3004
X8.028Y-3.0106
X8.0283Y-2.9823
X8.0295Y-3.4154
X8.0394Y-3.6929
X8.0413Y-3.3012
X8.0512Y-2.0886
X8.0559Y-2.8594
X8.065Y-3.3996
X8.0709Y-3.439
X8.0748Y-4.4724
X8.0787Y-3.5591
X8.0787Y-4.0945
X8.0866Y-3.6772
X8.0886Y-2.2283
X8.0886Y-2.2657
X8.0906Y-2.95
X8.0906Y-4.5551
X8.0945Y-3.7323
X8.1024Y-3.5787
X8.1024Y-4.1063
X8.1142Y-3.4173
X8.1142Y-4.4724
X8.1201Y-2.2283
X8.1201Y-2.2657
X8.1205Y-2.9516
X8.1299Y-4.1024
X8.1302Y-3.1129
X8.1302Y-3.2037
X8.131Y-4.6646
X8.1311Y-4.6429
X8.1311Y-4.6862
X8.1323Y-3.3189
X8.1348Y-3.5827
X8.1453Y-2.9528
X8.1488Y-4.6291
X8.1488Y-4.7
X8.1496Y-4.4724
X8.1516Y-2.2283
X8.1516Y-2.2657
X8.161Y-2.863
X8.1614Y-4.5551
X8.1654Y-2.8307
X8.1732Y-3.8425
X8.176Y-3.1587
X8.176Y-3.2044
X8.1811Y-4.7185
X8.1831Y-3.7008
X8.185Y-3.876
X8.185Y-4.4724
X8.1949Y-3.6772
X8.2008Y-2.4882
X8.2008Y-2.5433
X8.2008Y-3.6073
X8.2018Y-3.4055
X8.2106Y-3.8996
X8.2202Y-4.0728
X8.2205Y-4.4409
X8.2217Y-3.1129
X8.2217Y-3.1587
X8.2217Y-3.2044
X8.2232Y-2.861
X8.2244Y-4.6378
X8.2311Y-2.8992
X8.2343Y-4.7333
X8.2451Y-3.4055
X8.2598Y-3.3091
X8.2598Y-4.4409
X8.2638Y-4.5551
X8.2661Y-1.8319
X8.2677Y-2.9478
X8.2687Y-4.0264
X8.2717Y-2.6063
X8.2717Y-3.4331
X8.2724Y-2.9736
X8.274Y-1.9177
X8.2756Y-3.4528
X8.2795Y-2.6535
X8.2795Y-2.6929
X8.2795Y-2.7323
X8.2815Y-3.8012
X8.2815Y-3.8602
X8.2825Y-4.7362
X8.2874Y-2.8346
X8.2963Y-3.6512
X8.2972Y-3.688
X8.2989Y-3.2748
X8.3031Y-4.6319
X8.3051Y-3.3248
X8.3071Y-4.4843
X8.3071Y-3.3658
X8.312Y-3.3465
X8.313Y-2.6063
X8.3152Y-3.6318
X8.3205Y-3.2602
X8.3248Y-4.7362
X8.3346Y-4.4843
X8.3417Y-1.9047
X8.3425Y-3.117
X8.3425Y-3.8012
X8.3425Y-3.8602
X8.3425Y-4.6289
X8.3526Y-3.1761
X8.3537Y-3.2632
X8.3543Y-2.6063
X8.3665Y-3.7201
X8.372Y-2.9193
X8.376Y-4.6319
X8.3799Y-3.2913
X8.3799Y-4.5315
X8.3799Y-4.6083
X8.3848Y-4.7589
X8.3937Y-1.7205
X8.3957Y-2.6063
X8.3996Y-3.625
X8.4083Y-2.9634
X8.411Y-2.0406
X8.4193Y-3.2677
X8.4213Y-4.0098
X8.4242Y-4.7598
X8.4321Y-3.625
X8.437Y-2.5512
X8.437Y-2.6063
X8.437Y-2.937
X8.439Y-3.0669
X8.439Y-3.0886
X8.4429Y-4.4409
X8.4439Y-3.2313
X8.4457Y-3.4776
X8.4498Y-4.7008
X8.4508Y-4.8228
X8.4567Y-3.1776
X8.4606Y-4.3287
X8.4719Y-4.6786
X8.4941Y-3.4776
X8.497Y-2.375
X8.497Y-2.4115
X8.497Y-2.448
X8.498Y-3.9528
X8.5Y-3.7264
X8.5138Y-4.6939
X8.5138Y-4.7579
X8.5374Y-4.4213
X8.5394Y-3.4508
X8.5394Y-3.9272
X8.5413Y-3.4776
X8.5413Y-4.4419
X8.5502Y-2.375
X8.5502Y-2.4115
X8.5502Y-2.448
X8.5768Y-4.4567
X8.5984Y-3.622
X8.6142Y-4.4311
X8.6189Y-4.4934
X8.624Y-4.7697
X8.6323Y-3.2494
X8.6476Y-3.2795
X8.6555Y-3.6654
X8.6555Y-4.4331
X8.7209Y-4.6106
X8.7402Y-4.539
X8.839Y-4.5217
X8.874Y-3.2283
X8.874Y-4.5083
X8.9193Y-3.9409
X8.9302Y-3.2283
X8.9864Y-3.2283
X9.0354Y-3.9409
X9.0426Y-3.2283
X9.0512Y-3.9744
X9.0531Y-4.0079
X9.0987Y-3.2283
X9.1004Y-3.7146
X9.1549Y-3.2283
X9.2165Y-3.7953
X9.2264Y-4.0453
X9.2402Y-3.7953
X9.2677Y-3.9173
X9.2917Y-4.7713
X9.2972Y-1.9626
X9.3035Y-4.8752
X9.3307Y-1.9646
X9.3366Y-2.1335
X9.3366Y-2.1669
X9.3366Y-2.2004
X9.3878Y-2.1335
X9.3878Y-2.1669
X9.3878Y-2.2004
X9.4948Y-1.5322
X9.5131Y-1.5505
X9.5394Y-2.0748
X9.5394Y-2.1063
X9.5394Y-2.1378
X9.5827Y-2.0748
X9.5827Y-2.1102
X9.6063Y-1.8713
X9.626Y-2.2441
X9.628Y-2.0335
X9.6299Y-2.0748
X9.6614Y-2.1063
X9.6772Y-2.0748
X9.6949Y-2.0197
X9.7146Y-1.9587
X9.7165Y-1.751
X9.7215Y-1.7254
X9.8189Y-4.9843
X9.8425Y-4.9843
X9.8628Y-3.9701
X9.8671Y-3.5472
X9.874Y-4.9882
X9.9331Y-3.5797
X9.9331Y-4.9488
X9.9646Y-4.9724
X9.9902Y-4.5866
X9.9902Y-4.6063
X10.0144Y-3.5293
X10.0177Y-4.6535
X10.061Y-4.6516
X10.0748Y-3.5925
X10.1181Y-4.8071
X10.128Y-4.498
X10.187Y-4.6516
X10.2933Y-4.6732
X10.2972Y-4.4213
X10.3189Y-4.7008
X10.4291Y-4.5157
X10.437Y-4.5669
T3
X4.3031Y-3.5591
X4.311Y-3.7323
X4.3228Y-1.7244
X4.3307Y-3.689
X4.3327Y-3.5295
X4.3504Y-3.8484
X4.3622Y-3.498
X4.5079Y-1.9803
X4.587Y-1.9803
X4.8307Y-4.5598
X4.8465Y-3.2047
X4.878Y-3.2362
X4.8858Y-3.2835
X4.8937Y-4.6535
X5.0866Y-4.8169
X5.1102Y-2.0039
X5.1142Y-4.8346
X5.1437Y-3.5059
X5.1496Y-3.5335
X5.252Y-3.9213
X5.2815Y-3.876
X5.4252Y-3.7795
X5.4252Y-3.8287
X5.5276Y-3.6969
X5.5512Y-3.6693
X5.6166Y-3.2473
X5.6969Y-2.0433
X5.7323Y-2.0748
X5.7925Y-1.8213
X5.8425Y-2.3228
X5.9075Y-2.3002
X5.939Y-2.2736
X5.9793Y-1.9921
X6.0197Y-2.315
X6.0594Y-1.9764
X6.0866Y-2.315
X6.2039Y-4.311
X6.2283Y-2.7622
X6.3701Y-4.8406
X6.4165Y-3.2398
X6.4602Y-2.8366
X6.461Y-2.8657
X6.4754Y-2.8996
X6.5079Y-1.6969
X6.5354Y-1.6693
X6.5413Y-2.9894
X6.5423Y-3.1004
X6.5807Y-1.6693
X6.6024Y-3.8425
X6.6043Y-3.8819
X6.6181Y-3.9665
X6.626Y-1.6693
X6.6413Y-3.4799
X6.6506Y-4.1407
X6.6713Y-1.6693
X6.6752Y-3.4705
X6.6772Y-3.8386
X6.7116Y-3.0827
X6.7165Y-1.6693
X6.7953Y-2.1969
X6.8504Y-3.126
X6.8504Y-4.7087
X6.8543Y-4.0551
X6.9055Y-2.1969
X6.9606Y-4.5039
X6.9685Y-2.1969
X6.9685Y-4.4213
X6.9843Y-4.3976
X6.9843Y-4.5354
X7.055Y-2.1969
X7.1205Y-4.5622
X7.126Y-4.5937
X7.126Y-2.2205
X7.126Y-4.4134
X7.1395Y-4.6818
X7.1417Y-4.6378
X7.1417Y-4.7402
X7.1654Y-2.2283
X7.2913Y-2.5305
X7.3543Y-2.5295
X7.4058Y-2.5305
X7.4596Y-1.7579
X7.4631Y-2.5305
X7.5079Y-2.376
X7.5079Y-2.4134
X7.5079Y-2.4547
X7.5079Y-2.4951
X7.5079Y-2.5305
X7.5404Y-2.3484
X7.5413Y-4.1902
X7.5422Y-4.1024
X7.5453Y-4.0197
X7.5512Y-3.7008
X7.565Y-2.5305
X7.5886Y-2.2638
X7.5925Y-2.3071
X7.5925Y-2.3465
X7.6232Y-4.3602
X7.6535Y-2.374
X7.6535Y-2.409
X7.6535Y-2.4439
X7.6535Y-2.4788
X7.6535Y-2.5138
X7.6591Y-3.8811
X7.6693Y-3.2677
X7.6693Y-3.3465
X7.6693Y-3.4291
X7.6949Y-4.3602
X7.7165Y-3.4921
X7.7343Y-4.2953
X7.7441Y-3.1811
X7.748Y-3.2677
X7.8507Y-3.9665
X7.8665Y-4.6394
X7.8819Y-5.0157
X7.9961Y-4.2087
X8.0315Y-2.8386
X8.2018Y-1.4882
X8.2031Y-1.6315
X8.2146Y-1.5311
X8.2165Y-4.2079
X8.2197Y-1.5972
X8.2362Y-3.937
X8.2835Y-2.874
X8.2874Y-1.7717
X8.2992Y-1.7402
X8.3031Y-2.7795
X8.3071Y-1.685
X8.3386Y-1.6772
X8.378Y-1.7638
X8.4016Y-3.937
X8.4331Y-2.4331
X8.4409Y-3.8447
X8.4567Y-3.8898
X8.5Y-2.0866
X8.5354Y-2.0878
X8.5669Y-2.0394
X8.6004Y-2.2598
X8.6457Y-2.0394
X8.7244Y-1.8504
X8.7244Y-1.8976
X8.7244Y-1.9528
X8.7559Y-2.5945
X8.7559Y-2.689
X8.7598Y-3.1024
X8.7726Y-2.252
X8.7795Y-2.0866
X8.784Y-1.8976
X8.811Y-3.1024
X8.8425Y-2.2559
X8.8425Y-2.3386
X8.8436Y-1.8976
X8.8661Y-2.5945
X8.8661Y-2.6575
X8.874Y-1.9528
X8.874Y-2.063
X8.874Y-2.5039
X8.874Y-3.0236
X8.874Y-3.0709
X8.8858Y-2.2559
X8.9033Y-1.8976
X8.926Y-1.9528
X8.9629Y-1.8976
X8.9764Y-2.063
X8.978Y-1.9528
X9.0225Y-1.8976
X9.0299Y-1.9528
X9.0315Y-2.1654
X9.0551Y-2.252
X9.0819Y-1.9528
X9.0821Y-1.8976
X9.0846Y-1.7215
X9.0866Y-2.063
X9.0866Y-2.1654
X9.1063Y-2.252
X9.1339Y-1.9528
X9.1417Y-1.8976
X9.1457Y-2.0039
X9.1722Y-2.0039
X9.1728Y-4.3315
X9.1732Y-1.9528
X9.1909Y-4.2165
X9.2185Y-1.872
X9.2283Y-3.5906
X9.2362Y-4.8346
X9.248Y-1.9085
X9.252Y-2.0315
X9.2645Y-1.5394
X9.2785Y-1.8789
X9.3209Y-1.5157
X9.3248Y-1.877
X9.396Y-1.7383
X9.4012Y-1.6433
X9.4144Y-2.315
X9.4144Y-2.3622
X9.4173Y-1.7047
X9.4228Y-1.6671
X9.4252Y-3.5827
X9.4291Y-1.5827
X9.4331Y-1.6161
X9.4658Y-4.5008
X9.4724Y-2.0472
X9.5106Y-4.9374
X9.6004Y-2.2441
X9.6161Y-2.1319
X9.6299Y-1.7087
X9.6732Y-1.6142
X9.6753Y-1.8444
X9.6988Y-3.6737
X9.7126Y-1.5492
X9.7411Y-1.8593
X9.7697Y-1.8248
X9.8272Y-4.8681
X9.8858Y-5.0295
X9.8937Y-1.937
X9.8937Y-1.9882
X9.9252Y-1.8504
X9.9409Y-1.937
X9.9409Y-1.9882
X9.9724Y-1.8504
X10.0197Y-1.8504
X10.063Y-1.8504
X10.0689Y-1.937
X10.0689Y-1.9882
X10.3516Y-4.876
X10.4528Y-4.9409
T4
X4.1496Y-1.435
X4.1496Y-1.6369
X4.1496Y-1.8387
X4.1496Y-2.0406
X4.1496Y-4.4628
X4.1496Y-4.6646
X4.1496Y-4.8665
X4.1594Y-5.0886
X4.2736Y-4.9094
X4.2736Y-4.998
X4.3425Y-2.2165
X4.3504Y-1.5512
X4.3504Y-1.6398
X4.3515Y-1.435
X4.3613Y-5.0886
X4.3701Y-3.6339
X4.3858Y-2.1732
X4.4134Y-3.5945
X4.4488Y-2.1496
X4.4528Y-3.5512
X4.4755Y-4.9094
X4.4755Y-4.998
X4.5522Y-1.5512
X4.5522Y-1.6398
X4.5533Y-1.435
X4.5631Y-5.0886
X4.5906Y-2.1457
X4.6102Y-3.2362
X4.6378Y-3.1339
X4.6575Y-2.1732
X4.7283Y-2.1732
X4.748Y-3.0157
X4.7541Y-1.5512
X4.7541Y-1.6398
X4.7552Y-1.435
X4.765Y-5.0886
X4.7913Y-2.9094
X4.8622Y-2.1693
X4.8937Y-3.3858
X4.9016Y-2.8189
X4.9469Y-3.0177
X4.9559Y-1.5512
X4.957Y-1.435
X4.9669Y-5.0886
X4.9724Y-4.3504
X4.9843Y-3.4803
X5.0039Y-2.7953
X5.0157Y-2.1654
X5.0217Y-2.9429
X5.0354Y-4.2913
X5.063Y-3.5512
X5.0886Y-2.8799
X5.0945Y-4.2402
X5.0984Y-2.7953
X5.1457Y-3.6299
X5.1578Y-1.5512
X5.1589Y-1.435
X5.1687Y-5.0886
X5.1772Y-4.2047
X5.1929Y-2.7953
X5.2441Y-4.1339
X5.248Y-4.2047
X5.2795Y-2.7953
X5.3596Y-1.5512
X5.3607Y-1.435
X5.3706Y-5.0886
X5.5615Y-1.5512
X5.5626Y-1.435
X5.5724Y-5.0886
X5.7633Y-1.5512
X5.7644Y-1.435
X5.7743Y-5.0886
X5.874Y-4.626
X5.874Y-4.6811
X5.9663Y-1.435
X5.9761Y-5.0886
X5.9961Y-4.5984
X6.1681Y-1.435
X6.178Y-5.0886
X6.37Y-1.435
X6.3798Y-5.0886
X6.4449Y-2.4134
X6.5039Y-1.5551
X6.5039Y-1.626
X6.5591Y-2.4134
X6.5718Y-1.435
X6.5817Y-5.0886
X6.6161Y-1.5551
X6.6161Y-1.626
X6.7008Y-2.3858
X6.7283Y-1.5551
X6.7283Y-1.626
X6.7737Y-1.435
X6.7756Y-2.4606
X6.7835Y-5.0886
X6.8005Y-2.3858
X6.8268Y-2.5354
X6.8386Y-1.5551
X6.8386Y-1.626
X6.8425Y-1.6929
X6.8642Y-2.4606
X6.9094Y-2.5354
X6.9199Y-2.3819
X6.9252Y-1.5551
X6.9252Y-1.626
X6.9291Y-1.6929
X6.9528Y-2.4606
X6.9755Y-1.435
X6.9854Y-5.0886
X6.9961Y-2.5354
X7.0157Y-1.5827
X7.0157Y-4.748
X7.0394Y-2.3819
X7.0413Y-2.4606
X7.0787Y-2.5354
X7.0945Y-1.6063
X7.1024Y-2.7756
X7.1102Y-1.6929
X7.1299Y-2.4606
X7.1588Y-2.3819
X7.1693Y-2.5354
X7.1732Y-1.6063
X7.1774Y-1.435
X7.1872Y-5.0886
X7.2352Y-4.878
X7.3792Y-1.435
X7.3891Y-5.0886
X7.4055Y-2.7717
X7.437Y-4.878
X7.5811Y-1.435
X7.5909Y-5.0886
X7.6074Y-2.7717
X7.6389Y-4.878
X7.6457Y-3.2165
X7.6614Y-2.1575
X7.689Y-3.2165
X7.7421Y-2.1575
X7.7829Y-1.435
X7.7928Y-5.0886
X7.815Y-2.6929
X7.815Y-2.7638
X7.8228Y-2.1575
X7.9094Y-2.7638
X7.9685Y-3.3524
X7.9848Y-1.435
X7.9946Y-5.0886
X8.0Y-1.5535
X8.0Y-1.6102
X8.0276Y-2.7638
X8.0665Y-1.5535
X8.0665Y-1.6102
X8.0748Y-2.7638
X8.1299Y-2.7638
X8.1614Y-2.5433
X8.185Y-2.7638
X8.1866Y-1.435
X8.1965Y-5.0886
X8.2372Y-4.1033
X8.2441Y-2.7638
X8.2638Y-2.3858
X8.3445Y-2.3858
X8.3465Y-2.7638
X8.3885Y-1.435
X8.3983Y-5.0886
X8.4252Y-2.3858
X8.4606Y-2.9055
X8.5118Y-2.8583
X8.5354Y-3.0394
X8.5472Y-2.5354
X8.5472Y-2.6535
X8.5866Y-2.8504
X8.5903Y-1.435
X8.6002Y-5.0886
X8.6063Y-3.2126
X8.6339Y-2.9646
X8.6339Y-3.0394
X8.6417Y-2.5354
X8.6417Y-2.6535
X8.6535Y-2.8504
X8.7008Y-2.815
X8.703Y-3.3583
X8.7592Y-3.3583
X8.7922Y-1.435
X8.802Y-5.0886
X8.8154Y-3.3583
X8.8716Y-3.3583
X8.9055Y-3.5945
X8.9055Y-3.6575
X8.9278Y-3.3583
X8.9488Y-3.5118
X8.9839Y-3.3583
X8.994Y-1.435
X8.9961Y-3.4685
X9.0039Y-5.0886
X9.0039Y-2.4921
X9.0401Y-3.3583
X9.0444Y-3.4331
X9.0512Y-3.6024
X9.0512Y-3.6654
X9.063Y-2.4409
X9.0709Y-2.6102
X9.0866Y-3.5433
X9.0963Y-3.3583
X9.1006Y-3.4331
X9.1496Y-3.5433
X9.1525Y-3.3583
X9.1567Y-3.4331
X9.1959Y-1.435
X9.2057Y-5.0886
X9.2087Y-3.3583
X9.2129Y-3.4331
X9.2402Y-2.3543
X9.2598Y-3.4606
X9.2835Y-3.5197
X9.3071Y-2.3543
X9.3799Y-4.4685
X9.3977Y-1.435
X9.4076Y-5.0886
X9.5996Y-1.435
X9.6094Y-5.0886
X9.8113Y-5.0886
X10.0131Y-5.0886
X10.5886Y-1.437
X10.5886Y-1.6389
X10.5886Y-1.8407
X10.5886Y-2.0426
X10.5886Y-2.2444
X10.5886Y-2.4463
X10.5886Y-3.0518
X10.5886Y-3.2537
X10.5886Y-3.4555
X10.5886Y-3.6574
X10.5886Y-3.8592
X10.5886Y-4.4648
X10.5886Y-4.6666
T5
X9.8551Y-1.5551
X9.878Y-1.5945
X9.9008Y-1.5551
X9.9236Y-1.5945
X9.9465Y-1.5551
X9.9693Y-1.5945
X9.9921Y-1.5551
X10.015Y-1.5945
X10.0378Y-1.5551
X10.0606Y-1.5945
X10.0835Y-1.5551
X10.1063Y-1.5945
X10.1291Y-1.5551
X10.152Y-1.5945
X10.1748Y-1.5551
X10.1976Y-1.5945
X10.2205Y-1.5551
X10.2433Y-1.5945
X10.2661Y-1.5551
T7
X4.7854Y-1.9114
X4.7854Y-1.9902
X4.7854Y-3.6776
X4.7854Y-3.7563
T9
X9.4167Y-2.4847
X9.4167Y-2.5847
X9.4167Y-2.8646
X9.4167Y-2.9646
X9.4167Y-3.2642
X9.4167Y-3.3642
X9.4167Y-3.6441
X9.4167Y-3.7441
X9.5167Y-2.4847
X9.5167Y-2.5642
X9.5167Y-2.6445
X9.5167Y-2.8051
X9.5167Y-2.8855
X9.5167Y-2.9646
X9.5167Y-3.2642
X9.5167Y-3.3437
X9.5167Y-3.424
X9.5167Y-3.5846
X9.5167Y-3.665
X9.5167Y-3.7441
X9.6167Y-2.5248
X9.6167Y-2.6047
X9.6167Y-2.6847
X9.6167Y-2.7646
X9.6167Y-2.8445
X9.6167Y-2.9244
X9.6167Y-3.3043
X9.6167Y-3.3843
X9.6167Y-3.4642
X9.6167Y-3.5441
X9.6167Y-3.624
X9.6167Y-3.7039
X9.8967Y-2.4846
X9.8967Y-2.9647
X9.8967Y-3.2641
X9.8967Y-3.7442
X9.9545Y-2.4846
X9.9545Y-2.9647
X9.9545Y-3.2641
X9.9545Y-3.7442
T10
X10.2197Y-4.0614
X10.2197Y-4.1992
T11
X10.3419Y-2.4071
X10.3419Y-3.0421
X10.3419Y-3.1866
X10.3419Y-3.8217
T6
G00X10.4051Y-4.3858
M15
G01X10.3618Y-4.3858
M16
G05
G00X10.4051Y-4.726
M15
G01X10.3618Y-4.726
M16
G05
G00X10.5634Y-4.3858
M15
G01X10.5319Y-4.3858
M16
G05
G00X10.5634Y-4.726
M15
G01X10.5319Y-4.726
M16
G05
T8
G00X9.7839Y-1.4469
M15
G01X9.8547Y-1.4469
M16
G05
G00X9.9059Y-1.7028
M15
G01X9.9768Y-1.7028
M16
G05
G00X10.1579Y-1.4469
M15
G01X10.2287Y-1.4469
M16
G05
G00X10.2602Y-1.7028
M15
G01X10.3311Y-1.7028
M16
G05
M30
